<?xml version="1.0" encoding="utf-8" standalone="no"?>
<!DOCTYPE svg PUBLIC "-//W3C//DTD SVG 1.1//EN"
  "http://www.w3.org/Graphics/SVG/1.1/DTD/svg11.dtd">
<svg xmlns:xlink="http://www.w3.org/1999/xlink" width="298.409438pt" height="91.343254pt" viewBox="0 0 298.409438 91.343254" xmlns="http://www.w3.org/2000/svg" version="1.1">
 <metadata>
  <rdf:RDF xmlns:dc="http://purl.org/dc/elements/1.1/" xmlns:cc="http://creativecommons.org/ns#" xmlns:rdf="http://www.w3.org/1999/02/22-rdf-syntax-ns#">
   <cc:Work>
    <dc:type rdf:resource="http://purl.org/dc/dcmitype/StillImage"/>
    <dc:date>2024-10-17T18:10:12.678867</dc:date>
    <dc:format>image/svg+xml</dc:format>
    <dc:creator>
     <cc:Agent>
      <dc:title>Matplotlib v3.5.1, https://matplotlib.org/</dc:title>
     </cc:Agent>
    </dc:creator>
   </cc:Work>
  </rdf:RDF>
 </metadata>
 <defs>
  <style type="text/css">*{stroke-linejoin: round; stroke-linecap: butt}</style>
 </defs>
 <g id="figure_1">
  <g id="patch_1">
   <path d="M 0 91.343254 
L 298.409438 91.343254 
L 298.409438 0 
L 0 0 
z
" style="fill: #ffffff"/>
  </g>
  <g id="axes_1">
   <g id="patch_2">
    <path d="M 58.523438 67.465129 
L 291.209438 67.465129 
L 291.209438 8.756329 
L 58.523438 8.756329 
z
" style="fill: #ffffff"/>
   </g>
   <g id="line2d_1">
    <path d="M 58.523438 38.110726 
L 291.209438 38.110726 
" clip-path="url(#pedc28c96f7)" style="fill: none; stroke: #000000; stroke-width: 0.5; stroke-linecap: square"/>
   </g>
   <g id="patch_3">
    <path d="M 62.904631 38.099572 
L 60.472215 38.099572 
L 60.088149 38.110726 
L 58.523438 38.110726 
L 60.758001 38.049498 
L 62.613672 38.049498 
L 64.848236 38.110726 
L 63.284817 38.110726 
L 62.904631 38.099572 
z
M 60.86016 38.088209 
L 62.512806 38.088209 
L 61.687776 38.063854 
L 60.86016 38.088209 
z
" clip-path="url(#pedc28c96f7)" style="fill: #fead70"/>
   </g>
   <g id="patch_4">
    <path d="M 58.523438 37.670788 
L 64.848236 37.670788 
L 64.848236 37.744647 
L 62.572779 37.744647 
L 62.572779 38.049498 
L 60.803307 38.049498 
L 60.803307 37.744647 
L 58.523438 37.744647 
L 58.523438 37.670788 
z
" clip-path="url(#pedc28c96f7)" style="fill: #028391"/>
   </g>
   <g id="patch_5">
    <path d="M 71.505918 37.992448 
Q 70.97686 38.051076 70.404775 38.080731 
Q 69.832691 38.110726 69.209613 38.110726 
Q 67.351534 38.110726 66.266327 37.888486 
Q 65.18112 37.666245 65.18112 37.286187 
Q 65.18112 36.904764 66.266327 36.682865 
Q 67.351534 36.460624 69.209613 36.460624 
Q 69.832691 36.460624 70.404775 36.49062 
Q 70.97686 36.520274 71.505918 36.578902 
L 71.505918 36.907832 
Q 70.972079 36.830116 70.454175 36.793985 
Q 69.936272 36.757854 69.364188 36.757854 
Q 68.337942 36.757854 67.749922 36.898629 
Q 67.163496 37.039063 67.163496 37.286187 
Q 67.163496 37.532287 67.749922 37.673062 
Q 68.337942 37.813497 69.364188 37.813497 
Q 69.936272 37.813497 70.454175 37.777366 
Q 70.972079 37.740894 71.505918 37.663177 
L 71.505918 37.992448 
z
" clip-path="url(#pedc28c96f7)" style="fill: #f6dcac"/>
   </g>
   <g id="patch_6">
    <path d="M 69.562313 36.079465 
L 67.129897 36.079465 
L 66.745832 36.460624 
L 65.18112 36.460624 
L 67.415684 34.368284 
L 69.271354 34.368284 
L 71.505918 36.460624 
L 69.942499 36.460624 
L 69.562313 36.079465 
z
M 67.517843 35.691131 
L 69.170489 35.691131 
L 68.345459 34.858858 
L 67.517843 35.691131 
z
" clip-path="url(#pedc28c96f7)" style="fill: #fead70"/>
   </g>
   <g id="patch_7">
    <path d="M 78.163601 38.011579 
Q 77.525734 38.061153 76.839674 38.086053 
Q 76.153613 38.110726 75.422193 38.110726 
Q 73.769411 38.110726 72.804107 37.963138 
Q 71.838802 37.815549 71.838802 37.563154 
Q 71.838802 37.307816 72.821116 37.161359 
Q 73.804848 37.014902 75.515747 37.014902 
Q 76.174875 37.014902 76.778722 37.034822 
Q 77.383986 37.054516 77.919794 37.09345 
L 77.919794 37.311891 
Q 77.366977 37.261864 76.819829 37.237191 
Q 76.272682 37.212291 75.722699 37.212291 
Q 74.704948 37.212291 74.153548 37.303289 
Q 73.602148 37.394061 73.602148 37.563154 
Q 73.602148 37.730663 74.133703 37.822113 
Q 74.665259 37.913338 75.64332 37.913338 
Q 75.909806 37.913338 76.138021 37.908131 
Q 76.366235 37.902699 76.547673 37.891381 
L 76.547673 37.686295 
L 75.505825 37.686295 
L 75.505825 37.50362 
L 78.163601 37.50362 
L 78.163601 38.011579 
z
" clip-path="url(#pedc28c96f7)" style="fill: #01204e"/>
   </g>
   <g id="patch_8">
    <path d="M 76.219996 36.548103 
L 73.78758 36.548103 
L 73.403514 37.014902 
L 71.838802 37.014902 
L 74.073366 34.452449 
L 75.929037 34.452449 
L 78.163601 37.014902 
L 76.600182 37.014902 
L 76.219996 36.548103 
z
M 74.175525 36.072517 
L 75.828171 36.072517 
L 75.003141 35.053247 
L 74.175525 36.072517 
z
" clip-path="url(#pedc28c96f7)" style="fill: #fead70"/>
   </g>
   <g id="patch_9">
    <path d="M 84.821283 38.0321 
Q 84.292225 38.071073 83.72014 38.090787 
Q 83.148056 38.110726 82.524978 38.110726 
Q 80.666899 38.110726 79.581692 37.96299 
Q 78.496485 37.815253 78.496485 37.562605 
Q 78.496485 37.309051 79.581692 37.161541 
Q 80.666899 37.013805 82.524978 37.013805 
Q 83.148056 37.013805 83.72014 37.033745 
Q 84.292225 37.053458 84.821283 37.092431 
L 84.821283 37.311091 
Q 84.287444 37.259428 83.76954 37.23541 
Q 83.251637 37.211391 82.679552 37.211391 
Q 81.653306 37.211391 81.065287 37.304973 
Q 80.47886 37.398328 80.47886 37.562605 
Q 80.47886 37.726203 81.065287 37.819785 
Q 81.653306 37.91314 82.679552 37.91314 
Q 83.251637 37.91314 83.76954 37.889122 
Q 84.287444 37.864876 84.821283 37.813214 
L 84.821283 38.0321 
z
" clip-path="url(#pedc28c96f7)" style="fill: #f6dcac"/>
   </g>
   <g id="patch_10">
    <path d="M 78.496485 35.721401 
L 84.821283 35.721401 
L 84.821283 35.973456 
L 82.545826 35.973456 
L 82.545826 37.013805 
L 80.776354 37.013805 
L 80.776354 35.973456 
L 78.496485 35.973456 
L 78.496485 35.721401 
z
" clip-path="url(#pedc28c96f7)" style="fill: #028391"/>
   </g>
   <g id="patch_11">
    <path d="M 91.478965 37.714572 
Q 90.841099 37.912649 90.155039 38.01214 
Q 89.468978 38.110726 88.737558 38.110726 
Q 87.084776 38.110726 86.119471 37.521017 
Q 85.154167 36.931307 85.154167 35.922832 
Q 85.154167 34.902598 86.136481 34.317411 
Q 87.120213 33.732224 88.831112 33.732224 
Q 89.49024 33.732224 90.094087 33.811817 
Q 90.699351 33.890505 91.235159 34.046072 
L 91.235159 34.918879 
Q 90.682341 34.718993 90.135194 34.620406 
Q 89.588046 34.520915 89.038064 34.520915 
Q 88.020313 34.520915 87.468913 34.884509 
Q 86.917513 35.247199 86.917513 35.922832 
Q 86.917513 36.592134 87.449068 36.957537 
Q 87.980623 37.322035 88.958685 37.322035 
Q 89.225171 37.322035 89.453386 37.301233 
Q 89.6816 37.279525 89.863038 37.234302 
L 89.863038 36.414859 
L 88.821189 36.414859 
L 88.821189 35.684958 
L 91.478965 35.684958 
L 91.478965 37.714572 
z
" clip-path="url(#pedc28c96f7)" style="fill: #01204e"/>
   </g>
   <g id="patch_12">
    <path d="M 91.478965 33.400654 
Q 90.949907 33.565006 90.377823 33.648137 
Q 89.805738 33.732224 89.18266 33.732224 
Q 87.324582 33.732224 86.239374 33.109216 
Q 85.154167 32.486208 85.154167 31.420788 
Q 85.154167 30.351545 86.239374 29.729493 
Q 87.324582 29.106485 89.18266 29.106485 
Q 89.805738 29.106485 90.377823 29.190572 
Q 90.949907 29.273703 91.478965 29.438055 
L 91.478965 30.360145 
Q 90.945126 30.142283 90.427223 30.040997 
Q 89.909319 29.93971 89.337235 29.93971 
Q 88.310989 29.93971 87.722969 30.334346 
Q 87.136543 30.728026 87.136543 31.420788 
Q 87.136543 32.110683 87.722969 32.505319 
Q 88.310989 32.898999 89.337235 32.898999 
Q 89.909319 32.898999 90.427223 32.797712 
Q 90.945126 32.69547 91.478965 32.477608 
L 91.478965 33.400654 
z
" clip-path="url(#pedc28c96f7)" style="fill: #f6dcac"/>
   </g>
   <g id="patch_13">
    <path d="M 91.81185 37.90166 
L 98.136648 37.90166 
L 98.136648 37.942434 
L 95.861191 37.942434 
L 95.861191 38.110726 
L 94.091719 38.110726 
L 94.091719 37.942434 
L 91.81185 37.942434 
L 91.81185 37.90166 
z
" clip-path="url(#pedc28c96f7)" style="fill: #028391"/>
   </g>
   <g id="patch_14">
    <path d="M 96.193043 37.430043 
L 93.760627 37.430043 
L 93.376561 37.90166 
L 91.81185 37.90166 
L 94.046413 35.312759 
L 95.902084 35.312759 
L 98.136648 37.90166 
L 96.573229 37.90166 
L 96.193043 37.430043 
z
M 94.148572 36.949548 
L 95.801218 36.949548 
L 94.976188 35.919758 
L 94.148572 36.949548 
z
" clip-path="url(#pedc28c96f7)" style="fill: #fead70"/>
   </g>
   <g id="patch_15">
    <path d="M 104.79433 37.979307 
Q 104.156464 38.045017 103.470403 38.078022 
Q 102.784343 38.110726 102.052923 38.110726 
Q 100.40014 38.110726 99.434836 37.915098 
Q 98.469532 37.71947 98.469532 37.384922 
Q 98.469532 37.046473 99.451846 36.852345 
Q 100.435577 36.658217 102.146477 36.658217 
Q 102.805605 36.658217 103.409452 36.684621 
Q 104.014716 36.710725 104.550524 36.762332 
L 104.550524 37.051874 
Q 103.997706 36.985564 103.450559 36.952859 
Q 102.903411 36.919855 102.353429 36.919855 
Q 101.335678 36.919855 100.784278 37.040472 
Q 100.232878 37.160789 100.232878 37.384922 
Q 100.232878 37.606954 100.764433 37.728171 
Q 101.295988 37.849089 102.27405 37.849089 
Q 102.540536 37.849089 102.76875 37.842188 
Q 102.996965 37.834987 103.178402 37.819985 
L 103.178402 37.548145 
L 102.136554 37.548145 
L 102.136554 37.30601 
L 104.79433 37.30601 
L 104.79433 37.979307 
z
" clip-path="url(#pedc28c96f7)" style="fill: #01204e"/>
   </g>
   <g id="patch_16">
    <path d="M 104.79433 36.459537 
Q 104.265272 36.558018 103.693187 36.607831 
Q 103.121103 36.658217 102.498025 36.658217 
Q 100.639946 36.658217 99.554739 36.284904 
Q 98.469532 35.911592 98.469532 35.273181 
Q 98.469532 34.632481 99.554739 34.259741 
Q 100.639946 33.886428 102.498025 33.886428 
Q 103.121103 33.886428 103.693187 33.936814 
Q 104.265272 33.986627 104.79433 34.085108 
L 104.79433 34.637634 
Q 104.260491 34.507089 103.742587 34.446397 
Q 103.224684 34.385705 102.6526 34.385705 
Q 101.626354 34.385705 101.038334 34.622175 
Q 100.451908 34.858071 100.451908 35.273181 
Q 100.451908 35.686574 101.038334 35.923043 
Q 101.626354 36.15894 102.6526 36.15894 
Q 103.224684 36.15894 103.742587 36.098248 
Q 104.260491 36.036984 104.79433 35.906439 
L 104.79433 36.459537 
z
" clip-path="url(#pedc28c96f7)" style="fill: #f6dcac"/>
   </g>
   <g id="patch_17">
    <path d="M 111.452013 37.956257 
Q 110.922954 38.032824 110.35087 38.071553 
Q 109.778786 38.110726 109.155708 38.110726 
Q 107.297629 38.110726 106.212422 37.820483 
Q 105.127214 37.530241 105.127214 37.033889 
Q 105.127214 36.535758 106.212422 36.24596 
Q 107.297629 35.955717 109.155708 35.955717 
Q 109.778786 35.955717 110.35087 35.994891 
Q 110.922954 36.03362 111.452013 36.110187 
L 111.452013 36.539764 
Q 110.918173 36.438268 110.40027 36.391081 
Q 109.882366 36.343895 109.310282 36.343895 
Q 108.284036 36.343895 107.696016 36.527745 
Q 107.10959 36.71115 107.10959 37.033889 
Q 107.10959 37.355293 107.696016 37.539144 
Q 108.284036 37.722549 109.310282 37.722549 
Q 109.882366 37.722549 110.40027 37.675362 
Q 110.918173 37.62773 111.452013 37.526234 
L 111.452013 37.956257 
z
" clip-path="url(#pedc28c96f7)" style="fill: #f6dcac"/>
   </g>
   <g id="patch_18">
    <path d="M 111.452013 35.548089 
Q 110.814146 35.751903 110.128086 35.854275 
Q 109.442025 35.955717 108.710605 35.955717 
Q 107.057823 35.955717 106.092519 35.348929 
Q 105.127214 34.742141 105.127214 33.704458 
Q 105.127214 32.654678 106.109528 32.052543 
Q 107.09326 31.450408 108.804159 31.450408 
Q 109.463287 31.450408 110.067134 31.532306 
Q 110.672398 31.613273 111.208206 31.773346 
L 111.208206 32.671429 
Q 110.655389 32.465754 110.108241 32.364313 
Q 109.561094 32.26194 109.011111 32.26194 
Q 107.99336 32.26194 107.44196 32.636064 
Q 106.89056 33.009258 106.89056 33.704458 
Q 106.89056 34.393144 107.422115 34.76913 
Q 107.953671 35.144184 108.931732 35.144184 
Q 109.198219 35.144184 109.426433 35.122779 
Q 109.654647 35.100443 109.836085 35.053911 
L 109.836085 34.210736 
L 108.794237 34.210736 
L 108.794237 33.459696 
L 111.452013 33.459696 
L 111.452013 35.548089 
z
" clip-path="url(#pedc28c96f7)" style="fill: #01204e"/>
   </g>
   <g id="patch_19">
    <path d="M 118.109695 37.788207 
Q 117.580637 37.948073 117.008552 38.028935 
Q 116.436468 38.110726 115.81339 38.110726 
Q 113.955311 38.110726 112.870104 37.504724 
Q 111.784897 36.898723 111.784897 35.862385 
Q 111.784897 34.822329 112.870104 34.217257 
Q 113.955311 33.611255 115.81339 33.611255 
Q 116.436468 33.611255 117.008552 33.693047 
Q 117.580637 33.773909 118.109695 33.933774 
L 118.109695 34.830694 
Q 117.575856 34.61878 117.057952 34.520258 
Q 116.540049 34.421736 115.967964 34.421736 
Q 114.941718 34.421736 114.353699 34.805599 
Q 113.767272 35.188533 113.767272 35.862385 
Q 113.767272 36.533448 114.353699 36.917312 
Q 114.941718 37.300245 115.967964 37.300245 
Q 116.540049 37.300245 117.057952 37.201724 
Q 117.575856 37.102272 118.109695 36.890357 
L 118.109695 37.788207 
z
" clip-path="url(#pedc28c96f7)" style="fill: #f6dcac"/>
   </g>
   <g id="patch_20">
    <path d="M 116.16609 32.686709 
L 113.733674 32.686709 
L 113.349609 33.611255 
L 111.784897 33.611255 
L 114.019461 28.53604 
L 115.875131 28.53604 
L 118.109695 33.611255 
L 116.546276 33.611255 
L 116.16609 32.686709 
z
M 114.121619 31.744759 
L 115.774266 31.744759 
L 114.949236 29.725985 
L 114.121619 31.744759 
z
" clip-path="url(#pedc28c96f7)" style="fill: #fead70"/>
   </g>
   <g id="patch_21">
    <path d="M 118.109695 26.746427 
Q 117.471829 27.641233 116.785768 28.090679 
Q 116.099708 28.53604 115.368288 28.53604 
Q 113.715505 28.53604 112.750201 25.872051 
Q 111.784897 23.208061 111.784897 18.652313 
Q 111.784897 14.043449 112.767211 11.399889 
Q 113.750942 8.756329 115.461841 8.756329 
Q 116.12097 8.756329 116.724816 9.115886 
Q 117.330081 9.471357 117.865888 10.174127 
L 117.865888 14.116994 
Q 117.313071 13.214016 116.765923 12.768656 
Q 116.218776 12.31921 115.668793 12.31921 
Q 114.651042 12.31921 114.099642 13.961731 
Q 113.548243 15.600166 113.548243 18.652313 
Q 113.548243 21.675859 114.079798 23.326552 
Q 114.611353 24.973158 115.589415 24.973158 
Q 115.855901 24.973158 116.084115 24.879183 
Q 116.31233 24.781122 116.493767 24.576829 
L 116.493767 20.875028 
L 115.451919 20.875028 
L 115.451919 17.577729 
L 118.109695 17.577729 
L 118.109695 26.746427 
z
" clip-path="url(#pedc28c96f7)" style="fill: #01204e"/>
   </g>
   <g id="patch_22">
    <path d="M 122.823772 34.655984 
L 120.391357 34.655984 
L 120.007291 38.110726 
L 118.442579 38.110726 
L 120.677143 19.146221 
L 122.532814 19.146221 
L 124.767377 38.110726 
L 123.203959 38.110726 
L 122.823772 34.655984 
z
M 120.779302 31.13621 
L 122.431948 31.13621 
L 121.606918 23.592678 
L 120.779302 31.13621 
z
" clip-path="url(#pedc28c96f7)" style="fill: #fead70"/>
   </g>
   <g id="patch_23">
    <path d="M 131.42506 38.088113 
Q 130.787194 38.09942 130.101133 38.105099 
Q 129.415072 38.110726 128.683652 38.110726 
Q 127.03087 38.110726 126.065566 38.077065 
Q 125.100262 38.043403 125.100262 37.985837 
Q 125.100262 37.9276 126.082576 37.894196 
Q 127.066307 37.860793 128.777206 37.860793 
Q 129.436335 37.860793 130.040181 37.865336 
Q 130.645446 37.869828 131.181253 37.878708 
L 131.181253 37.928529 
Q 130.628436 37.91712 130.081288 37.911492 
Q 129.534141 37.905813 128.984158 37.905813 
Q 127.966407 37.905813 127.415007 37.926568 
Q 126.863607 37.947271 126.863607 37.985837 
Q 126.863607 38.024042 127.395163 38.0449 
Q 127.926718 38.065706 128.904779 38.065706 
Q 129.171266 38.065706 129.39948 38.064519 
Q 129.627694 38.06328 129.809132 38.060698 
L 129.809132 38.013923 
L 128.767284 38.013923 
L 128.767284 37.972259 
L 131.42506 37.972259 
L 131.42506 38.088113 
z
" clip-path="url(#pedc28c96f7)" style="fill: #01204e"/>
   </g>
   <g id="patch_24">
    <path d="M 129.481455 35.829036 
L 127.049039 35.829036 
L 126.664973 37.860793 
L 125.100262 37.860793 
L 127.334825 26.707645 
L 129.190496 26.707645 
L 131.42506 37.860793 
L 129.861641 37.860793 
L 129.481455 35.829036 
z
M 127.436984 33.759035 
L 129.08963 33.759035 
L 128.2646 29.322635 
L 127.436984 33.759035 
z
" clip-path="url(#pedc28c96f7)" style="fill: #fead70"/>
   </g>
   <g id="patch_25">
    <path d="M 131.757944 24.84415 
L 138.082742 24.84415 
L 138.082742 27.431502 
L 135.807286 27.431502 
L 135.807286 38.110726 
L 134.037813 38.110726 
L 134.037813 27.431502 
L 131.757944 27.431502 
L 131.757944 24.84415 
z
" clip-path="url(#pedc28c96f7)" style="fill: #028391"/>
   </g>
   <g id="patch_26">
    <path d="M 138.415626 29.115726 
L 144.740425 29.115726 
L 144.740425 30.870001 
L 142.464968 30.870001 
L 142.464968 38.110726 
L 140.695495 38.110726 
L 140.695495 30.870001 
L 138.415626 30.870001 
L 138.415626 29.115726 
z
" clip-path="url(#pedc28c96f7)" style="fill: #028391"/>
   </g>
   <g id="patch_27">
    <path d="M 144.740425 28.08877 
Q 144.102558 28.602248 143.416498 28.860159 
Q 142.730437 29.115726 141.999017 29.115726 
Q 140.346235 29.115726 139.380931 27.587015 
Q 138.415626 26.058304 138.415626 23.44402 
Q 138.415626 20.799257 139.39794 19.282269 
Q 140.381672 17.765281 142.092571 17.765281 
Q 142.751699 17.765281 143.355546 17.97161 
Q 143.96081 18.175595 144.496618 18.578874 
L 144.496618 20.84146 
Q 143.943801 20.323293 143.396653 20.067726 
Q 142.849506 19.809815 142.299523 19.809815 
Q 141.281772 19.809815 140.730372 20.752364 
Q 140.178972 21.692568 140.178972 23.44402 
Q 140.178972 25.17906 140.710527 26.126299 
Q 141.242083 27.071192 142.220144 27.071192 
Q 142.486631 27.071192 142.714845 27.017265 
Q 142.943059 26.960993 143.124497 26.843761 
L 143.124497 24.719509 
L 142.082649 24.719509 
L 142.082649 22.827378 
L 144.740425 22.827378 
L 144.740425 28.08877 
z
" clip-path="url(#pedc28c96f7)" style="fill: #01204e"/>
   </g>
   <g id="patch_28">
    <path d="M 151.398107 37.782995 
Q 150.869049 37.945444 150.296964 38.027613 
Q 149.72488 38.110726 149.101802 38.110726 
Q 147.243723 38.110726 146.158516 37.494932 
Q 145.073309 36.879137 145.073309 35.826053 
Q 145.073309 34.769191 146.158516 34.154341 
Q 147.243723 33.538546 149.101802 33.538546 
Q 149.72488 33.538546 150.296964 33.62166 
Q 150.869049 33.703829 151.398107 33.866278 
L 151.398107 34.777691 
Q 150.864268 34.562352 150.346364 34.462238 
Q 149.828461 34.362124 149.256376 34.362124 
Q 148.23013 34.362124 147.642111 34.752191 
Q 147.055684 35.141312 147.055684 35.826053 
Q 147.055684 36.507961 147.642111 36.898027 
Q 148.23013 37.287148 149.256376 37.287148 
Q 149.828461 37.287148 150.346364 37.187035 
Q 150.864268 37.085976 151.398107 36.870637 
L 151.398107 37.782995 
z
" clip-path="url(#pedc28c96f7)" style="fill: #f6dcac"/>
   </g>
   <g id="patch_29">
    <path d="M 151.398107 31.595216 
Q 150.760241 32.566881 150.07418 33.054932 
Q 149.38812 33.538546 148.6567 33.538546 
Q 147.003917 33.538546 146.038613 30.645735 
Q 145.073309 27.752923 145.073309 22.805861 
Q 145.073309 17.80112 146.055623 14.930492 
Q 147.039354 12.059865 148.750253 12.059865 
Q 149.409382 12.059865 150.013229 12.450306 
Q 150.618493 12.83631 151.1543 13.599444 
L 151.1543 17.880982 
Q 150.601483 16.900444 150.054335 16.416829 
Q 149.507188 15.928778 148.957205 15.928778 
Q 147.939454 15.928778 147.388055 17.712383 
Q 146.836655 19.491551 146.836655 22.805861 
Q 146.836655 26.089113 147.36821 27.881591 
Q 147.899765 29.669633 148.877827 29.669633 
Q 149.144313 29.669633 149.372527 29.567586 
Q 149.600742 29.461102 149.782179 29.239261 
L 149.782179 25.219495 
L 148.740331 25.219495 
L 148.740331 21.638975 
L 151.398107 21.638975 
L 151.398107 31.595216 
z
" clip-path="url(#pedc28c96f7)" style="fill: #01204e"/>
   </g>
   <g id="patch_30">
    <path d="M 158.055789 37.629925 
Q 157.526731 37.868247 156.954647 37.988794 
Q 156.382562 38.110726 155.759484 38.110726 
Q 153.901406 38.110726 152.816198 37.207318 
Q 151.730991 36.303909 151.730991 34.75897 
Q 151.730991 33.208488 152.816198 32.306465 
Q 153.901406 31.403057 155.759484 31.403057 
Q 156.382562 31.403057 156.954647 31.524989 
Q 157.526731 31.645536 158.055789 31.883858 
L 158.055789 33.220959 
Q 157.52195 32.905043 157.004047 32.758169 
Q 156.486143 32.611296 155.914059 32.611296 
Q 154.887813 32.611296 154.299793 33.183547 
Q 153.713367 33.754413 153.713367 34.75897 
Q 153.713367 35.75937 154.299793 36.331621 
Q 154.887813 36.902487 155.914059 36.902487 
Q 156.486143 36.902487 157.004047 36.755614 
Q 157.52195 36.607355 158.055789 36.291439 
L 158.055789 37.629925 
z
" clip-path="url(#pedc28c96f7)" style="fill: #f6dcac"/>
   </g>
   <g id="patch_31">
    <path d="M 158.055789 30.425194 
Q 157.417923 30.914125 156.731863 31.159707 
Q 156.045802 31.403057 155.314382 31.403057 
Q 153.6616 31.403057 152.696295 29.947425 
Q 151.730991 28.491793 151.730991 26.002485 
Q 151.730991 23.484153 152.713305 22.039684 
Q 153.697037 20.595215 155.407936 20.595215 
Q 156.067064 20.595215 156.670911 20.791681 
Q 157.276175 20.985914 157.811983 21.369915 
L 157.811983 23.524339 
Q 157.259165 23.030942 156.712018 22.787593 
Q 156.16487 22.542011 155.614888 22.542011 
Q 154.597137 22.542011 154.045737 23.439502 
Q 153.494337 24.33476 153.494337 26.002485 
Q 153.494337 27.654582 154.025892 28.556538 
Q 154.557447 29.456261 155.535509 29.456261 
Q 155.801995 29.456261 156.03021 29.404912 
Q 156.258424 29.351331 156.439862 29.239702 
L 156.439862 27.217 
L 155.398013 27.217 
L 155.398013 25.415321 
L 158.055789 25.415321 
L 158.055789 30.425194 
z
" clip-path="url(#pedc28c96f7)" style="fill: #01204e"/>
   </g>
   <g id="patch_32">
    <path d="M 164.713472 36.621203 
Q 164.184413 37.359526 163.612329 37.73298 
Q 163.040245 38.110726 162.417167 38.110726 
Q 160.559088 38.110726 159.473881 35.311968 
Q 158.388674 32.513209 158.388674 27.726989 
Q 158.388674 22.923598 159.473881 20.129132 
Q 160.559088 17.330373 162.417167 17.330373 
Q 163.040245 17.330373 163.612329 17.70812 
Q 164.184413 18.081574 164.713472 18.819897 
L 164.713472 22.962231 
Q 164.179633 21.983524 163.661729 21.528511 
Q 163.143825 21.073498 162.571741 21.073498 
Q 161.545495 21.073498 160.957475 22.846332 
Q 160.371049 24.614872 160.371049 27.726989 
Q 160.371049 30.826228 160.957475 32.599061 
Q 161.545495 34.367601 162.571741 34.367601 
Q 163.143825 34.367601 163.661729 33.912589 
Q 164.179633 33.453283 164.713472 32.474576 
L 164.713472 36.621203 
z
" clip-path="url(#pedc28c96f7)" style="fill: #f6dcac"/>
   </g>
   <g id="patch_33">
    <path d="M 169.427549 38.064654 
L 166.995134 38.064654 
L 166.611068 38.110726 
L 165.046356 38.110726 
L 167.28092 37.857817 
L 169.13659 37.857817 
L 171.371154 38.110726 
L 169.807735 38.110726 
L 169.427549 38.064654 
z
M 167.383079 38.017715 
L 169.035725 38.017715 
L 168.210695 37.917114 
L 167.383079 38.017715 
z
" clip-path="url(#pedc28c96f7)" style="fill: #fead70"/>
   </g>
   <g id="patch_34">
    <path d="M 171.371154 36.38497 
Q 170.733288 37.121393 170.047227 37.491286 
Q 169.361167 37.857817 168.629747 37.857817 
Q 166.976964 37.857817 166.01166 35.665359 
Q 165.046356 33.472902 165.046356 29.723531 
Q 165.046356 25.930445 166.02867 23.754801 
Q 167.012401 21.579157 168.723301 21.579157 
Q 169.382429 21.579157 169.986276 21.875072 
Q 170.59154 22.167623 171.127348 22.746002 
L 171.127348 25.990973 
Q 170.57453 25.247824 170.027383 24.881294 
Q 169.480235 24.511401 168.930253 24.511401 
Q 167.912502 24.511401 167.361102 25.863192 
Q 166.809702 27.21162 166.809702 29.723531 
Q 166.809702 32.211903 167.341257 33.570419 
Q 167.872812 34.925573 168.850874 34.925573 
Q 169.11736 34.925573 169.345575 34.848232 
Q 169.573789 34.767528 169.755226 34.599395 
L 169.755226 31.55282 
L 168.713378 31.55282 
L 168.713378 28.83915 
L 171.371154 28.83915 
L 171.371154 36.38497 
z
" clip-path="url(#pedc28c96f7)" style="fill: #01204e"/>
   </g>
   <g id="patch_35">
    <path d="M 176.085232 37.613225 
L 173.652816 37.613225 
L 173.26875 38.110726 
L 171.704038 38.110726 
L 173.938602 35.379738 
L 175.794273 35.379738 
L 178.028837 38.110726 
L 176.465418 38.110726 
L 176.085232 37.613225 
z
M 174.040761 37.106359 
L 175.693407 37.106359 
L 174.868377 36.020051 
L 174.040761 37.106359 
z
" clip-path="url(#pedc28c96f7)" style="fill: #fead70"/>
   </g>
   <g id="patch_36">
    <path d="M 178.028837 34.467883 
Q 177.39097 34.92381 176.70491 35.152815 
Q 176.018849 35.379738 175.287429 35.379738 
Q 173.634647 35.379738 172.669343 34.022365 
Q 171.704038 32.664992 171.704038 30.343718 
Q 171.704038 27.99538 172.686352 26.648417 
Q 173.670084 25.301454 175.380983 25.301454 
Q 176.040111 25.301454 176.643958 25.484657 
Q 177.249222 25.665779 177.78503 26.023859 
L 177.78503 28.032854 
Q 177.232213 27.572763 176.685065 27.34584 
Q 176.137918 27.116836 175.587935 27.116836 
Q 174.570184 27.116836 174.018784 27.953743 
Q 173.467384 28.788569 173.467384 30.343718 
Q 173.467384 31.884295 173.998939 32.725366 
Q 174.530495 33.564356 175.508556 33.564356 
Q 175.775043 33.564356 176.003257 33.516473 
Q 176.231471 33.466508 176.412909 33.362415 
L 176.412909 31.47625 
L 175.371061 31.47625 
L 175.371061 29.796189 
L 178.028837 29.796189 
L 178.028837 34.467883 
z
" clip-path="url(#pedc28c96f7)" style="fill: #01204e"/>
   </g>
   <g id="patch_37">
    <path d="M 184.686519 38.06804 
Q 184.157461 38.089199 183.585376 38.099901 
Q 183.013292 38.110726 182.390214 38.110726 
Q 180.532135 38.110726 179.446928 38.03052 
Q 178.361721 37.950313 178.361721 37.81315 
Q 178.361721 37.675494 179.446928 37.595411 
Q 180.532135 37.515204 182.390214 37.515204 
Q 183.013292 37.515204 183.585376 37.526029 
Q 184.157461 37.536732 184.686519 37.55789 
L 184.686519 37.676601 
Q 184.15268 37.648554 183.634776 37.635514 
Q 183.116873 37.622474 182.544788 37.622474 
Q 181.518542 37.622474 180.930523 37.67328 
Q 180.344096 37.723963 180.344096 37.81315 
Q 180.344096 37.901968 180.930523 37.952773 
Q 181.518542 38.003456 182.544788 38.003456 
Q 183.116873 38.003456 183.634776 37.990416 
Q 184.15268 37.977254 184.686519 37.949206 
L 184.686519 38.06804 
z
" clip-path="url(#pedc28c96f7)" style="fill: #f6dcac"/>
   </g>
   <g id="patch_38">
    <path d="M 182.742914 35.209878 
L 180.310498 35.209878 
L 179.926433 37.515204 
L 178.361721 37.515204 
L 180.596285 24.86032 
L 182.451955 24.86032 
L 184.686519 37.515204 
L 183.1231 37.515204 
L 182.742914 35.209878 
z
M 180.698443 32.861158 
L 182.35109 32.861158 
L 181.52606 27.827411 
L 180.698443 32.861158 
z
" clip-path="url(#pedc28c96f7)" style="fill: #fead70"/>
   </g>
   <g id="patch_39">
    <path d="M 189.400596 34.668202 
L 186.968181 34.668202 
L 186.584115 38.110726 
L 185.019403 38.110726 
L 187.253967 19.21329 
L 189.109638 19.21329 
L 191.344201 38.110726 
L 189.780783 38.110726 
L 189.400596 34.668202 
z
M 187.356126 31.160876 
L 189.008772 31.160876 
L 188.183742 23.644022 
L 187.356126 31.160876 
z
" clip-path="url(#pedc28c96f7)" style="fill: #fead70"/>
   </g>
   <g id="patch_40">
    <path d="M 198.001884 37.578699 
Q 197.364018 37.844713 196.677957 37.978327 
Q 195.991896 38.110726 195.260476 38.110726 
Q 193.607694 38.110726 192.64239 37.318759 
Q 191.677086 36.526792 191.677086 35.172431 
Q 191.677086 33.802279 192.6594 33.016385 
Q 193.643131 32.230491 195.35403 32.230491 
Q 196.013159 32.230491 196.617005 32.337382 
Q 197.22227 32.443059 197.758077 32.651983 
L 197.758077 33.824143 
Q 197.20526 33.5557 196.658112 33.423301 
Q 196.110965 33.289687 195.560982 33.289687 
Q 194.543231 33.289687 193.991831 33.777985 
Q 193.440431 34.265069 193.440431 35.172431 
Q 193.440431 36.071289 193.971987 36.562017 
Q 194.503542 37.051531 195.481603 37.051531 
Q 195.74809 37.051531 195.976304 37.023593 
Q 196.204518 36.994441 196.385956 36.933708 
L 196.385956 35.833213 
L 195.344108 35.833213 
L 195.344108 34.852972 
L 198.001884 34.852972 
L 198.001884 37.578699 
z
" clip-path="url(#pedc28c96f7)" style="fill: #01204e"/>
   </g>
   <g id="patch_41">
    <path d="M 196.058279 30.77109 
L 193.625863 30.77109 
L 193.241797 32.230491 
L 191.677086 32.230491 
L 193.911649 24.21924 
L 195.76732 24.21924 
L 198.001884 32.230491 
L 196.438465 32.230491 
L 196.058279 30.77109 
z
M 194.013808 29.284219 
L 195.666454 29.284219 
L 194.841424 26.097575 
L 194.013808 29.284219 
z
" clip-path="url(#pedc28c96f7)" style="fill: #fead70"/>
   </g>
   <g id="patch_42">
    <path d="M 202.715961 37.289621 
L 200.283546 37.289621 
L 199.89948 38.110726 
L 198.334768 38.110726 
L 200.569332 33.603343 
L 202.425002 33.603343 
L 204.659566 38.110726 
L 203.096148 38.110726 
L 202.715961 37.289621 
z
M 200.671491 36.45306 
L 202.324137 36.45306 
L 201.499107 34.660154 
L 200.671491 36.45306 
z
" clip-path="url(#pedc28c96f7)" style="fill: #fead70"/>
   </g>
   <g id="patch_43">
    <path d="M 204.659566 32.579496 
Q 204.0217 33.09142 203.335639 33.34855 
Q 202.649579 33.603343 201.918159 33.603343 
Q 200.265377 33.603343 199.300072 32.07926 
Q 198.334768 30.555177 198.334768 27.948807 
Q 198.334768 25.31205 199.317082 23.799654 
Q 200.300814 22.287259 202.011713 22.287259 
Q 202.670841 22.287259 203.274688 22.492963 
Q 203.879952 22.69633 204.41576 23.098389 
L 204.41576 25.354126 
Q 203.862942 24.837527 203.315795 24.582734 
Q 202.768647 24.325603 202.218665 24.325603 
Q 201.200914 24.325603 200.649514 25.265299 
Q 200.098114 26.202657 200.098114 27.948807 
Q 200.098114 29.678595 200.629669 30.622966 
Q 201.161224 31.564999 202.139286 31.564999 
Q 202.405772 31.564999 202.633987 31.511235 
Q 202.862201 31.455134 203.043638 31.338256 
L 203.043638 29.220435 
L 202.00179 29.220435 
L 202.00179 27.334031 
L 204.659566 27.334031 
L 204.659566 32.579496 
z
" clip-path="url(#pedc28c96f7)" style="fill: #01204e"/>
   </g>
   <g id="patch_44">
    <path d="M 209.373644 34.67573 
L 206.941228 34.67573 
L 206.557162 38.110726 
L 204.99245 38.110726 
L 207.227014 19.254618 
L 209.082685 19.254618 
L 211.317249 38.110726 
L 209.75383 38.110726 
L 209.373644 34.67573 
z
M 207.329173 31.176075 
L 208.981819 31.176075 
L 208.156789 23.67566 
L 207.329173 31.176075 
z
" clip-path="url(#pedc28c96f7)" style="fill: #fead70"/>
   </g>
   <g id="patch_45">
    <path d="M 216.031326 35.36805 
L 213.59891 35.36805 
L 213.214845 38.110726 
L 211.650133 38.110726 
L 213.884697 23.055044 
L 215.740367 23.055044 
L 217.974931 38.110726 
L 216.411512 38.110726 
L 216.031326 35.36805 
z
M 213.986855 32.573746 
L 215.639502 32.573746 
L 214.814472 26.585031 
L 213.986855 32.573746 
z
" clip-path="url(#pedc28c96f7)" style="fill: #fead70"/>
   </g>
   <g id="patch_46">
    <path d="M 222.689009 36.298144 
L 220.256593 36.298144 
L 219.872527 38.110726 
L 218.307815 38.110726 
L 220.542379 28.160717 
L 222.39805 28.160717 
L 224.632613 38.110726 
L 223.069195 38.110726 
L 222.689009 36.298144 
z
M 220.644538 34.451443 
L 222.297184 34.451443 
L 221.472154 30.493616 
L 220.644538 34.451443 
z
" clip-path="url(#pedc28c96f7)" style="fill: #fead70"/>
   </g>
   <g id="patch_47">
    <path d="M 229.346691 37.661487 
L 226.914275 37.661487 
L 226.530209 38.110726 
L 224.965498 38.110726 
L 227.200061 35.644666 
L 229.055732 35.644666 
L 231.290296 38.110726 
L 229.726877 38.110726 
L 229.346691 37.661487 
z
M 227.30222 37.203791 
L 228.954866 37.203791 
L 228.129836 36.222864 
L 227.30222 37.203791 
z
" clip-path="url(#pedc28c96f7)" style="fill: #fead70"/>
   </g>
   <g id="patch_48">
    <path d="M 231.290296 35.28694 
Q 230.761237 35.464257 230.189153 35.553946 
Q 229.617069 35.644666 228.993991 35.644666 
Q 227.135912 35.644666 226.050705 34.972512 
Q 224.965498 34.300359 224.965498 33.150894 
Q 224.965498 31.997306 226.050705 31.326183 
Q 227.135912 30.65403 228.993991 30.65403 
Q 229.617069 30.65403 230.189153 30.74475 
Q 230.761237 30.834439 231.290296 31.011756 
L 231.290296 32.006584 
Q 230.756457 31.771537 230.238553 31.66226 
Q 229.72065 31.552984 229.148565 31.552984 
Q 228.122319 31.552984 227.5343 31.978749 
Q 226.947873 32.403484 226.947873 33.150894 
Q 226.947873 33.895211 227.5343 34.320977 
Q 228.122319 34.745712 229.148565 34.745712 
Q 229.72065 34.745712 230.238553 34.636436 
Q 230.756457 34.526128 231.290296 34.291081 
L 231.290296 35.28694 
z
" clip-path="url(#pedc28c96f7)" style="fill: #f6dcac"/>
   </g>
   <g id="patch_49">
    <path d="M 236.004373 37.208885 
L 233.571958 37.208885 
L 233.187892 38.110726 
L 231.62318 38.110726 
L 233.857744 33.160146 
L 235.713414 33.160146 
L 237.947978 38.110726 
L 236.38456 38.110726 
L 236.004373 37.208885 
z
M 233.959903 36.290067 
L 235.612549 36.290067 
L 234.787519 34.32087 
L 233.959903 36.290067 
z
" clip-path="url(#pedc28c96f7)" style="fill: #fead70"/>
   </g>
   <g id="patch_50">
    <path d="M 231.62318 26.949479 
L 237.947978 26.949479 
L 237.947978 28.160732 
L 235.672522 28.160732 
L 235.672522 33.160146 
L 233.903049 33.160146 
L 233.903049 28.160732 
L 231.62318 28.160732 
L 231.62318 26.949479 
z
" clip-path="url(#pedc28c96f7)" style="fill: #028391"/>
   </g>
   <g id="patch_51">
    <path d="M 244.605661 38.062657 
Q 243.967794 38.086692 243.281734 38.098764 
Q 242.595673 38.110726 241.864253 38.110726 
Q 240.211471 38.110726 239.246167 38.039171 
Q 238.280862 37.967615 238.280862 37.845245 
Q 238.280862 37.721449 239.263176 37.650442 
Q 240.246908 37.579435 241.957807 37.579435 
Q 242.616935 37.579435 243.220782 37.589093 
Q 243.826046 37.598641 244.361854 37.617518 
L 244.361854 37.723425 
Q 243.809037 37.699171 243.261889 37.687208 
Q 242.714742 37.675136 242.164759 37.675136 
Q 241.147008 37.675136 240.595608 37.719255 
Q 240.044208 37.763264 240.044208 37.845245 
Q 240.044208 37.926459 240.575763 37.970797 
Q 241.107319 38.015026 242.08538 38.015026 
Q 242.351867 38.015026 242.580081 38.012502 
Q 242.808295 38.009868 242.989733 38.00438 
L 242.989733 37.904949 
L 241.947885 37.904949 
L 241.947885 37.816382 
L 244.605661 37.816382 
L 244.605661 38.062657 
z
" clip-path="url(#pedc28c96f7)" style="fill: #01204e"/>
   </g>
   <g id="patch_52">
    <path d="M 238.280862 35.123943 
L 244.605661 35.123943 
L 244.605661 35.602832 
L 242.330204 35.602832 
L 242.330204 37.579435 
L 240.560732 37.579435 
L 240.560732 35.602832 
L 238.280862 35.602832 
L 238.280862 35.123943 
z
" clip-path="url(#pedc28c96f7)" style="fill: #028391"/>
   </g>
   <g id="patch_53">
    <path d="M 242.662056 34.217477 
L 240.22964 34.217477 
L 239.845574 35.123943 
L 238.280862 35.123943 
L 240.515426 30.147982 
L 242.371097 30.147982 
L 244.605661 35.123943 
L 243.042242 35.123943 
L 242.662056 34.217477 
z
M 240.617585 33.293949 
L 242.270231 33.293949 
L 241.445201 31.314656 
L 240.617585 33.293949 
z
" clip-path="url(#pedc28c96f7)" style="fill: #fead70"/>
   </g>
   <g id="patch_54">
    <path d="M 249.319738 37.05975 
L 246.887322 37.05975 
L 246.503257 38.110726 
L 244.938545 38.110726 
L 247.173109 32.341485 
L 249.028779 32.341485 
L 251.263343 38.110726 
L 249.699924 38.110726 
L 249.319738 37.05975 
z
M 247.275267 35.988991 
L 248.927914 35.988991 
L 248.102884 33.694153 
L 247.275267 35.988991 
z
" clip-path="url(#pedc28c96f7)" style="fill: #fead70"/>
   </g>
   <g id="patch_55">
    <path d="M 255.977421 36.830106 
L 253.545005 36.830106 
L 253.160939 38.110726 
L 251.596227 38.110726 
L 253.830791 31.080875 
L 255.686462 31.080875 
L 257.921025 38.110726 
L 256.357607 38.110726 
L 255.977421 36.830106 
z
M 253.93295 35.52538 
L 255.585596 35.52538 
L 254.760566 32.729109 
L 253.93295 35.52538 
z
" clip-path="url(#pedc28c96f7)" style="fill: #fead70"/>
   </g>
   <g id="patch_56">
    <path d="M 258.25391 38.043926 
L 264.578708 38.043926 
L 264.578708 38.056954 
L 262.303251 38.056954 
L 262.303251 38.110726 
L 260.533779 38.110726 
L 260.533779 38.056954 
L 258.25391 38.056954 
L 258.25391 38.043926 
z
" clip-path="url(#pedc28c96f7)" style="fill: #028391"/>
   </g>
   <g id="patch_57">
    <path d="M 264.578708 38.028186 
Q 264.049649 38.035988 263.477565 38.039934 
Q 262.905481 38.043926 262.282403 38.043926 
Q 260.424324 38.043926 259.339117 38.014351 
Q 258.25391 37.984776 258.25391 37.934199 
Q 258.25391 37.883441 259.339117 37.853911 
Q 260.424324 37.824336 262.282403 37.824336 
Q 262.905481 37.824336 263.477565 37.828328 
Q 264.049649 37.832274 264.578708 37.840076 
L 264.578708 37.883849 
Q 264.044869 37.873507 263.526965 37.868698 
Q 263.009062 37.86389 262.436977 37.86389 
Q 261.410731 37.86389 260.822712 37.882624 
Q 260.236285 37.901313 260.236285 37.934199 
Q 260.236285 37.966949 260.822712 37.985683 
Q 261.410731 38.004372 262.436977 38.004372 
Q 263.009062 38.004372 263.526965 37.999564 
Q 264.044869 37.99471 264.578708 37.984368 
L 264.578708 38.028186 
z
" clip-path="url(#pedc28c96f7)" style="fill: #f6dcac"/>
   </g>
   <g id="patch_58">
    <path d="M 262.635103 37.288651 
L 260.202687 37.288651 
L 259.818622 37.824336 
L 258.25391 37.824336 
L 260.488473 34.883742 
L 262.344144 34.883742 
L 264.578708 37.824336 
L 263.015289 37.824336 
L 262.635103 37.288651 
z
M 260.590632 36.742883 
L 262.243278 36.742883 
L 261.418248 35.5732 
L 260.590632 36.742883 
z
" clip-path="url(#pedc28c96f7)" style="fill: #fead70"/>
   </g>
   <g id="patch_59">
    <path d="M 271.23639 38.04011 
Q 270.598524 38.075418 269.912463 38.093153 
Q 269.226403 38.110726 268.494983 38.110726 
Q 266.842201 38.110726 265.876896 38.005609 
Q 264.911592 37.900491 264.911592 37.720726 
Q 264.911592 37.538866 265.893906 37.434554 
Q 266.877638 37.330242 268.588537 37.330242 
Q 269.247665 37.330242 269.851512 37.34443 
Q 270.456776 37.358457 270.992584 37.386187 
L 270.992584 37.541768 
Q 270.439766 37.506137 269.892619 37.488564 
Q 269.345471 37.470829 268.795489 37.470829 
Q 267.777738 37.470829 267.226338 37.535641 
Q 266.674938 37.600292 266.674938 37.720726 
Q 266.674938 37.840032 267.206493 37.905166 
Q 267.738048 37.970139 268.71611 37.970139 
Q 268.982596 37.970139 269.210811 37.966431 
Q 269.439025 37.962562 269.620462 37.954501 
L 269.620462 37.808432 
L 268.578614 37.808432 
L 268.578614 37.678324 
L 271.23639 37.678324 
L 271.23639 38.04011 
z
" clip-path="url(#pedc28c96f7)" style="fill: #01204e"/>
   </g>
   <g id="patch_60">
    <path d="M 264.911592 34.433007 
L 271.23639 34.433007 
L 271.23639 34.998049 
L 268.960934 34.998049 
L 268.960934 37.330242 
L 267.191461 37.330242 
L 267.191461 34.998049 
L 264.911592 34.998049 
L 264.911592 34.433007 
z
" clip-path="url(#pedc28c96f7)" style="fill: #028391"/>
   </g>
   <g id="patch_61">
    <path d="M 275.950468 37.819927 
L 273.518052 37.819927 
L 273.133986 38.110726 
L 271.569274 38.110726 
L 273.803838 36.514409 
L 275.659509 36.514409 
L 277.894073 38.110726 
L 276.330654 38.110726 
L 275.950468 37.819927 
z
M 273.905997 37.523654 
L 275.558643 37.523654 
L 274.733613 36.888685 
L 273.905997 37.523654 
z
" clip-path="url(#pedc28c96f7)" style="fill: #fead70"/>
   </g>
   <g id="patch_62">
    <path d="M 277.894073 36.382673 
Q 277.365014 36.447972 276.79293 36.481 
Q 276.220846 36.514409 275.597768 36.514409 
Q 273.739689 36.514409 272.654482 36.266883 
Q 271.569274 36.019356 271.569274 35.596056 
Q 271.569274 35.171237 272.654482 34.92409 
Q 273.739689 34.676564 275.597768 34.676564 
Q 276.220846 34.676564 276.79293 34.709973 
Q 277.365014 34.743001 277.894073 34.8083 
L 277.894073 35.174654 
Q 277.360234 35.088096 276.84233 35.047854 
Q 276.324426 35.007612 275.752342 35.007612 
Q 274.726096 35.007612 274.138076 35.164404 
Q 273.55165 35.320816 273.55165 35.596056 
Q 273.55165 35.870157 274.138076 36.026949 
Q 274.726096 36.183361 275.752342 36.183361 
Q 276.324426 36.183361 276.84233 36.143119 
Q 277.360234 36.102498 277.894073 36.01594 
L 277.894073 36.382673 
z
" clip-path="url(#pedc28c96f7)" style="fill: #f6dcac"/>
   </g>
   <g id="patch_63">
    <path d="M 278.226957 35.402519 
L 284.551755 35.402519 
L 284.551755 35.930695 
L 282.276299 35.930695 
L 282.276299 38.110726 
L 280.506826 38.110726 
L 280.506826 35.930695 
L 278.226957 35.930695 
L 278.226957 35.402519 
z
" clip-path="url(#pedc28c96f7)" style="fill: #028391"/>
   </g>
   <g id="patch_64">
    <path d="M 64.848236 38.283963 
Q 64.319177 38.273757 63.747093 38.268594 
Q 63.175009 38.263372 62.551931 38.263372 
Q 60.693852 38.263372 59.608645 38.302063 
Q 58.523438 38.340753 58.523438 38.406919 
Q 58.523438 38.473322 59.608645 38.511954 
Q 60.693852 38.550644 62.551931 38.550644 
Q 63.175009 38.550644 63.747093 38.545422 
Q 64.319177 38.54026 64.848236 38.530053 
L 64.848236 38.472788 
Q 64.314397 38.486318 63.796493 38.492608 
Q 63.278589 38.498899 62.706505 38.498899 
Q 61.680259 38.498899 61.092239 38.474391 
Q 60.505813 38.449942 60.505813 38.406919 
Q 60.505813 38.364074 61.092239 38.339566 
Q 61.680259 38.315118 62.706505 38.315118 
Q 63.278589 38.315118 63.796493 38.321408 
Q 64.314397 38.327757 64.848236 38.341287 
L 64.848236 38.283963 
z
" clip-path="url(#pedc28c96f7)" style="fill: #f6dcac"/>
   </g>
   <g id="patch_65">
    <path d="M 64.848236 38.124537 
Q 64.21037 38.117632 63.524309 38.114163 
Q 62.838248 38.110726 62.106828 38.110726 
Q 60.454046 38.110726 59.488742 38.131285 
Q 58.523438 38.151844 58.523438 38.187002 
Q 58.523438 38.22257 59.505752 38.242971 
Q 60.489483 38.263372 62.200382 38.263372 
Q 62.859511 38.263372 63.463357 38.260597 
Q 64.068621 38.257854 64.604429 38.25243 
L 64.604429 38.222002 
Q 64.051612 38.228971 63.504464 38.232408 
Q 62.957317 38.235876 62.407334 38.235876 
Q 61.389583 38.235876 60.838183 38.2232 
Q 60.286783 38.210556 60.286783 38.187002 
Q 60.286783 38.163668 60.818339 38.150929 
Q 61.349894 38.138222 62.327955 38.138222 
Q 62.594442 38.138222 62.822656 38.138947 
Q 63.05087 38.139704 63.232308 38.141281 
L 63.232308 38.169849 
L 62.19046 38.169849 
L 62.19046 38.195295 
L 64.848236 38.195295 
L 64.848236 38.124537 
z
" clip-path="url(#pedc28c96f7)" style="fill: #01204e"/>
   </g>
   <g id="patch_66">
    <path d="M 71.505918 38.215031 
Q 70.868052 38.162879 70.181991 38.136683 
Q 69.495931 38.110726 68.764511 38.110726 
Q 67.111728 38.110726 66.146424 38.265992 
Q 65.18112 38.421258 65.18112 38.686781 
Q 65.18112 38.955401 66.163434 39.109476 
Q 67.147165 39.263551 68.858064 39.263551 
Q 69.517193 39.263551 70.12104 39.242594 
Q 70.726304 39.221877 71.262112 39.180917 
L 71.262112 38.951114 
Q 70.709294 39.003742 70.162147 39.029699 
Q 69.614999 39.055895 69.065017 39.055895 
Q 68.047266 39.055895 67.495866 38.960163 
Q 66.944466 38.86467 66.944466 38.686781 
Q 66.944466 38.510559 67.476021 38.414352 
Q 68.007576 38.318382 68.985638 38.318382 
Q 69.252124 38.318382 69.480338 38.32386 
Q 69.708553 38.329575 69.88999 38.341482 
L 69.88999 38.557234 
L 68.848142 38.557234 
L 68.848142 38.749411 
L 71.505918 38.749411 
L 71.505918 38.215031 
z
" clip-path="url(#pedc28c96f7)" style="fill: #01204e"/>
   </g>
   <g id="patch_67">
    <path d="M 65.18112 41.853142 
L 71.505918 41.853142 
L 71.505918 41.3481 
L 69.230462 41.3481 
L 69.230462 39.263551 
L 67.460989 39.263551 
L 67.460989 41.3481 
L 65.18112 41.3481 
L 65.18112 41.853142 
z
" clip-path="url(#pedc28c96f7)" style="fill: #028391"/>
   </g>
   <g id="patch_68">
    <path d="M 78.163601 38.11685 
Q 77.634542 38.113815 77.062458 38.112279 
Q 76.490374 38.110726 75.867296 38.110726 
Q 74.009217 38.110726 72.92401 38.122232 
Q 71.838802 38.133738 71.838802 38.153414 
Q 71.838802 38.17316 72.92401 38.184648 
Q 74.009217 38.196154 75.867296 38.196154 
Q 76.490374 38.196154 77.062458 38.194601 
Q 77.634542 38.193066 78.163601 38.190031 
L 78.163601 38.173002 
Q 77.629761 38.177025 77.111858 38.178896 
Q 76.593954 38.180766 76.02187 38.180766 
Q 74.995624 38.180766 74.407604 38.173478 
Q 73.821178 38.166208 73.821178 38.153414 
Q 73.821178 38.140673 74.407604 38.133385 
Q 74.995624 38.126114 76.02187 38.126114 
Q 76.593954 38.126114 77.111858 38.127985 
Q 77.629761 38.129873 78.163601 38.133897 
L 78.163601 38.11685 
z
" clip-path="url(#pedc28c96f7)" style="fill: #f6dcac"/>
   </g>
   <g id="patch_69">
    <path d="M 71.838802 41.769031 
L 78.163601 41.769031 
L 78.163601 41.07222 
L 75.888144 41.07222 
L 75.888144 38.196154 
L 74.118671 38.196154 
L 74.118671 41.07222 
L 71.838802 41.07222 
L 71.838802 41.769031 
z
" clip-path="url(#pedc28c96f7)" style="fill: #028391"/>
   </g>
   <g id="patch_70">
    <path d="M 82.877678 38.11102 
L 80.445262 38.11102 
L 80.061197 38.110726 
L 78.496485 38.110726 
L 80.731048 38.112339 
L 82.586719 38.112339 
L 84.821283 38.110726 
L 83.257864 38.110726 
L 82.877678 38.11102 
z
M 80.833207 38.111319 
L 82.485853 38.111319 
L 81.660824 38.111961 
L 80.833207 38.111319 
z
" clip-path="url(#pedc28c96f7)" style="fill: #fead70"/>
   </g>
   <g id="patch_71">
    <path d="M 84.821283 38.32837 
Q 84.183417 38.220355 83.497356 38.1661 
Q 82.811296 38.112339 82.079876 38.112339 
Q 80.427093 38.112339 79.461789 38.43392 
Q 78.496485 38.755501 78.496485 39.305444 
Q 78.496485 39.861799 79.478799 40.180913 
Q 80.46253 40.500028 82.173429 40.500028 
Q 82.832558 40.500028 83.436404 40.456625 
Q 84.041669 40.413714 84.577476 40.32888 
L 84.577476 39.852921 
Q 84.024659 39.961923 83.477511 40.015684 
Q 82.930364 40.069938 82.380381 40.069938 
Q 81.36263 40.069938 80.81123 39.871663 
Q 80.259831 39.673881 80.259831 39.305444 
Q 80.259831 38.940459 80.791386 38.741197 
Q 81.322941 38.542429 82.301003 38.542429 
Q 82.567489 38.542429 82.795703 38.553773 
Q 83.023918 38.56561 83.205355 38.590271 
L 83.205355 39.037131 
L 82.163507 39.037131 
L 82.163507 39.435161 
L 84.821283 39.435161 
L 84.821283 38.32837 
z
" clip-path="url(#pedc28c96f7)" style="fill: #01204e"/>
   </g>
   <g id="patch_72">
    <path d="M 89.53536 41.26619 
L 87.102945 41.26619 
L 86.718879 39.963388 
L 85.154167 39.963388 
L 87.388731 47.115005 
L 89.244402 47.115005 
L 91.478965 39.963388 
L 89.915547 39.963388 
L 89.53536 41.26619 
z
M 87.49089 42.593515 
L 89.143536 42.593515 
L 88.318506 45.438222 
L 87.49089 42.593515 
z
" clip-path="url(#pedc28c96f7)" style="fill: #fead70"/>
   </g>
   <g id="patch_73">
    <path d="M 85.154167 39.963388 
L 91.478965 39.963388 
L 91.478965 39.602067 
L 89.203509 39.602067 
L 89.203509 38.110726 
L 87.434036 38.110726 
L 87.434036 39.602067 
L 85.154167 39.602067 
L 85.154167 39.963388 
z
" clip-path="url(#pedc28c96f7)" style="fill: #028391"/>
   </g>
   <g id="patch_74">
    <path d="M 98.136648 38.180833 
Q 97.607589 38.146083 97.035505 38.128506 
Q 96.463421 38.110726 95.840343 38.110726 
Q 93.982264 38.110726 92.897057 38.242454 
Q 91.81185 38.374182 91.81185 38.599453 
Q 91.81185 38.825533 92.897057 38.957059 
Q 93.982264 39.088787 95.840343 39.088787 
Q 96.463421 39.088787 97.035505 39.071007 
Q 97.607589 39.05343 98.136648 39.01868 
L 98.136648 38.823714 
Q 97.602809 38.869779 97.084905 38.891195 
Q 96.567001 38.912611 95.994917 38.912611 
Q 94.968671 38.912611 94.380651 38.829169 
Q 93.794225 38.74593 93.794225 38.599453 
Q 93.794225 38.453583 94.380651 38.370142 
Q 94.968671 38.286903 95.994917 38.286903 
Q 96.567001 38.286903 97.084905 38.308318 
Q 97.602809 38.329936 98.136648 38.376001 
L 98.136648 38.180833 
z
" clip-path="url(#pedc28c96f7)" style="fill: #f6dcac"/>
   </g>
   <g id="patch_75">
    <path d="M 98.136648 39.253448 
Q 97.498782 39.171117 96.812721 39.129764 
Q 96.12666 39.088787 95.39524 39.088787 
Q 93.742458 39.088787 92.777154 39.333898 
Q 91.81185 39.57901 91.81185 39.998181 
Q 91.81185 40.42224 92.794164 40.665472 
Q 93.777895 40.908704 95.488794 40.908704 
Q 96.147923 40.908704 96.751769 40.875622 
Q 97.357033 40.842915 97.892841 40.778254 
L 97.892841 40.415473 
Q 97.340024 40.498555 96.792876 40.539533 
Q 96.245729 40.580886 95.695746 40.580886 
Q 94.677995 40.580886 94.126595 40.429759 
Q 93.575195 40.279007 93.575195 39.998181 
Q 93.575195 39.719987 94.106751 39.568108 
Q 94.638306 39.416605 95.616367 39.416605 
Q 95.882854 39.416605 96.111068 39.425251 
Q 96.339282 39.434274 96.52072 39.453071 
L 96.52072 39.793671 
L 95.478872 39.793671 
L 95.478872 40.097053 
L 98.136648 40.097053 
L 98.136648 39.253448 
z
" clip-path="url(#pedc28c96f7)" style="fill: #01204e"/>
   </g>
   <g id="patch_76">
    <path d="M 102.850725 40.482215 
L 100.418309 40.482215 
L 100.034244 40.069513 
L 98.469532 40.069513 
L 100.704096 42.335005 
L 102.559766 42.335005 
L 104.79433 40.069513 
L 103.230911 40.069513 
L 102.850725 40.482215 
z
M 100.806255 40.902686 
L 102.458901 40.902686 
L 101.633871 41.803833 
L 100.806255 40.902686 
z
" clip-path="url(#pedc28c96f7)" style="fill: #fead70"/>
   </g>
   <g id="patch_77">
    <path d="M 98.469532 40.069513 
L 104.79433 40.069513 
L 104.79433 39.687495 
L 102.518874 39.687495 
L 102.518874 38.110726 
L 100.749401 38.110726 
L 100.749401 39.687495 
L 98.469532 39.687495 
L 98.469532 40.069513 
z
" clip-path="url(#pedc28c96f7)" style="fill: #028391"/>
   </g>
   <g id="patch_78">
    <path d="M 109.508408 38.1618 
L 107.075992 38.1618 
L 106.691926 38.110726 
L 105.127214 38.110726 
L 107.361778 38.391091 
L 109.217449 38.391091 
L 111.452013 38.110726 
L 109.888594 38.110726 
L 109.508408 38.1618 
z
M 107.463937 38.213835 
L 109.116583 38.213835 
L 108.291553 38.325356 
L 107.463937 38.213835 
z
" clip-path="url(#pedc28c96f7)" style="fill: #fead70"/>
   </g>
   <g id="patch_79">
    <path d="M 105.127214 44.771011 
L 111.452013 44.771011 
L 111.452013 43.526749 
L 109.176556 43.526749 
L 109.176556 38.391091 
L 107.407083 38.391091 
L 107.407083 43.526749 
L 105.127214 43.526749 
L 105.127214 44.771011 
z
" clip-path="url(#pedc28c96f7)" style="fill: #028391"/>
   </g>
   <g id="patch_80">
    <path d="M 111.784897 67.465129 
L 118.109695 67.465129 
L 118.109695 61.740203 
L 115.834239 61.740203 
L 115.834239 38.110726 
L 114.064766 38.110726 
L 114.064766 61.740203 
L 111.784897 61.740203 
L 111.784897 67.465129 
z
" clip-path="url(#pedc28c96f7)" style="fill: #028391"/>
   </g>
   <g id="patch_81">
    <path d="M 124.767377 48.197909 
Q 124.238319 47.858144 123.666235 47.686287 
Q 123.09415 47.512453 122.471072 47.512453 
Q 120.612994 47.512453 119.527786 48.800399 
Q 118.442579 50.088345 118.442579 52.29089 
Q 118.442579 54.501336 119.527786 55.787307 
Q 120.612994 57.075252 122.471072 57.075252 
Q 123.09415 57.075252 123.666235 56.901419 
Q 124.238319 56.729561 124.767377 56.389797 
L 124.767377 54.483558 
Q 124.233538 54.933944 123.715635 55.143334 
Q 123.197731 55.352724 122.625647 55.352724 
Q 121.599401 55.352724 121.011381 54.536893 
Q 120.424955 53.723038 120.424955 52.29089 
Q 120.424955 50.864668 121.011381 50.048837 
Q 121.599401 49.234982 122.625647 49.234982 
Q 123.197731 49.234982 123.715635 49.444372 
Q 124.233538 49.655737 124.767377 50.106123 
L 124.767377 48.197909 
z
" clip-path="url(#pedc28c96f7)" style="fill: #f6dcac"/>
   </g>
   <g id="patch_82">
    <path d="M 124.767377 38.336351 
Q 124.129511 38.223539 123.443451 38.166875 
Q 122.75739 38.110726 122.02597 38.110726 
Q 120.373188 38.110726 119.407883 38.446588 
Q 118.442579 38.782449 118.442579 39.356812 
Q 118.442579 39.937873 119.424893 40.271158 
Q 120.408625 40.604444 122.119524 40.604444 
Q 122.778652 40.604444 123.382499 40.559113 
Q 123.987763 40.514297 124.523571 40.425695 
L 124.523571 39.9286 
Q 123.970753 40.042443 123.423606 40.098591 
Q 122.876458 40.155255 122.326476 40.155255 
Q 121.308725 40.155255 120.757325 39.948175 
Q 120.205925 39.74161 120.205925 39.356812 
Q 120.205925 38.97562 120.73748 38.76751 
Q 121.269035 38.559915 122.247097 38.559915 
Q 122.513583 38.559915 122.741798 38.571763 
Q 122.970012 38.584126 123.15145 38.609882 
L 123.15145 39.076585 
L 122.109601 39.076585 
L 122.109601 39.49229 
L 124.767377 39.49229 
L 124.767377 38.336351 
z
" clip-path="url(#pedc28c96f7)" style="fill: #01204e"/>
   </g>
   <g id="patch_83">
    <path d="M 118.442579 47.512453 
L 124.767377 47.512453 
L 124.767377 46.165199 
L 122.491921 46.165199 
L 122.491921 40.604444 
L 120.722448 40.604444 
L 120.722448 46.165199 
L 118.442579 46.165199 
L 118.442579 47.512453 
z
" clip-path="url(#pedc28c96f7)" style="fill: #028391"/>
   </g>
   <g id="patch_84">
    <path d="M 131.42506 40.634558 
Q 130.896001 40.294719 130.323917 40.122823 
Q 129.751833 39.948952 129.128755 39.948952 
Q 127.270676 39.948952 126.185469 41.237181 
Q 125.100262 42.52541 125.100262 44.72844 
Q 125.100262 46.939373 126.185469 48.225626 
Q 127.270676 49.513855 129.128755 49.513855 
Q 129.751833 49.513855 130.323917 49.339984 
Q 130.896001 49.168088 131.42506 48.828249 
L 131.42506 46.92159 
Q 130.891221 47.372075 130.373317 47.581511 
Q 129.855413 47.790948 129.283329 47.790948 
Q 128.257083 47.790948 127.669063 46.974937 
Q 127.082637 46.160903 127.082637 44.72844 
Q 127.082637 43.301904 127.669063 42.485894 
Q 128.257083 41.671859 129.283329 41.671859 
Q 129.855413 41.671859 130.373317 41.881295 
Q 130.891221 42.092707 131.42506 42.543192 
L 131.42506 40.634558 
z
" clip-path="url(#pedc28c96f7)" style="fill: #f6dcac"/>
   </g>
   <g id="patch_85">
    <path d="M 125.100262 39.948952 
L 131.42506 39.948952 
L 131.42506 39.590446 
L 129.149603 39.590446 
L 129.149603 38.110726 
L 127.380131 38.110726 
L 127.380131 39.590446 
L 125.100262 39.590446 
L 125.100262 39.948952 
z
" clip-path="url(#pedc28c96f7)" style="fill: #028391"/>
   </g>
   <g id="patch_86">
    <path d="M 136.139137 46.232972 
L 133.706721 46.232972 
L 133.322656 45.087092 
L 131.757944 45.087092 
L 133.992508 51.377299 
L 135.848178 51.377299 
L 138.082742 45.087092 
L 136.519323 45.087092 
L 136.139137 46.232972 
z
M 134.094667 47.400422 
L 135.747313 47.400422 
L 134.922283 49.902484 
L 134.094667 47.400422 
z
" clip-path="url(#pedc28c96f7)" style="fill: #fead70"/>
   </g>
   <g id="patch_87">
    <path d="M 138.082742 40.504449 
Q 137.553684 40.329057 136.981599 40.24034 
Q 136.409515 40.150605 135.786437 40.150605 
Q 133.928358 40.150605 132.843151 40.815465 
Q 131.757944 41.480326 131.757944 42.617319 
Q 131.757944 43.758391 132.843151 44.422232 
Q 133.928358 45.087092 135.786437 45.087092 
Q 136.409515 45.087092 136.981599 44.997356 
Q 137.553684 44.90864 138.082742 44.733248 
L 138.082742 43.749213 
Q 137.548903 43.98171 137.030999 44.089801 
Q 136.513096 44.197892 135.941012 44.197892 
Q 134.914766 44.197892 134.326746 43.776746 
Q 133.74032 43.356619 133.74032 42.617319 
Q 133.74032 41.881078 134.326746 41.459931 
Q 134.914766 41.039805 135.941012 41.039805 
Q 136.513096 41.039805 137.030999 41.147895 
Q 137.548903 41.257006 138.082742 41.489503 
L 138.082742 40.504449 
z
" clip-path="url(#pedc28c96f7)" style="fill: #f6dcac"/>
   </g>
   <g id="patch_88">
    <path d="M 138.082742 38.295289 
Q 137.444876 38.203008 136.758815 38.156656 
Q 136.072755 38.110726 135.341335 38.110726 
Q 133.688552 38.110726 132.723248 38.385463 
Q 131.757944 38.6602 131.757944 39.130033 
Q 131.757944 39.605345 132.740258 39.877975 
Q 133.723989 40.150605 135.434889 40.150605 
Q 136.094017 40.150605 136.697864 40.113524 
Q 137.303128 40.076864 137.838936 40.004387 
L 137.838936 39.59776 
Q 137.286118 39.690884 136.738971 39.736814 
Q 136.191823 39.783165 135.641841 39.783165 
Q 134.62409 39.783165 134.07269 39.613772 
Q 133.52129 39.444801 133.52129 39.130033 
Q 133.52129 38.818216 134.052845 38.64798 
Q 134.5844 38.478166 135.562462 38.478166 
Q 135.828948 38.478166 136.057162 38.487857 
Q 136.285377 38.49797 136.466814 38.519039 
L 136.466814 38.900805 
L 135.424966 38.900805 
L 135.424966 39.240855 
L 138.082742 39.240855 
L 138.082742 38.295289 
z
" clip-path="url(#pedc28c96f7)" style="fill: #01204e"/>
   </g>
   <g id="patch_89">
    <path d="M 142.79682 38.148484 
L 140.364404 38.148484 
L 139.980338 38.110726 
L 138.415626 38.110726 
L 140.65019 38.317995 
L 142.505861 38.317995 
L 144.740425 38.110726 
L 143.177006 38.110726 
L 142.79682 38.148484 
z
M 140.752349 38.186953 
L 142.404995 38.186953 
L 141.579965 38.269398 
L 140.752349 38.186953 
z
" clip-path="url(#pedc28c96f7)" style="fill: #fead70"/>
   </g>
   <g id="patch_90">
    <path d="M 144.740425 39.761489 
Q 144.211366 39.045982 143.639282 38.684068 
Q 143.067198 38.317995 142.44412 38.317995 
Q 140.586041 38.317995 139.500834 41.030266 
Q 138.415626 43.742537 138.415626 48.380853 
Q 138.415626 53.035809 139.500834 55.74392 
Q 140.586041 58.456191 142.44412 58.456191 
Q 143.067198 58.456191 143.639282 58.090118 
Q 144.211366 57.728204 144.740425 57.012697 
L 144.740425 52.99837 
Q 144.206586 53.946833 143.688682 54.387785 
Q 143.170778 54.828737 142.598694 54.828737 
Q 141.572448 54.828737 140.984428 53.110688 
Q 140.398002 51.396799 140.398002 48.380853 
Q 140.398002 45.377387 140.984428 43.659339 
Q 141.572448 41.945449 142.598694 41.945449 
Q 143.170778 41.945449 143.688682 42.386402 
Q 144.206586 42.831513 144.740425 43.779976 
L 144.740425 39.761489 
z
" clip-path="url(#pedc28c96f7)" style="fill: #f6dcac"/>
   </g>
   <g id="patch_91">
    <path d="M 149.454502 51.513633 
L 147.022086 51.513633 
L 146.638021 48.696348 
L 145.073309 48.696348 
L 147.307873 64.161586 
L 149.163543 64.161586 
L 151.398107 48.696348 
L 149.834688 48.696348 
L 149.454502 51.513633 
z
M 147.410031 54.38395 
L 149.062678 54.38395 
L 148.237648 60.535574 
L 147.410031 54.38395 
z
" clip-path="url(#pedc28c96f7)" style="fill: #fead70"/>
   </g>
   <g id="patch_92">
    <path d="M 145.073309 48.696348 
L 151.398107 48.696348 
L 151.398107 46.631857 
L 149.122651 46.631857 
L 149.122651 38.110726 
L 147.353178 38.110726 
L 147.353178 46.631857 
L 145.073309 46.631857 
L 145.073309 48.696348 
z
" clip-path="url(#pedc28c96f7)" style="fill: #028391"/>
   </g>
   <g id="patch_93">
    <path d="M 156.112184 48.137208 
L 153.679769 48.137208 
L 153.295703 46.469048 
L 151.730991 46.469048 
L 153.965555 55.626265 
L 155.821226 55.626265 
L 158.055789 46.469048 
L 156.492371 46.469048 
L 156.112184 48.137208 
z
M 154.067714 49.836768 
L 155.72036 49.836768 
L 154.89533 53.479245 
L 154.067714 49.836768 
z
" clip-path="url(#pedc28c96f7)" style="fill: #fead70"/>
   </g>
   <g id="patch_94">
    <path d="M 151.730991 46.469048 
L 158.055789 46.469048 
L 158.055789 44.838942 
L 155.780333 44.838942 
L 155.780333 38.110726 
L 154.01086 38.110726 
L 154.01086 44.838942 
L 151.730991 44.838942 
L 151.730991 46.469048 
z
" clip-path="url(#pedc28c96f7)" style="fill: #028391"/>
   </g>
   <g id="patch_95">
    <path d="M 162.769867 50.078876 
L 160.337451 50.078876 
L 159.953385 48.115982 
L 158.388674 48.115982 
L 160.623237 58.891116 
L 162.478908 58.891116 
L 164.713472 48.115982 
L 163.150053 48.115982 
L 162.769867 50.078876 
z
M 160.725396 52.078719 
L 162.378042 52.078719 
L 161.553012 56.364756 
L 160.725396 52.078719 
z
" clip-path="url(#pedc28c96f7)" style="fill: #fead70"/>
   </g>
   <g id="patch_96">
    <path d="M 164.713472 38.408754 
Q 164.075606 38.25974 163.389545 38.184893 
Q 162.703484 38.110726 161.972064 38.110726 
Q 160.319282 38.110726 159.353978 38.554365 
Q 158.388674 38.998004 158.388674 39.756681 
Q 158.388674 40.524203 159.370988 40.96444 
Q 160.354719 41.404676 162.065618 41.404676 
Q 162.724747 41.404676 163.328593 41.344799 
Q 163.933858 41.285601 164.469665 41.168568 
L 164.469665 40.511955 
Q 163.916848 40.66233 163.3697 40.736496 
Q 162.822553 40.811343 162.27257 40.811343 
Q 161.254819 40.811343 160.703419 40.537812 
Q 160.152019 40.26496 160.152019 39.756681 
Q 160.152019 39.253164 160.683575 38.978272 
Q 161.21513 38.704059 162.193191 38.704059 
Q 162.459678 38.704059 162.687892 38.719709 
Q 162.916106 38.736039 163.097544 38.770061 
L 163.097544 39.386528 
L 162.055696 39.386528 
L 162.055696 39.935633 
L 164.713472 39.935633 
L 164.713472 38.408754 
z
" clip-path="url(#pedc28c96f7)" style="fill: #01204e"/>
   </g>
   <g id="patch_97">
    <path d="M 158.388674 48.115982 
L 164.713472 48.115982 
L 164.713472 46.80709 
L 162.438015 46.80709 
L 162.438015 41.404676 
L 160.668543 41.404676 
L 160.668543 46.80709 
L 158.388674 46.80709 
L 158.388674 48.115982 
z
" clip-path="url(#pedc28c96f7)" style="fill: #028391"/>
   </g>
   <g id="patch_98">
    <path d="M 171.371154 38.389844 
Q 170.842096 38.251492 170.270011 38.181511 
Q 169.697927 38.110726 169.074849 38.110726 
Q 167.21677 38.110726 166.131563 38.635179 
Q 165.046356 39.159631 165.046356 40.056508 
Q 165.046356 40.956603 166.131563 41.480251 
Q 167.21677 42.004703 169.074849 42.004703 
Q 169.697927 42.004703 170.270011 41.933918 
Q 170.842096 41.863938 171.371154 41.725585 
L 171.371154 40.949364 
Q 170.837315 41.132761 170.319412 41.218025 
Q 169.801508 41.303289 169.229424 41.303289 
Q 168.203178 41.303289 167.615158 40.971082 
Q 167.028732 40.63968 167.028732 40.056508 
Q 167.028732 39.47575 167.615158 39.143543 
Q 168.203178 38.812141 169.229424 38.812141 
Q 169.801508 38.812141 170.319412 38.897405 
Q 170.837315 38.983473 171.371154 39.16687 
L 171.371154 38.389844 
z
" clip-path="url(#pedc28c96f7)" style="fill: #f6dcac"/>
   </g>
   <g id="patch_99">
    <path d="M 165.046356 54.642269 
L 171.371154 54.642269 
L 171.371154 52.177592 
L 169.095698 52.177592 
L 169.095698 42.004703 
L 167.326225 42.004703 
L 167.326225 52.177592 
L 165.046356 52.177592 
L 165.046356 54.642269 
z
" clip-path="url(#pedc28c96f7)" style="fill: #028391"/>
   </g>
   <g id="patch_100">
    <path d="M 178.028837 38.253777 
Q 177.499778 38.18287 176.927694 38.147004 
Q 176.35561 38.110726 175.732532 38.110726 
Q 173.874453 38.110726 172.789246 38.379513 
Q 171.704038 38.648299 171.704038 39.107957 
Q 171.704038 39.569264 172.789246 39.837638 
Q 173.874453 40.106425 175.732532 40.106425 
Q 176.35561 40.106425 176.927694 40.070147 
Q 177.499778 40.034281 178.028837 39.963374 
L 178.028837 39.565554 
Q 177.494998 39.659547 176.977094 39.703245 
Q 176.45919 39.746943 175.887106 39.746943 
Q 174.86086 39.746943 174.27284 39.576684 
Q 173.686414 39.406838 173.686414 39.107957 
Q 173.686414 38.810313 174.27284 38.640054 
Q 174.86086 38.470208 175.887106 38.470208 
Q 176.45919 38.470208 176.977094 38.513906 
Q 177.494998 38.558017 178.028837 38.65201 
L 178.028837 38.253777 
z
" clip-path="url(#pedc28c96f7)" style="fill: #f6dcac"/>
   </g>
   <g id="patch_101">
    <path d="M 171.704038 50.920017 
L 178.028837 50.920017 
L 178.028837 48.811065 
L 175.75338 48.811065 
L 175.75338 40.106425 
L 173.983908 40.106425 
L 173.983908 48.811065 
L 171.704038 48.811065 
L 171.704038 50.920017 
z
" clip-path="url(#pedc28c96f7)" style="fill: #028391"/>
   </g>
   <g id="patch_102">
    <path d="M 184.686519 38.376302 
Q 184.048653 38.243514 183.362592 38.176817 
Q 182.676532 38.110726 181.945112 38.110726 
Q 180.292329 38.110726 179.327025 38.506059 
Q 178.361721 38.901391 178.361721 39.577458 
Q 178.361721 40.261407 179.344035 40.653707 
Q 180.327766 41.046008 182.038665 41.046008 
Q 182.697794 41.046008 183.301641 40.99265 
Q 183.906905 40.939899 184.442712 40.835609 
L 184.442712 40.250493 
Q 183.889895 40.384493 183.342747 40.450584 
Q 182.7956 40.517281 182.245618 40.517281 
Q 181.227866 40.517281 180.676467 40.273533 
Q 180.125067 40.030392 180.125067 39.577458 
Q 180.125067 39.128768 180.656622 38.883807 
Q 181.188177 38.639453 182.166239 38.639453 
Q 182.432725 38.639453 182.660939 38.653399 
Q 182.889154 38.667951 183.070591 38.698268 
L 183.070591 39.24761 
L 182.028743 39.24761 
L 182.028743 39.736924 
L 184.686519 39.736924 
L 184.686519 38.376302 
z
" clip-path="url(#pedc28c96f7)" style="fill: #01204e"/>
   </g>
   <g id="patch_103">
    <path d="M 178.361721 51.361116 
L 184.686519 51.361116 
L 184.686519 49.349383 
L 182.411063 49.349383 
L 182.411063 41.046008 
L 180.64159 41.046008 
L 180.64159 49.349383 
L 178.361721 49.349383 
L 178.361721 51.361116 
z
" clip-path="url(#pedc28c96f7)" style="fill: #028391"/>
   </g>
   <g id="patch_104">
    <path d="M 191.344201 46.526481 
Q 190.815143 46.125314 190.243059 45.922398 
Q 189.670974 45.717149 189.047897 45.717149 
Q 187.189818 45.717149 186.10461 47.237853 
Q 185.019403 48.758557 185.019403 51.359146 
Q 185.019403 53.969065 186.10461 55.487436 
Q 187.189818 57.00814 189.047897 57.00814 
Q 189.670974 57.00814 190.243059 56.802892 
Q 190.815143 56.599976 191.344201 56.198809 
L 191.344201 53.948074 
Q 190.810362 54.479854 190.292459 54.727085 
Q 189.774555 54.974316 189.202471 54.974316 
Q 188.176225 54.974316 187.588205 54.011048 
Q 187.001779 53.050113 187.001779 51.359146 
Q 187.001779 49.675177 187.588205 48.711909 
Q 188.176225 47.750974 189.202471 47.750974 
Q 189.774555 47.750974 190.292459 47.998205 
Q 190.810362 48.247768 191.344201 48.779548 
L 191.344201 46.526481 
z
" clip-path="url(#pedc28c96f7)" style="fill: #f6dcac"/>
   </g>
   <g id="patch_105">
    <path d="M 191.344201 41.716785 
Q 190.706335 41.517811 190.020275 41.41787 
Q 189.334214 41.318838 188.602794 41.318838 
Q 186.950012 41.318838 185.984707 41.911215 
Q 185.019403 42.503593 185.019403 43.516631 
Q 185.019403 44.54148 186.001717 45.129315 
Q 186.985449 45.717149 188.696348 45.717149 
Q 189.355476 45.717149 189.959323 45.637197 
Q 190.564587 45.558152 191.100395 45.401881 
L 191.100395 44.525126 
Q 190.547577 44.725917 190.00043 44.824949 
Q 189.453282 44.92489 188.9033 44.92489 
Q 187.885549 44.92489 187.334149 44.559651 
Q 186.782749 44.195321 186.782749 43.516631 
Q 186.782749 42.844301 187.314304 42.477245 
Q 187.845859 42.111097 188.823921 42.111097 
Q 189.090407 42.111097 189.318622 42.131994 
Q 189.546836 42.153799 189.728274 42.199227 
L 189.728274 43.022377 
L 188.686425 43.022377 
L 188.686425 43.755581 
L 191.344201 43.755581 
L 191.344201 41.716785 
z
" clip-path="url(#pedc28c96f7)" style="fill: #01204e"/>
   </g>
   <g id="patch_106">
    <path d="M 185.019403 41.318838 
L 191.344201 41.318838 
L 191.344201 40.693167 
L 189.068745 40.693167 
L 189.068745 38.110726 
L 187.299272 38.110726 
L 187.299272 40.693167 
L 185.019403 40.693167 
L 185.019403 41.318838 
z
" clip-path="url(#pedc28c96f7)" style="fill: #028391"/>
   </g>
   <g id="patch_107">
    <path d="M 198.001884 43.344967 
Q 197.472825 43.013627 196.900741 42.84603 
Q 196.328657 42.676507 195.705579 42.676507 
Q 193.8475 42.676507 192.762293 43.932519 
Q 191.677086 45.188531 191.677086 47.336467 
Q 191.677086 49.492108 192.762293 50.746194 
Q 193.8475 52.002206 195.705579 52.002206 
Q 196.328657 52.002206 196.900741 51.832683 
Q 197.472825 51.665086 198.001884 51.333745 
L 198.001884 49.47477 
Q 197.468045 49.913989 196.950141 50.118187 
Q 196.432238 50.322386 195.860153 50.322386 
Q 194.833907 50.322386 194.245887 49.526783 
Q 193.659461 48.733106 193.659461 47.336467 
Q 193.659461 45.945606 194.245887 45.150003 
Q 194.833907 44.356327 195.860153 44.356327 
Q 196.432238 44.356327 196.950141 44.560525 
Q 197.468045 44.76665 198.001884 45.205869 
L 198.001884 43.344967 
z
" clip-path="url(#pedc28c96f7)" style="fill: #f6dcac"/>
   </g>
   <g id="patch_108">
    <path d="M 191.677086 42.676507 
L 198.001884 42.676507 
L 198.001884 41.786052 
L 195.726427 41.786052 
L 195.726427 38.110726 
L 193.956955 38.110726 
L 193.956955 41.786052 
L 191.677086 41.786052 
L 191.677086 42.676507 
z
" clip-path="url(#pedc28c96f7)" style="fill: #028391"/>
   </g>
   <g id="patch_109">
    <path d="M 204.659566 38.484757 
Q 204.130508 38.299358 203.558423 38.205581 
Q 202.986339 38.110726 202.363261 38.110726 
Q 200.505183 38.110726 199.419975 38.813515 
Q 198.334768 39.516304 198.334768 40.718158 
Q 198.334768 41.924325 199.419975 42.626035 
Q 200.505183 43.328824 202.363261 43.328824 
Q 202.986339 43.328824 203.558423 43.233969 
Q 204.130508 43.140192 204.659566 42.954794 
L 204.659566 41.914624 
Q 204.125727 42.160384 203.607824 42.274641 
Q 203.08992 42.388898 202.517836 42.388898 
Q 201.49159 42.388898 200.90357 41.943727 
Q 200.317144 41.499633 200.317144 40.718158 
Q 200.317144 39.939917 200.90357 39.494746 
Q 201.49159 39.050652 202.517836 39.050652 
Q 203.08992 39.050652 203.607824 39.164909 
Q 204.125727 39.280244 204.659566 39.526005 
L 204.659566 38.484757 
z
" clip-path="url(#pedc28c96f7)" style="fill: #f6dcac"/>
   </g>
   <g id="patch_110">
    <path d="M 198.334768 53.934208 
L 204.659566 53.934208 
L 204.659566 51.865863 
L 202.38411 51.865863 
L 202.38411 43.328824 
L 200.614637 43.328824 
L 200.614637 51.865863 
L 198.334768 51.865863 
L 198.334768 53.934208 
z
" clip-path="url(#pedc28c96f7)" style="fill: #028391"/>
   </g>
   <g id="patch_111">
    <path d="M 211.317249 38.649916 
Q 210.78819 38.572401 210.216106 38.533192 
Q 209.644022 38.493533 209.020944 38.493533 
Q 207.162865 38.493533 206.077658 38.78737 
Q 204.99245 39.081207 204.99245 39.583704 
Q 204.99245 40.088004 206.077658 40.38139 
Q 207.162865 40.675227 209.020944 40.675227 
Q 209.644022 40.675227 210.216106 40.635568 
Q 210.78819 40.596359 211.317249 40.518844 
L 211.317249 40.083948 
Q 210.78341 40.1867 210.265506 40.234471 
Q 209.747602 40.282242 209.175518 40.282242 
Q 208.149272 40.282242 207.561252 40.096116 
Q 206.974826 39.91044 206.974826 39.583704 
Q 206.974826 39.25832 207.561252 39.072194 
Q 208.149272 38.886517 209.175518 38.886517 
Q 209.747602 38.886517 210.265506 38.934289 
Q 210.78341 38.98251 211.317249 39.085263 
L 211.317249 38.649916 
z
" clip-path="url(#pedc28c96f7)" style="fill: #f6dcac"/>
   </g>
   <g id="patch_112">
    <path d="M 211.317249 38.145362 
Q 210.679382 38.128044 209.993322 38.119346 
Q 209.307261 38.110726 208.575841 38.110726 
Q 206.923059 38.110726 205.957755 38.162284 
Q 204.99245 38.213842 204.99245 38.302011 
Q 204.99245 38.391209 205.974764 38.442371 
Q 206.958496 38.493533 208.669395 38.493533 
Q 209.328523 38.493533 209.93237 38.486575 
Q 210.537634 38.479695 211.073442 38.466094 
L 211.073442 38.389786 
Q 210.520625 38.407261 209.973477 38.415881 
Q 209.42633 38.424579 208.876347 38.424579 
Q 207.858596 38.424579 207.307196 38.39279 
Q 206.755796 38.361081 206.755796 38.302011 
Q 206.755796 38.243495 207.287351 38.211548 
Q 207.818907 38.179681 208.796968 38.179681 
Q 209.063455 38.179681 209.291669 38.181499 
Q 209.519883 38.183397 209.701321 38.187351 
L 209.701321 38.258994 
L 208.659473 38.258994 
L 208.659473 38.322808 
L 211.317249 38.322808 
L 211.317249 38.145362 
z
" clip-path="url(#pedc28c96f7)" style="fill: #01204e"/>
   </g>
   <g id="patch_113">
    <path d="M 204.99245 56.966854 
L 211.317249 56.966854 
L 211.317249 53.789533 
L 209.041792 53.789533 
L 209.041792 40.675227 
L 207.27232 40.675227 
L 207.27232 53.789533 
L 204.99245 53.789533 
L 204.99245 56.966854 
z
" clip-path="url(#pedc28c96f7)" style="fill: #028391"/>
   </g>
   <g id="patch_114">
    <path d="M 217.974931 38.245619 
Q 217.445873 38.178756 216.873788 38.144936 
Q 216.301704 38.110726 215.678626 38.110726 
Q 213.820547 38.110726 212.73534 38.364185 
Q 211.650133 38.617644 211.650133 39.05109 
Q 211.650133 39.486091 212.73534 39.739161 
Q 213.820547 39.99262 215.678626 39.99262 
Q 216.301704 39.99262 216.873788 39.958411 
Q 217.445873 39.92459 217.974931 39.857727 
L 217.974931 39.482592 
Q 217.441092 39.571225 216.923188 39.612431 
Q 216.405285 39.653638 215.8332 39.653638 
Q 214.806954 39.653638 214.218935 39.493088 
Q 213.632508 39.332927 213.632508 39.05109 
Q 213.632508 38.770419 214.218935 38.609869 
Q 214.806954 38.449708 215.8332 38.449708 
Q 216.405285 38.449708 216.923188 38.490915 
Q 217.441092 38.53251 217.974931 38.621143 
L 217.974931 38.245619 
z
" clip-path="url(#pedc28c96f7)" style="fill: #f6dcac"/>
   </g>
   <g id="patch_115">
    <path d="M 217.974931 45.965146 
Q 217.337065 45.606963 216.651004 45.427054 
Q 215.964944 45.24878 215.233524 45.24878 
Q 213.580741 45.24878 212.615437 46.315151 
Q 211.650133 47.381521 211.650133 49.205146 
Q 211.650133 51.050033 212.632447 52.108226 
Q 213.616178 53.166419 215.327077 53.166419 
Q 215.986206 53.166419 216.590053 53.022491 
Q 217.195317 52.8802 217.731124 52.598887 
L 217.731124 51.020593 
Q 217.178307 51.382047 216.631159 51.560321 
Q 216.084012 51.74023 215.53403 51.74023 
Q 214.516278 51.74023 213.964879 51.082744 
Q 213.413479 50.426893 213.413479 49.205146 
Q 213.413479 47.994848 213.945034 47.334091 
Q 214.476589 46.674969 215.454651 46.674969 
Q 215.721137 46.674969 215.949351 46.712586 
Q 216.177566 46.751839 216.359003 46.833616 
L 216.359003 48.315414 
L 215.317155 48.315414 
L 215.317155 49.635293 
L 217.974931 49.635293 
L 217.974931 45.965146 
z
" clip-path="url(#pedc28c96f7)" style="fill: #01204e"/>
   </g>
   <g id="patch_116">
    <path d="M 211.650133 45.24878 
L 217.974931 45.24878 
L 217.974931 44.223682 
L 215.699475 44.223682 
L 215.699475 39.99262 
L 213.930002 39.99262 
L 213.930002 44.223682 
L 211.650133 44.223682 
L 211.650133 45.24878 
z
" clip-path="url(#pedc28c96f7)" style="fill: #028391"/>
   </g>
   <g id="patch_117">
    <path d="M 224.632613 38.240531 
Q 224.103555 38.17619 223.531471 38.143645 
Q 222.959386 38.110726 222.336309 38.110726 
Q 220.47823 38.110726 219.393022 38.354625 
Q 218.307815 38.598523 218.307815 39.01562 
Q 218.307815 39.434212 219.393022 39.677736 
Q 220.47823 39.921635 222.336309 39.921635 
Q 222.959386 39.921635 223.531471 39.888716 
Q 224.103555 39.856171 224.632613 39.79183 
L 224.632613 39.430845 
Q 224.098774 39.516135 223.580871 39.555787 
Q 223.062967 39.595439 222.490883 39.595439 
Q 221.464637 39.595439 220.876617 39.440946 
Q 220.290191 39.286826 220.290191 39.01562 
Q 220.290191 38.745536 220.876617 38.591042 
Q 221.464637 38.436922 222.490883 38.436922 
Q 223.062967 38.436922 223.580871 38.476574 
Q 224.098774 38.5166 224.632613 38.60189 
L 224.632613 38.240531 
z
" clip-path="url(#pedc28c96f7)" style="fill: #f6dcac"/>
   </g>
   <g id="patch_118">
    <path d="M 224.632613 40.091518 
Q 223.994747 40.006576 223.308687 39.963912 
Q 222.622626 39.921635 221.891206 39.921635 
Q 220.238424 39.921635 219.273119 40.17452 
Q 218.307815 40.427405 218.307815 40.859869 
Q 218.307815 41.297375 219.290129 41.548321 
Q 220.273861 41.799266 221.98476 41.799266 
Q 222.643888 41.799266 223.247735 41.765134 
Q 223.852999 41.731391 224.388807 41.664679 
L 224.388807 41.290394 
Q 223.835989 41.376111 223.288842 41.418387 
Q 222.741694 41.461052 222.191712 41.461052 
Q 221.173961 41.461052 220.622561 41.305132 
Q 220.071161 41.1496 220.071161 40.859869 
Q 220.071161 40.572852 220.602716 40.416157 
Q 221.134271 40.259849 222.112333 40.259849 
Q 222.378819 40.259849 222.607034 40.26877 
Q 222.835248 40.278078 223.016686 40.297471 
L 223.016686 40.648873 
L 221.974837 40.648873 
L 221.974837 40.961876 
L 224.632613 40.961876 
L 224.632613 40.091518 
z
" clip-path="url(#pedc28c96f7)" style="fill: #01204e"/>
   </g>
   <g id="patch_119">
    <path d="M 218.307815 48.060709 
L 224.632613 48.060709 
L 224.632613 46.839553 
L 222.357157 46.839553 
L 222.357157 41.799266 
L 220.587684 41.799266 
L 220.587684 46.839553 
L 218.307815 46.839553 
L 218.307815 48.060709 
z
" clip-path="url(#pedc28c96f7)" style="fill: #028391"/>
   </g>
   <g id="patch_120">
    <path d="M 231.290296 41.274332 
Q 230.65243 41.0608 229.966369 40.953546 
Q 229.280308 40.847267 228.548888 40.847267 
Q 226.896106 40.847267 225.930802 41.48299 
Q 224.965498 42.118713 224.965498 43.205877 
Q 224.965498 44.305717 225.947812 44.936565 
Q 226.931543 45.567413 228.642442 45.567413 
Q 229.301571 45.567413 229.905417 45.48161 
Q 230.510682 45.396782 231.046489 45.229076 
L 231.046489 44.288167 
Q 230.493672 44.503649 229.946524 44.609928 
Q 229.399377 44.717182 228.849394 44.717182 
Q 227.831643 44.717182 227.280243 44.325218 
Q 226.728843 43.934229 226.728843 43.205877 
Q 226.728843 42.484351 227.260399 42.090437 
Q 227.791954 41.697498 228.770015 41.697498 
Q 229.036502 41.697498 229.264716 41.719924 
Q 229.492931 41.743324 229.674368 41.792076 
L 229.674368 42.675458 
L 228.63252 42.675458 
L 228.63252 43.462312 
L 231.290296 43.462312 
L 231.290296 41.274332 
z
" clip-path="url(#pedc28c96f7)" style="fill: #01204e"/>
   </g>
   <g id="patch_121">
    <path d="M 224.965498 40.847267 
L 231.290296 40.847267 
L 231.290296 40.313565 
L 229.014839 40.313565 
L 229.014839 38.110726 
L 227.245367 38.110726 
L 227.245367 40.313565 
L 224.965498 40.313565 
L 224.965498 40.847267 
z
" clip-path="url(#pedc28c96f7)" style="fill: #028391"/>
   </g>
   <g id="patch_122">
    <path d="M 237.947978 43.95483 
Q 237.41892 43.751325 236.846836 43.648389 
Q 236.274751 43.54427 235.651673 43.54427 
Q 233.793595 43.54427 232.708387 44.315697 
Q 231.62318 45.087125 231.62318 46.406361 
Q 231.62318 47.730329 232.708387 48.500574 
Q 233.793595 49.272001 235.651673 49.272001 
Q 236.274751 49.272001 236.846836 49.167882 
Q 237.41892 49.064946 237.947978 48.861441 
L 237.947978 47.719681 
Q 237.414139 47.989444 236.896236 48.11486 
Q 236.378332 48.240276 235.806248 48.240276 
Q 234.780002 48.240276 234.191982 47.751626 
Q 233.605556 47.26416 233.605556 46.406361 
Q 233.605556 45.552111 234.191982 45.063462 
Q 234.780002 44.575995 235.806248 44.575995 
Q 236.378332 44.575995 236.896236 44.701411 
Q 237.414139 44.828011 237.947978 45.097774 
L 237.947978 43.95483 
z
" clip-path="url(#pedc28c96f7)" style="fill: #f6dcac"/>
   </g>
   <g id="patch_123">
    <path d="M 237.947978 38.602338 
Q 237.310112 38.356532 236.624051 38.233068 
Q 235.937991 38.110726 235.206571 38.110726 
Q 233.553789 38.110726 232.588484 38.842532 
Q 231.62318 39.574337 231.62318 40.825815 
Q 231.62318 42.091883 232.605494 42.818076 
Q 233.589226 43.54427 235.300125 43.54427 
Q 235.959253 43.54427 236.5631 43.445499 
Q 237.168364 43.34785 237.704172 43.154797 
L 237.704172 42.07168 
Q 237.151354 42.31973 236.604207 42.442072 
Q 236.057059 42.565536 235.507077 42.565536 
Q 234.489326 42.565536 233.937926 42.114331 
Q 233.386526 41.664248 233.386526 40.825815 
Q 233.386526 39.995238 233.918081 39.541788 
Q 234.449636 39.08946 235.427698 39.08946 
Q 235.694184 39.08946 235.922399 39.115275 
Q 236.150613 39.142213 236.33205 39.198333 
L 236.33205 40.215228 
L 235.290202 40.215228 
L 235.290202 41.121006 
L 237.947978 41.121006 
L 237.947978 38.602338 
z
" clip-path="url(#pedc28c96f7)" style="fill: #01204e"/>
   </g>
   <g id="patch_124">
    <path d="M 244.605661 38.681492 
Q 244.076602 38.398576 243.504518 38.255474 
Q 242.932434 38.110726 242.309356 38.110726 
Q 240.451277 38.110726 239.36607 39.183173 
Q 238.280862 40.25562 238.280862 42.089635 
Q 238.280862 43.93023 239.36607 45.001031 
Q 240.451277 46.073478 242.309356 46.073478 
Q 242.932434 46.073478 243.504518 45.92873 
Q 244.076602 45.785628 244.605661 45.502713 
L 244.605661 43.915426 
Q 244.071822 44.290453 243.553918 44.464808 
Q 243.036014 44.639163 242.46393 44.639163 
Q 241.437684 44.639163 240.849664 43.959837 
Q 240.263238 43.282156 240.263238 42.089635 
Q 240.263238 40.902048 240.849664 40.222722 
Q 241.437684 39.545042 242.46393 39.545042 
Q 243.036014 39.545042 243.553918 39.719396 
Q 244.071822 39.895396 244.605661 40.270423 
L 244.605661 38.681492 
z
" clip-path="url(#pedc28c96f7)" style="fill: #f6dcac"/>
   </g>
   <g id="patch_125">
    <path d="M 251.263343 39.833028 
Q 250.734285 39.772889 250.1622 39.742469 
Q 249.590116 39.7117 248.967038 39.7117 
Q 247.108959 39.7117 246.023752 39.939671 
Q 244.938545 40.167643 244.938545 40.557502 
Q 244.938545 40.94876 246.023752 41.176381 
Q 247.108959 41.404353 248.967038 41.404353 
Q 249.590116 41.404353 250.1622 41.373584 
Q 250.734285 41.343164 251.263343 41.283025 
L 251.263343 40.945613 
Q 250.729504 41.025333 250.2116 41.062396 
Q 249.693697 41.099459 249.121612 41.099459 
Q 248.095367 41.099459 247.507347 40.955053 
Q 246.92092 40.810998 246.92092 40.557502 
Q 246.92092 40.305055 247.507347 40.16065 
Q 248.095367 40.016594 249.121612 40.016594 
Q 249.693697 40.016594 250.2116 40.053657 
Q 250.729504 40.09107 251.263343 40.17079 
L 251.263343 39.833028 
z
" clip-path="url(#pedc28c96f7)" style="fill: #f6dcac"/>
   </g>
   <g id="patch_126">
    <path d="M 251.263343 41.62834 
Q 250.625477 41.516347 249.939416 41.460094 
Q 249.253356 41.404353 248.521936 41.404353 
Q 246.869153 41.404353 245.903849 41.737777 
Q 244.938545 42.071202 244.938545 42.641398 
Q 244.938545 43.218243 245.920859 43.549111 
Q 246.90459 43.879978 248.615489 43.879978 
Q 249.274618 43.879978 249.878465 43.834976 
Q 250.483729 43.790485 251.019536 43.702527 
L 251.019536 43.209038 
Q 250.466719 43.322055 249.919572 43.377796 
Q 249.372424 43.434048 248.822442 43.434048 
Q 247.80469 43.434048 247.253291 43.228471 
Q 246.701891 43.023405 246.701891 42.641398 
Q 246.701891 42.262972 247.233446 42.056372 
Q 247.765001 41.850283 248.743063 41.850283 
Q 249.009549 41.850283 249.237763 41.862044 
Q 249.465978 41.874318 249.647415 41.899887 
L 249.647415 42.363204 
L 248.605567 42.363204 
L 248.605567 42.775893 
L 251.263343 42.775893 
L 251.263343 41.62834 
z
" clip-path="url(#pedc28c96f7)" style="fill: #01204e"/>
   </g>
   <g id="patch_127">
    <path d="M 244.938545 39.7117 
L 251.263343 39.7117 
L 251.263343 39.399466 
L 248.987887 39.399466 
L 248.987887 38.110726 
L 247.218414 38.110726 
L 247.218414 39.399466 
L 244.938545 39.399466 
L 244.938545 39.7117 
z
" clip-path="url(#pedc28c96f7)" style="fill: #028391"/>
   </g>
   <g id="patch_128">
    <path d="M 257.921025 38.174581 
Q 257.391967 38.14293 256.819883 38.12692 
Q 256.247798 38.110726 255.624721 38.110726 
Q 253.766642 38.110726 252.681434 38.230708 
Q 251.596227 38.350689 251.596227 38.555871 
Q 251.596227 38.76179 252.681434 38.881587 
Q 253.766642 39.001568 255.624721 39.001568 
Q 256.247798 39.001568 256.819883 38.985374 
Q 257.391967 38.969364 257.921025 38.937713 
L 257.921025 38.760133 
Q 257.387186 38.80209 256.869283 38.821596 
Q 256.351379 38.841102 255.779295 38.841102 
Q 254.753049 38.841102 254.165029 38.765102 
Q 253.578603 38.689286 253.578603 38.555871 
Q 253.578603 38.423009 254.165029 38.347008 
Q 254.753049 38.271192 255.779295 38.271192 
Q 256.351379 38.271192 256.869283 38.290698 
Q 257.387186 38.310388 257.921025 38.352345 
L 257.921025 38.174581 
z
" clip-path="url(#pedc28c96f7)" style="fill: #f6dcac"/>
   </g>
   <g id="patch_129">
    <path d="M 257.921025 40.656199 
Q 257.283159 40.433151 256.597099 40.321117 
Q 255.911038 40.210103 255.179618 40.210103 
Q 253.526836 40.210103 252.561531 40.874154 
Q 251.596227 41.538206 251.596227 42.673816 
Q 251.596227 43.822666 252.578541 44.481625 
Q 253.562273 45.140584 255.273172 45.140584 
Q 255.9323 45.140584 256.536147 45.050957 
Q 257.141411 44.962349 257.677219 44.78717 
L 257.677219 43.804333 
Q 257.124401 44.029418 256.577254 44.140433 
Q 256.030106 44.252466 255.480124 44.252466 
Q 254.462373 44.252466 253.910973 43.843035 
Q 253.359573 43.434623 253.359573 42.673816 
Q 253.359573 41.920137 253.891128 41.50867 
Q 254.422683 41.098221 255.400745 41.098221 
Q 255.667231 41.098221 255.895446 41.121646 
Q 256.12366 41.14609 256.305098 41.197014 
L 256.305098 42.11976 
L 255.263249 42.11976 
L 255.263249 42.941677 
L 257.921025 42.941677 
L 257.921025 40.656199 
z
" clip-path="url(#pedc28c96f7)" style="fill: #01204e"/>
   </g>
   <g id="patch_130">
    <path d="M 251.596227 40.210103 
L 257.921025 40.210103 
L 257.921025 39.974405 
L 255.645569 39.974405 
L 255.645569 39.001568 
L 253.876096 39.001568 
L 253.876096 39.974405 
L 251.596227 39.974405 
L 251.596227 40.210103 
z
" clip-path="url(#pedc28c96f7)" style="fill: #028391"/>
   </g>
   <g id="patch_131">
    <path d="M 264.578708 38.40269 
Q 263.940842 38.256708 263.254781 38.183384 
Q 262.56872 38.110726 261.8373 38.110726 
Q 260.184518 38.110726 259.219214 38.545339 
Q 258.25391 38.979952 258.25391 39.723194 
Q 258.25391 40.475101 259.236224 40.906381 
Q 260.219955 41.33766 261.930854 41.33766 
Q 262.589983 41.33766 263.193829 41.279001 
Q 263.799094 41.221008 264.334901 41.106356 
L 264.334901 40.463102 
Q 263.782084 40.610417 263.234936 40.683075 
Q 262.687789 40.756399 262.137806 40.756399 
Q 261.120055 40.756399 260.568655 40.488432 
Q 260.017255 40.221132 260.017255 39.723194 
Q 260.017255 39.229921 260.548811 38.960621 
Q 261.080366 38.691988 262.058427 38.691988 
Q 262.324914 38.691988 262.553128 38.707319 
Q 262.781343 38.723317 262.96278 38.756647 
L 262.96278 39.360572 
L 261.920932 39.360572 
L 261.920932 39.898505 
L 264.578708 39.898505 
L 264.578708 38.40269 
z
" clip-path="url(#pedc28c96f7)" style="fill: #01204e"/>
   </g>
   <g id="patch_132">
    <path d="M 269.292785 39.607372 
L 266.86037 39.607372 
L 266.476304 39.121544 
L 264.911592 39.121544 
L 267.146156 41.788453 
L 269.001827 41.788453 
L 271.23639 39.121544 
L 269.672972 39.121544 
L 269.292785 39.607372 
z
M 267.248315 40.102344 
L 268.900961 40.102344 
L 268.075931 41.163164 
L 267.248315 40.102344 
z
" clip-path="url(#pedc28c96f7)" style="fill: #fead70"/>
   </g>
   <g id="patch_133">
    <path d="M 271.23639 38.183181 
Q 270.707332 38.147267 270.135248 38.129101 
Q 269.563163 38.110726 268.940085 38.110726 
Q 267.082007 38.110726 265.996799 38.246866 
Q 264.911592 38.383006 264.911592 38.615822 
Q 264.911592 38.849473 265.996799 38.985404 
Q 267.082007 39.121544 268.940085 39.121544 
Q 269.563163 39.121544 270.135248 39.103169 
Q 270.707332 39.085003 271.23639 39.049089 
L 271.23639 38.847594 
Q 270.702551 38.895201 270.184648 38.917334 
Q 269.666744 38.939467 269.09466 38.939467 
Q 268.068414 38.939467 267.480394 38.853231 
Q 266.893968 38.767204 266.893968 38.615822 
Q 266.893968 38.465066 267.480394 38.37883 
Q 268.068414 38.292803 269.09466 38.292803 
Q 269.666744 38.292803 270.184648 38.314936 
Q 270.702551 38.337278 271.23639 38.384885 
L 271.23639 38.183181 
z
" clip-path="url(#pedc28c96f7)" style="fill: #f6dcac"/>
   </g>
   <g id="patch_134">
    <path d="M 277.894073 39.303876 
Q 277.256206 39.192411 276.570146 39.136424 
Q 275.884085 39.080946 275.152665 39.080946 
Q 273.499883 39.080946 272.534579 39.412797 
Q 271.569274 39.744648 271.569274 40.312154 
Q 271.569274 40.886276 272.551588 41.215583 
Q 273.53532 41.544889 275.246219 41.544889 
Q 275.905347 41.544889 276.509194 41.500099 
Q 277.114458 41.455818 277.650266 41.368275 
L 277.650266 40.877115 
Q 277.097449 40.989598 276.550301 41.045076 
Q 276.003154 41.101063 275.453171 41.101063 
Q 274.43542 41.101063 273.88402 40.896456 
Q 273.33262 40.692357 273.33262 40.312154 
Q 273.33262 39.935513 273.864175 39.729888 
Q 274.395731 39.524771 275.373792 39.524771 
Q 275.640279 39.524771 275.868493 39.536477 
Q 276.096707 39.548693 276.278145 39.574142 
L 276.278145 40.035272 
L 275.236297 40.035272 
L 275.236297 40.446014 
L 277.894073 40.446014 
L 277.894073 39.303876 
z
" clip-path="url(#pedc28c96f7)" style="fill: #01204e"/>
   </g>
   <g id="patch_135">
    <path d="M 271.569274 39.080946 
L 277.894073 39.080946 
L 277.894073 38.891726 
L 275.618616 38.891726 
L 275.618616 38.110726 
L 273.849144 38.110726 
L 273.849144 38.891726 
L 271.569274 38.891726 
L 271.569274 39.080946 
z
" clip-path="url(#pedc28c96f7)" style="fill: #028391"/>
   </g>
   <g id="patch_136">
    <path d="M 282.60815 38.238682 
L 280.175734 38.238682 
L 279.791669 38.110726 
L 278.226957 38.110726 
L 280.461521 38.813129 
L 282.317191 38.813129 
L 284.551755 38.110726 
L 282.988336 38.110726 
L 282.60815 38.238682 
z
M 280.563679 38.369047 
L 282.216326 38.369047 
L 281.391296 38.648442 
L 280.563679 38.369047 
z
" clip-path="url(#pedc28c96f7)" style="fill: #fead70"/>
   </g>
   <g id="patch_137">
    <path d="M 284.551755 38.882587 
Q 284.022697 38.848158 283.450612 38.830743 
Q 282.878528 38.813129 282.25545 38.813129 
Q 280.397371 38.813129 279.312164 38.943638 
Q 278.226957 39.074146 278.226957 39.297332 
Q 278.226957 39.521319 279.312164 39.651627 
Q 280.397371 39.782136 282.25545 39.782136 
Q 282.878528 39.782136 283.450612 39.764521 
Q 284.022697 39.747107 284.551755 39.712678 
L 284.551755 39.519517 
Q 284.017916 39.565155 283.500012 39.586373 
Q 282.982109 39.607591 282.410024 39.607591 
Q 281.383779 39.607591 280.795759 39.524922 
Q 280.209332 39.442453 280.209332 39.297332 
Q 280.209332 39.152812 280.795759 39.070143 
Q 281.383779 38.987674 282.410024 38.987674 
Q 282.982109 38.987674 283.500012 39.008892 
Q 284.017916 39.03031 284.551755 39.075948 
L 284.551755 38.882587 
z
" clip-path="url(#pedc28c96f7)" style="fill: #f6dcac"/>
   </g>
   <g id="patch_138">
    <path d="M 284.551755 39.875942 
Q 283.913889 39.829039 283.227828 39.805481 
Q 282.541768 39.782136 281.810348 39.782136 
Q 280.157565 39.782136 279.192261 39.921774 
Q 278.226957 40.061412 278.226957 40.30021 
Q 278.226957 40.541793 279.209271 40.68036 
Q 280.193002 40.818927 281.903901 40.818927 
Q 282.56303 40.818927 283.166877 40.80008 
Q 283.772141 40.781447 284.307948 40.74461 
L 284.307948 40.537937 
Q 283.755131 40.585269 283.207984 40.608613 
Q 282.660836 40.632172 282.110854 40.632172 
Q 281.093103 40.632172 280.541703 40.546076 
Q 279.990303 40.460194 279.990303 40.30021 
Q 279.990303 40.141725 280.521858 40.055201 
Q 281.053413 39.968891 282.031475 39.968891 
Q 282.297961 39.968891 282.526175 39.973817 
Q 282.75439 39.978957 282.935827 39.989666 
L 282.935827 40.183702 
L 281.893979 40.183702 
L 281.893979 40.356537 
L 284.551755 40.356537 
L 284.551755 39.875942 
z
" clip-path="url(#pedc28c96f7)" style="fill: #01204e"/>
   </g>
   <g id="matplotlib.axis_1">
    <g id="xtick_1">
     <g id="line2d_2">
      <defs>
       <path id="mab8b54702e" d="M 0 0 
L 0 3.5 
" style="stroke: #333333; stroke-width: 0.8"/>
      </defs>
      <g>
       <use xlink:href="#mab8b54702e" x="61.685837" y="67.465129" style="fill: #333333; stroke: #333333; stroke-width: 0.8"/>
      </g>
     </g>
     <g id="text_1">
      <!-- 0 -->
      <g style="fill: #333333" transform="translate(58.504587 82.063567)scale(0.1 -0.1)">
       <defs>
        <path id="DejaVuSans-30" d="M 2034 4250 
Q 1547 4250 1301 3770 
Q 1056 3291 1056 2328 
Q 1056 1369 1301 889 
Q 1547 409 2034 409 
Q 2525 409 2770 889 
Q 3016 1369 3016 2328 
Q 3016 3291 2770 3770 
Q 2525 4250 2034 4250 
z
M 2034 4750 
Q 2819 4750 3233 4129 
Q 3647 3509 3647 2328 
Q 3647 1150 3233 529 
Q 2819 -91 2034 -91 
Q 1250 -91 836 529 
Q 422 1150 422 2328 
Q 422 3509 836 4129 
Q 1250 4750 2034 4750 
z
" transform="scale(0.015625)"/>
       </defs>
       <use xlink:href="#DejaVuSans-30"/>
      </g>
     </g>
    </g>
    <g id="xtick_2">
     <g id="line2d_3">
      <g>
       <use xlink:href="#mab8b54702e" x="94.974249" y="67.465129" style="fill: #333333; stroke: #333333; stroke-width: 0.8"/>
      </g>
     </g>
     <g id="text_2">
      <!-- 5 -->
      <g style="fill: #333333" transform="translate(91.792999 82.063567)scale(0.1 -0.1)">
       <defs>
        <path id="DejaVuSans-35" d="M 691 4666 
L 3169 4666 
L 3169 4134 
L 1269 4134 
L 1269 2991 
Q 1406 3038 1543 3061 
Q 1681 3084 1819 3084 
Q 2600 3084 3056 2656 
Q 3513 2228 3513 1497 
Q 3513 744 3044 326 
Q 2575 -91 1722 -91 
Q 1428 -91 1123 -41 
Q 819 9 494 109 
L 494 744 
Q 775 591 1075 516 
Q 1375 441 1709 441 
Q 2250 441 2565 725 
Q 2881 1009 2881 1497 
Q 2881 1984 2565 2268 
Q 2250 2553 1709 2553 
Q 1456 2553 1204 2497 
Q 953 2441 691 2322 
L 691 4666 
z
" transform="scale(0.015625)"/>
       </defs>
       <use xlink:href="#DejaVuSans-35"/>
      </g>
     </g>
    </g>
    <g id="xtick_3">
     <g id="line2d_4">
      <g>
       <use xlink:href="#mab8b54702e" x="128.262661" y="67.465129" style="fill: #333333; stroke: #333333; stroke-width: 0.8"/>
      </g>
     </g>
     <g id="text_3">
      <!-- 10 -->
      <g style="fill: #333333" transform="translate(121.900161 82.063567)scale(0.1 -0.1)">
       <defs>
        <path id="DejaVuSans-31" d="M 794 531 
L 1825 531 
L 1825 4091 
L 703 3866 
L 703 4441 
L 1819 4666 
L 2450 4666 
L 2450 531 
L 3481 531 
L 3481 0 
L 794 0 
L 794 531 
z
" transform="scale(0.015625)"/>
       </defs>
       <use xlink:href="#DejaVuSans-31"/>
       <use xlink:href="#DejaVuSans-30" x="63.623047"/>
      </g>
     </g>
    </g>
    <g id="xtick_4">
     <g id="line2d_5">
      <g>
       <use xlink:href="#mab8b54702e" x="161.551073" y="67.465129" style="fill: #333333; stroke: #333333; stroke-width: 0.8"/>
      </g>
     </g>
     <g id="text_4">
      <!-- 15 -->
      <g style="fill: #333333" transform="translate(155.188573 82.063567)scale(0.1 -0.1)">
       <use xlink:href="#DejaVuSans-31"/>
       <use xlink:href="#DejaVuSans-35" x="63.623047"/>
      </g>
     </g>
    </g>
    <g id="xtick_5">
     <g id="line2d_6">
      <g>
       <use xlink:href="#mab8b54702e" x="194.839485" y="67.465129" style="fill: #333333; stroke: #333333; stroke-width: 0.8"/>
      </g>
     </g>
     <g id="text_5">
      <!-- 20 -->
      <g style="fill: #333333" transform="translate(188.476985 82.063567)scale(0.1 -0.1)">
       <defs>
        <path id="DejaVuSans-32" d="M 1228 531 
L 3431 531 
L 3431 0 
L 469 0 
L 469 531 
Q 828 903 1448 1529 
Q 2069 2156 2228 2338 
Q 2531 2678 2651 2914 
Q 2772 3150 2772 3378 
Q 2772 3750 2511 3984 
Q 2250 4219 1831 4219 
Q 1534 4219 1204 4116 
Q 875 4013 500 3803 
L 500 4441 
Q 881 4594 1212 4672 
Q 1544 4750 1819 4750 
Q 2544 4750 2975 4387 
Q 3406 4025 3406 3419 
Q 3406 3131 3298 2873 
Q 3191 2616 2906 2266 
Q 2828 2175 2409 1742 
Q 1991 1309 1228 531 
z
" transform="scale(0.015625)"/>
       </defs>
       <use xlink:href="#DejaVuSans-32"/>
       <use xlink:href="#DejaVuSans-30" x="63.623047"/>
      </g>
     </g>
    </g>
    <g id="xtick_6">
     <g id="line2d_7">
      <g>
       <use xlink:href="#mab8b54702e" x="228.127897" y="67.465129" style="fill: #333333; stroke: #333333; stroke-width: 0.8"/>
      </g>
     </g>
     <g id="text_6">
      <!-- 25 -->
      <g style="fill: #333333" transform="translate(221.765397 82.063567)scale(0.1 -0.1)">
       <use xlink:href="#DejaVuSans-32"/>
       <use xlink:href="#DejaVuSans-35" x="63.623047"/>
      </g>
     </g>
    </g>
    <g id="xtick_7">
     <g id="line2d_8">
      <g>
       <use xlink:href="#mab8b54702e" x="261.416309" y="67.465129" style="fill: #333333; stroke: #333333; stroke-width: 0.8"/>
      </g>
     </g>
     <g id="text_7">
      <!-- 30 -->
      <g style="fill: #333333" transform="translate(255.053809 82.063567)scale(0.1 -0.1)">
       <defs>
        <path id="DejaVuSans-33" d="M 2597 2516 
Q 3050 2419 3304 2112 
Q 3559 1806 3559 1356 
Q 3559 666 3084 287 
Q 2609 -91 1734 -91 
Q 1441 -91 1130 -33 
Q 819 25 488 141 
L 488 750 
Q 750 597 1062 519 
Q 1375 441 1716 441 
Q 2309 441 2620 675 
Q 2931 909 2931 1356 
Q 2931 1769 2642 2001 
Q 2353 2234 1838 2234 
L 1294 2234 
L 1294 2753 
L 1863 2753 
Q 2328 2753 2575 2939 
Q 2822 3125 2822 3475 
Q 2822 3834 2567 4026 
Q 2313 4219 1838 4219 
Q 1578 4219 1281 4162 
Q 984 4106 628 3988 
L 628 4550 
Q 988 4650 1302 4700 
Q 1616 4750 1894 4750 
Q 2613 4750 3031 4423 
Q 3450 4097 3450 3541 
Q 3450 3153 3228 2886 
Q 3006 2619 2597 2516 
z
" transform="scale(0.015625)"/>
       </defs>
       <use xlink:href="#DejaVuSans-33"/>
       <use xlink:href="#DejaVuSans-30" x="63.623047"/>
      </g>
     </g>
    </g>
   </g>
   <g id="matplotlib.axis_2">
    <g id="ytick_1">
     <g id="line2d_9">
      <defs>
       <path id="mc76c195392" d="M 0 0 
L -3.5 0 
" style="stroke: #333333; stroke-width: 0.8"/>
      </defs>
      <g>
       <use xlink:href="#mc76c195392" x="58.523438" y="65.222234" style="fill: #333333; stroke: #333333; stroke-width: 0.8"/>
      </g>
     </g>
     <g id="text_8">
      <!-- 0.02 -->
      <g style="fill: #333333" transform="translate(20.878125 69.021453)scale(0.1 -0.1)">
       <defs>
        <path id="DejaVuSans-2212" d="M 678 2272 
L 4684 2272 
L 4684 1741 
L 678 1741 
L 678 2272 
z
" transform="scale(0.015625)"/>
        <path id="DejaVuSans-2e" d="M 684 794 
L 1344 794 
L 1344 0 
L 684 0 
L 684 794 
z
" transform="scale(0.015625)"/>
       </defs>
       <use xlink:href="#DejaVuSans-2212"/>
       <use xlink:href="#DejaVuSans-30" x="83.789062"/>
       <use xlink:href="#DejaVuSans-2e" x="147.412109"/>
       <use xlink:href="#DejaVuSans-30" x="179.199219"/>
       <use xlink:href="#DejaVuSans-32" x="242.822266"/>
      </g>
     </g>
    </g>
    <g id="ytick_2">
     <g id="line2d_10">
      <g>
       <use xlink:href="#mc76c195392" x="58.523438" y="38.110726" style="fill: #333333; stroke: #333333; stroke-width: 0.8"/>
      </g>
     </g>
     <g id="text_9">
      <!-- 0.00 -->
      <g style="fill: #333333" transform="translate(29.257812 41.909945)scale(0.1 -0.1)">
       <use xlink:href="#DejaVuSans-30"/>
       <use xlink:href="#DejaVuSans-2e" x="63.623047"/>
       <use xlink:href="#DejaVuSans-30" x="95.410156"/>
       <use xlink:href="#DejaVuSans-30" x="159.033203"/>
      </g>
     </g>
    </g>
    <g id="ytick_3">
     <g id="line2d_11">
      <g>
       <use xlink:href="#mc76c195392" x="58.523438" y="10.999219" style="fill: #333333; stroke: #333333; stroke-width: 0.8"/>
      </g>
     </g>
     <g id="text_10">
      <!-- 0.02 -->
      <g style="fill: #333333" transform="translate(29.257812 14.798437)scale(0.1 -0.1)">
       <use xlink:href="#DejaVuSans-30"/>
       <use xlink:href="#DejaVuSans-2e" x="63.623047"/>
       <use xlink:href="#DejaVuSans-30" x="95.410156"/>
       <use xlink:href="#DejaVuSans-32" x="159.033203"/>
      </g>
     </g>
    </g>
    <g id="text_11">
     <!-- bits -->
     <g style="fill: #333333" transform="translate(14.798437 47.238854)rotate(-90)scale(0.1 -0.1)">
      <defs>
       <path id="DejaVuSans-62" d="M 3116 1747 
Q 3116 2381 2855 2742 
Q 2594 3103 2138 3103 
Q 1681 3103 1420 2742 
Q 1159 2381 1159 1747 
Q 1159 1113 1420 752 
Q 1681 391 2138 391 
Q 2594 391 2855 752 
Q 3116 1113 3116 1747 
z
M 1159 2969 
Q 1341 3281 1617 3432 
Q 1894 3584 2278 3584 
Q 2916 3584 3314 3078 
Q 3713 2572 3713 1747 
Q 3713 922 3314 415 
Q 2916 -91 2278 -91 
Q 1894 -91 1617 61 
Q 1341 213 1159 525 
L 1159 0 
L 581 0 
L 581 4863 
L 1159 4863 
L 1159 2969 
z
" transform="scale(0.015625)"/>
       <path id="DejaVuSans-69" d="M 603 3500 
L 1178 3500 
L 1178 0 
L 603 0 
L 603 3500 
z
M 603 4863 
L 1178 4863 
L 1178 4134 
L 603 4134 
L 603 4863 
z
" transform="scale(0.015625)"/>
       <path id="DejaVuSans-74" d="M 1172 4494 
L 1172 3500 
L 2356 3500 
L 2356 3053 
L 1172 3053 
L 1172 1153 
Q 1172 725 1289 603 
Q 1406 481 1766 481 
L 2356 481 
L 2356 0 
L 1766 0 
Q 1100 0 847 248 
Q 594 497 594 1153 
L 594 3053 
L 172 3053 
L 172 3500 
L 594 3500 
L 594 4494 
L 1172 4494 
z
" transform="scale(0.015625)"/>
       <path id="DejaVuSans-73" d="M 2834 3397 
L 2834 2853 
Q 2591 2978 2328 3040 
Q 2066 3103 1784 3103 
Q 1356 3103 1142 2972 
Q 928 2841 928 2578 
Q 928 2378 1081 2264 
Q 1234 2150 1697 2047 
L 1894 2003 
Q 2506 1872 2764 1633 
Q 3022 1394 3022 966 
Q 3022 478 2636 193 
Q 2250 -91 1575 -91 
Q 1294 -91 989 -36 
Q 684 19 347 128 
L 347 722 
Q 666 556 975 473 
Q 1284 391 1588 391 
Q 1994 391 2212 530 
Q 2431 669 2431 922 
Q 2431 1156 2273 1281 
Q 2116 1406 1581 1522 
L 1381 1569 
Q 847 1681 609 1914 
Q 372 2147 372 2553 
Q 372 3047 722 3315 
Q 1072 3584 1716 3584 
Q 2034 3584 2315 3537 
Q 2597 3491 2834 3397 
z
" transform="scale(0.015625)"/>
      </defs>
      <use xlink:href="#DejaVuSans-62"/>
      <use xlink:href="#DejaVuSans-69" x="63.476562"/>
      <use xlink:href="#DejaVuSans-74" x="91.259766"/>
      <use xlink:href="#DejaVuSans-73" x="130.46875"/>
     </g>
    </g>
   </g>
   <g id="patch_139">
    <path d="M 58.523438 67.465129 
L 58.523438 8.756329 
" style="fill: none; stroke: #333333; stroke-linejoin: miter; stroke-linecap: square"/>
   </g>
   <g id="patch_140">
    <path d="M 58.523438 67.465129 
L 291.209437 67.465129 
" style="fill: none; stroke: #333333; stroke-linejoin: miter; stroke-linecap: square"/>
   </g>
  </g>
 </g>
 <defs>
  <clipPath id="pedc28c96f7">
   <rect x="58.523438" y="8.756329" width="232.686" height="58.7088"/>
  </clipPath>
 </defs>
</svg>
