<?xml version="1.0" encoding="utf-8" standalone="no"?>
<!DOCTYPE svg PUBLIC "-//W3C//DTD SVG 1.1//EN"
  "http://www.w3.org/Graphics/SVG/1.1/DTD/svg11.dtd">
<svg xmlns:xlink="http://www.w3.org/1999/xlink" width="298.409438pt" height="89.786925pt" viewBox="0 0 298.409438 89.786925" xmlns="http://www.w3.org/2000/svg" version="1.1">
 <metadata>
  <rdf:RDF xmlns:dc="http://purl.org/dc/elements/1.1/" xmlns:cc="http://creativecommons.org/ns#" xmlns:rdf="http://www.w3.org/1999/02/22-rdf-syntax-ns#">
   <cc:Work>
    <dc:type rdf:resource="http://purl.org/dc/dcmitype/StillImage"/>
    <dc:date>2024-10-17T18:10:25.548189</dc:date>
    <dc:format>image/svg+xml</dc:format>
    <dc:creator>
     <cc:Agent>
      <dc:title>Matplotlib v3.5.1, https://matplotlib.org/</dc:title>
     </cc:Agent>
    </dc:creator>
   </cc:Work>
  </rdf:RDF>
 </metadata>
 <defs>
  <style type="text/css">*{stroke-linejoin: round; stroke-linecap: butt}</style>
 </defs>
 <g id="figure_1">
  <g id="patch_1">
   <path d="M 0 89.786925 
L 298.409438 89.786925 
L 298.409438 0 
L 0 0 
z
" style="fill: #ffffff"/>
  </g>
  <g id="axes_1">
   <g id="patch_2">
    <path d="M 58.523438 65.9088 
L 291.209438 65.9088 
L 291.209438 7.2 
L 58.523438 7.2 
z
" style="fill: #ffffff"/>
   </g>
   <g id="line2d_1">
    <path d="M 58.523438 36.554395 
L 291.209438 36.554395 
" clip-path="url(#p3406d1f423)" style="fill: none; stroke: #000000; stroke-width: 0.5; stroke-linecap: square"/>
   </g>
   <g id="patch_3">
    <path d="M 64.848236 36.458988 
Q 64.319177 36.506279 63.747093 36.530199 
Q 63.175009 36.554395 62.551931 36.554395 
Q 60.693852 36.554395 59.608645 36.375128 
Q 58.523438 36.195861 58.523438 35.889293 
Q 58.523438 35.581625 59.608645 35.402633 
Q 60.693852 35.223366 62.551931 35.223366 
Q 63.175009 35.223366 63.747093 35.247561 
Q 64.319177 35.271482 64.848236 35.318773 
L 64.848236 35.584099 
Q 64.314397 35.521411 63.796493 35.492266 
Q 63.278589 35.463122 62.706505 35.463122 
Q 61.680259 35.463122 61.092239 35.576676 
Q 60.505813 35.689955 60.505813 35.889293 
Q 60.505813 36.087806 61.092239 36.20136 
Q 61.680259 36.314639 62.706505 36.314639 
Q 63.278589 36.314639 63.796493 36.285495 
Q 64.314397 36.256075 64.848236 36.193387 
L 64.848236 36.458988 
z
" clip-path="url(#p3406d1f423)" style="fill: #f6dcac"/>
   </g>
   <g id="patch_4">
    <path d="M 62.904631 34.809595 
L 60.472215 34.809595 
L 60.088149 35.223366 
L 58.523438 35.223366 
L 60.758001 32.952005 
L 62.613672 32.952005 
L 64.848236 35.223366 
L 63.284817 35.223366 
L 62.904631 34.809595 
z
M 60.86016 34.388035 
L 62.512806 34.388035 
L 61.687776 33.484553 
L 60.86016 34.388035 
z
" clip-path="url(#p3406d1f423)" style="fill: #fead70"/>
   </g>
   <g id="patch_5">
    <path d="M 71.505918 36.431449 
Q 70.868052 36.492922 70.181991 36.523799 
Q 69.495931 36.554395 68.764511 36.554395 
Q 67.111728 36.554395 66.146424 36.37138 
Q 65.18112 36.188364 65.18112 35.875386 
Q 65.18112 35.558758 66.163434 35.377146 
Q 67.147165 35.195534 68.858064 35.195534 
Q 69.517193 35.195534 70.12104 35.220236 
Q 70.726304 35.244656 71.262112 35.292936 
L 71.262112 35.56381 
Q 70.709294 35.501776 70.162147 35.47118 
Q 69.614999 35.440303 69.065017 35.440303 
Q 68.047266 35.440303 67.495866 35.553144 
Q 66.944466 35.665704 66.944466 35.875386 
Q 66.944466 36.083102 67.476021 36.196505 
Q 68.007576 36.309626 68.985638 36.309626 
Q 69.252124 36.309626 69.480338 36.30317 
Q 69.708553 36.296433 69.88999 36.282398 
L 69.88999 36.028086 
L 68.848142 36.028086 
L 68.848142 35.801562 
L 71.505918 35.801562 
L 71.505918 36.431449 
z
" clip-path="url(#p3406d1f423)" style="fill: #01204e"/>
   </g>
   <g id="patch_6">
    <path d="M 65.18112 29.13807 
L 71.505918 29.13807 
L 71.505918 30.319444 
L 69.230462 30.319444 
L 69.230462 35.195534 
L 67.460989 35.195534 
L 67.460989 30.319444 
L 65.18112 30.319444 
L 65.18112 29.13807 
z
" clip-path="url(#p3406d1f423)" style="fill: #028391"/>
   </g>
   <g id="patch_7">
    <path d="M 76.219996 36.548374 
L 73.78758 36.548374 
L 73.403514 36.554395 
L 71.838802 36.554395 
L 74.073366 36.521342 
L 75.929037 36.521342 
L 78.163601 36.554395 
L 76.600182 36.554395 
L 76.219996 36.548374 
z
M 74.175525 36.542239 
L 75.828171 36.542239 
L 75.003141 36.529092 
L 74.175525 36.542239 
z
" clip-path="url(#p3406d1f423)" style="fill: #fead70"/>
   </g>
   <g id="patch_8">
    <path d="M 71.838802 32.283566 
L 78.163601 32.283566 
L 78.163601 33.11005 
L 75.888144 33.11005 
L 75.888144 36.521342 
L 74.118671 36.521342 
L 74.118671 33.11005 
L 71.838802 33.11005 
L 71.838802 32.283566 
z
" clip-path="url(#p3406d1f423)" style="fill: #028391"/>
   </g>
   <g id="patch_9">
    <path d="M 84.821283 36.523511 
Q 84.183417 36.538953 83.497356 36.546709 
Q 82.811296 36.554395 82.079876 36.554395 
Q 80.427093 36.554395 79.461789 36.508422 
Q 78.496485 36.462449 78.496485 36.38383 
Q 78.496485 36.304294 79.478799 36.258674 
Q 80.46253 36.213053 82.173429 36.213053 
Q 82.832558 36.213053 83.436404 36.219258 
Q 84.041669 36.225393 84.577476 36.23752 
L 84.577476 36.305563 
Q 84.024659 36.28998 83.477511 36.282295 
Q 82.930364 36.274538 82.380381 36.274538 
Q 81.36263 36.274538 80.81123 36.302884 
Q 80.259831 36.331158 80.259831 36.38383 
Q 80.259831 36.436008 80.791386 36.464494 
Q 81.322941 36.49291 82.301003 36.49291 
Q 82.567489 36.49291 82.795703 36.491288 
Q 83.023918 36.489596 83.205355 36.48607 
L 83.205355 36.422188 
L 82.163507 36.422188 
L 82.163507 36.365286 
L 84.821283 36.365286 
L 84.821283 36.523511 
z
" clip-path="url(#p3406d1f423)" style="fill: #01204e"/>
   </g>
   <g id="patch_10">
    <path d="M 82.877678 35.759577 
L 80.445262 35.759577 
L 80.061197 36.213053 
L 78.496485 36.213053 
L 80.731048 33.723737 
L 82.586719 33.723737 
L 84.821283 36.213053 
L 83.257864 36.213053 
L 82.877678 35.759577 
z
M 80.833207 35.297565 
L 82.485853 35.297565 
L 81.660824 34.307387 
L 80.833207 35.297565 
z
" clip-path="url(#p3406d1f423)" style="fill: #fead70"/>
   </g>
   <g id="patch_11">
    <path d="M 78.496485 30.53136 
L 84.821283 30.53136 
L 84.821283 31.153963 
L 82.545826 31.153963 
L 82.545826 33.723737 
L 80.776354 33.723737 
L 80.776354 31.153963 
L 78.496485 31.153963 
L 78.496485 30.53136 
z
" clip-path="url(#p3406d1f423)" style="fill: #028391"/>
   </g>
   <g id="patch_12">
    <path d="M 91.478965 36.357225 
Q 90.949907 36.454958 90.377823 36.504392 
Q 89.805738 36.554395 89.18266 36.554395 
Q 87.324582 36.554395 86.239374 36.18392 
Q 85.154167 35.813445 85.154167 35.179887 
Q 85.154167 34.544056 86.239374 34.174149 
Q 87.324582 33.803674 89.18266 33.803674 
Q 89.805738 33.803674 90.377823 33.853677 
Q 90.949907 33.903111 91.478965 34.000844 
L 91.478965 34.54917 
Q 90.945126 34.419617 90.427223 34.359387 
Q 89.909319 34.299156 89.337235 34.299156 
Q 88.310989 34.299156 87.722969 34.533828 
Q 87.136543 34.767932 87.136543 35.179887 
Q 87.136543 35.590137 87.722969 35.824809 
Q 88.310989 36.058913 89.337235 36.058913 
Q 89.909319 36.058913 90.427223 35.998682 
Q 90.945126 35.937883 91.478965 35.808331 
L 91.478965 36.357225 
z
" clip-path="url(#p3406d1f423)" style="fill: #f6dcac"/>
   </g>
   <g id="patch_13">
    <path d="M 85.154167 30.277488 
L 91.478965 30.277488 
L 91.478965 30.965192 
L 89.203509 30.965192 
L 89.203509 33.803674 
L 87.434036 33.803674 
L 87.434036 30.965192 
L 85.154167 30.965192 
L 85.154167 30.277488 
z
" clip-path="url(#p3406d1f423)" style="fill: #028391"/>
   </g>
   <g id="patch_14">
    <path d="M 91.81185 35.036258 
L 98.136648 35.036258 
L 98.136648 35.332337 
L 95.861191 35.332337 
L 95.861191 36.554395 
L 94.091719 36.554395 
L 94.091719 35.332337 
L 91.81185 35.332337 
L 91.81185 35.036258 
z
" clip-path="url(#p3406d1f423)" style="fill: #028391"/>
   </g>
   <g id="patch_15">
    <path d="M 98.136648 34.714601 
Q 97.607589 34.874039 97.035505 34.954685 
Q 96.463421 35.036258 95.840343 35.036258 
Q 93.982264 35.036258 92.897057 34.431876 
Q 91.81185 33.827493 91.81185 32.793925 
Q 91.81185 31.756649 92.897057 31.153194 
Q 93.982264 30.548811 95.840343 30.548811 
Q 96.463421 30.548811 97.035505 30.630384 
Q 97.607589 30.71103 98.136648 30.870469 
L 98.136648 31.764992 
Q 97.602809 31.553643 97.084905 31.455385 
Q 96.567001 31.357126 95.994917 31.357126 
Q 94.968671 31.357126 94.380651 31.739964 
Q 93.794225 32.121874 93.794225 32.793925 
Q 93.794225 33.463195 94.380651 33.846033 
Q 94.968671 34.227943 95.994917 34.227943 
Q 96.567001 34.227943 97.084905 34.129685 
Q 97.602809 34.030499 98.136648 33.819151 
L 98.136648 34.714601 
z
" clip-path="url(#p3406d1f423)" style="fill: #f6dcac"/>
   </g>
   <g id="patch_16">
    <path d="M 98.469532 32.012337 
L 104.79433 32.012337 
L 104.79433 32.898165 
L 102.518874 32.898165 
L 102.518874 36.554395 
L 100.749401 36.554395 
L 100.749401 32.898165 
L 98.469532 32.898165 
L 98.469532 32.012337 
z
" clip-path="url(#p3406d1f423)" style="fill: #028391"/>
   </g>
   <g id="patch_17">
    <path d="M 104.79433 31.502036 
Q 104.265272 31.754981 103.693187 31.882924 
Q 103.121103 32.012337 102.498025 32.012337 
Q 100.639946 32.012337 99.554739 31.0535 
Q 98.469532 30.094663 98.469532 28.454935 
Q 98.469532 26.809323 99.554739 25.851957 
Q 100.639946 24.89312 102.498025 24.89312 
Q 103.121103 24.89312 103.693187 25.022533 
Q 104.265272 25.150476 104.79433 25.403421 
L 104.79433 26.822559 
Q 104.260491 26.48726 103.742587 26.331375 
Q 103.224684 26.175491 102.6526 26.175491 
Q 101.626354 26.175491 101.038334 26.782852 
Q 100.451908 27.388743 100.451908 28.454935 
Q 100.451908 29.516714 101.038334 30.124076 
Q 101.626354 30.729966 102.6526 30.729966 
Q 103.224684 30.729966 103.742587 30.574082 
Q 104.260491 30.416727 104.79433 30.081428 
L 104.79433 31.502036 
z
" clip-path="url(#p3406d1f423)" style="fill: #f6dcac"/>
   </g>
   <g id="patch_18">
    <path d="M 111.452013 36.002434 
Q 110.814146 36.278415 110.128086 36.417035 
Q 109.442025 36.554395 108.710605 36.554395 
Q 107.057823 36.554395 106.092519 35.732755 
Q 105.127214 34.911115 105.127214 33.50601 
Q 105.127214 32.084523 106.109528 31.269184 
Q 107.09326 30.453845 108.804159 30.453845 
Q 109.463287 30.453845 110.067134 30.564741 
Q 110.672398 30.674377 111.208206 30.891129 
L 111.208206 32.107206 
Q 110.655389 31.828705 110.108241 31.691345 
Q 109.561094 31.552725 109.011111 31.552725 
Q 107.99336 31.552725 107.44196 32.059319 
Q 106.89056 32.564653 106.89056 33.50601 
Q 106.89056 34.438546 107.422115 34.947661 
Q 107.953671 35.455515 108.931732 35.455515 
Q 109.198219 35.455515 109.426433 35.42653 
Q 109.654647 35.396286 109.836085 35.333277 
L 109.836085 34.19155 
L 108.794237 34.19155 
L 108.794237 33.174582 
L 111.452013 33.174582 
L 111.452013 36.002434 
z
" clip-path="url(#p3406d1f423)" style="fill: #01204e"/>
   </g>
   <g id="patch_19">
    <path d="M 118.109695 35.8524 
Q 117.580637 36.200363 117.008552 36.376367 
Q 116.436468 36.554395 115.81339 36.554395 
Q 113.955311 36.554395 112.870104 35.235372 
Q 111.784897 33.91635 111.784897 31.660659 
Q 111.784897 29.396877 112.870104 28.079877 
Q 113.955311 26.760854 115.81339 26.760854 
Q 116.436468 26.760854 117.008552 26.938882 
Q 117.580637 27.114887 118.109695 27.46285 
L 118.109695 29.415084 
Q 117.575856 28.953831 117.057952 28.739388 
Q 116.540049 28.524946 115.967964 28.524946 
Q 114.941718 28.524946 114.353699 29.360462 
Q 113.767272 30.193955 113.767272 31.660659 
Q 113.767272 33.121295 114.353699 33.956811 
Q 114.941718 34.790303 115.967964 34.790303 
Q 116.540049 34.790303 117.057952 34.575861 
Q 117.575856 34.359396 118.109695 33.898142 
L 118.109695 35.8524 
z
" clip-path="url(#p3406d1f423)" style="fill: #f6dcac"/>
   </g>
   <g id="patch_20">
    <path d="M 111.784897 7.2 
L 118.109695 7.2 
L 118.109695 11.014912 
L 115.834239 11.014912 
L 115.834239 26.760854 
L 114.064766 26.760854 
L 114.064766 11.014912 
L 111.784897 11.014912 
L 111.784897 7.2 
z
" clip-path="url(#p3406d1f423)" style="fill: #028391"/>
   </g>
   <g id="patch_21">
    <path d="M 118.442579 28.929279 
L 124.767377 28.929279 
L 124.767377 30.416389 
L 122.491921 30.416389 
L 122.491921 36.554395 
L 120.722448 36.554395 
L 120.722448 30.416389 
L 118.442579 30.416389 
L 118.442579 28.929279 
z
" clip-path="url(#p3406d1f423)" style="fill: #028391"/>
   </g>
   <g id="patch_22">
    <path d="M 124.767377 27.905191 
Q 124.129511 28.417235 123.443451 28.674426 
Q 122.75739 28.929279 122.02597 28.929279 
Q 120.373188 28.929279 119.407883 27.404838 
Q 118.442579 25.880398 118.442579 23.273418 
Q 118.442579 20.636043 119.424893 19.123293 
Q 120.408625 17.610543 122.119524 17.610543 
Q 122.778652 17.610543 123.382499 17.816296 
Q 123.987763 18.01971 124.523571 18.421863 
L 124.523571 20.678128 
Q 123.970753 20.161409 123.423606 19.906556 
Q 122.876458 19.649365 122.326476 19.649365 
Q 121.308725 19.649365 120.757325 20.589281 
Q 120.205925 21.526858 120.205925 23.273418 
Q 120.205925 25.003611 120.73748 25.948203 
Q 121.269035 26.890457 122.247097 26.890457 
Q 122.513583 26.890457 122.741798 26.83668 
Q 122.970012 26.780566 123.15145 26.663661 
L 123.15145 24.545344 
L 122.109601 24.545344 
L 122.109601 22.658498 
L 124.767377 22.658498 
L 124.767377 27.905191 
z
" clip-path="url(#p3406d1f423)" style="fill: #01204e"/>
   </g>
   <g id="patch_23">
    <path d="M 125.100262 30.681411 
L 131.42506 30.681411 
L 131.42506 31.826807 
L 129.149603 31.826807 
L 129.149603 36.554395 
L 127.380131 36.554395 
L 127.380131 31.826807 
L 125.100262 31.826807 
L 125.100262 30.681411 
z
" clip-path="url(#p3406d1f423)" style="fill: #028391"/>
   </g>
   <g id="patch_24">
    <path d="M 129.481455 29.507701 
L 127.049039 29.507701 
L 126.664973 30.681411 
L 125.100262 30.681411 
L 127.334825 24.238432 
L 129.190496 24.238432 
L 131.42506 30.681411 
L 129.861641 30.681411 
L 129.481455 29.507701 
z
M 127.436984 28.311897 
L 129.08963 28.311897 
L 128.2646 25.749066 
L 127.436984 28.311897 
z
" clip-path="url(#p3406d1f423)" style="fill: #fead70"/>
   </g>
   <g id="patch_25">
    <path d="M 138.082742 36.421512 
Q 137.553684 36.487379 136.981599 36.520696 
Q 136.409515 36.554395 135.786437 36.554395 
Q 133.928358 36.554395 132.843151 36.304714 
Q 131.757944 36.055032 131.757944 35.628047 
Q 131.757944 35.199529 132.843151 34.950231 
Q 133.928358 34.700549 135.786437 34.700549 
Q 136.409515 34.700549 136.981599 34.734249 
Q 137.553684 34.767565 138.082742 34.833432 
L 138.082742 35.202976 
Q 137.548903 35.115664 137.030999 35.075071 
Q 136.513096 35.034479 135.941012 35.034479 
Q 134.914766 35.034479 134.326746 35.192636 
Q 133.74032 35.35041 133.74032 35.628047 
Q 133.74032 35.904534 134.326746 36.062691 
Q 134.914766 36.220465 135.941012 36.220465 
Q 136.513096 36.220465 137.030999 36.179873 
Q 137.548903 36.138898 138.082742 36.051586 
L 138.082742 36.421512 
z
" clip-path="url(#p3406d1f423)" style="fill: #f6dcac"/>
   </g>
   <g id="patch_26">
    <path d="M 131.757944 31.872301 
L 138.082742 31.872301 
L 138.082742 32.423888 
L 135.807286 32.423888 
L 135.807286 34.700549 
L 134.037813 34.700549 
L 134.037813 32.423888 
L 131.757944 32.423888 
L 131.757944 31.872301 
z
" clip-path="url(#p3406d1f423)" style="fill: #028391"/>
   </g>
   <g id="patch_27">
    <path d="M 138.415626 35.209705 
L 144.740425 35.209705 
L 144.740425 35.471957 
L 142.464968 35.471957 
L 142.464968 36.554395 
L 140.695495 36.554395 
L 140.695495 35.471957 
L 138.415626 35.471957 
L 138.415626 35.209705 
z
" clip-path="url(#p3406d1f423)" style="fill: #028391"/>
   </g>
   <g id="patch_28">
    <path d="M 144.740425 35.012416 
Q 144.211366 35.110208 143.639282 35.159672 
Q 143.067198 35.209705 142.44412 35.209705 
Q 140.586041 35.209705 139.500834 34.839005 
Q 138.415626 34.468305 138.415626 33.834363 
Q 138.415626 33.198146 139.500834 32.828014 
Q 140.586041 32.457314 142.44412 32.457314 
Q 143.067198 32.457314 143.639282 32.507347 
Q 144.211366 32.556812 144.740425 32.654604 
L 144.740425 33.203263 
Q 144.206586 33.073631 143.688682 33.013364 
Q 143.170778 32.953097 142.598694 32.953097 
Q 141.572448 32.953097 140.984428 33.187912 
Q 140.398002 33.422158 140.398002 33.834363 
Q 140.398002 34.244862 140.984428 34.479676 
Q 141.572448 34.713922 142.598694 34.713922 
Q 143.170778 34.713922 143.688682 34.653655 
Q 144.206586 34.59282 144.740425 34.463188 
L 144.740425 35.012416 
z
" clip-path="url(#p3406d1f423)" style="fill: #f6dcac"/>
   </g>
   <g id="patch_29">
    <path d="M 145.073309 30.392323 
L 151.398107 30.392323 
L 151.398107 31.594099 
L 149.122651 31.594099 
L 149.122651 36.554395 
L 147.353178 36.554395 
L 147.353178 31.594099 
L 145.073309 31.594099 
L 145.073309 30.392323 
z
" clip-path="url(#p3406d1f423)" style="fill: #028391"/>
   </g>
   <g id="patch_30">
    <path d="M 149.454502 27.684804 
L 147.022086 27.684804 
L 146.638021 30.392323 
L 145.073309 30.392323 
L 147.307873 15.529633 
L 149.163543 15.529633 
L 151.398107 30.392323 
L 149.834688 30.392323 
L 149.454502 27.684804 
z
M 147.410031 24.926319 
L 149.062678 24.926319 
L 148.237648 19.01437 
L 147.410031 24.926319 
z
" clip-path="url(#p3406d1f423)" style="fill: #fead70"/>
   </g>
   <g id="patch_31">
    <path d="M 151.730991 30.86501 
L 158.055789 30.86501 
L 158.055789 31.974599 
L 155.780333 31.974599 
L 155.780333 36.554395 
L 154.01086 36.554395 
L 154.01086 31.974599 
L 151.730991 31.974599 
L 151.730991 30.86501 
z
" clip-path="url(#p3406d1f423)" style="fill: #028391"/>
   </g>
   <g id="patch_32">
    <path d="M 156.112184 29.422488 
L 153.679769 29.422488 
L 153.295703 30.86501 
L 151.730991 30.86501 
L 153.965555 22.946413 
L 155.821226 22.946413 
L 158.055789 30.86501 
L 156.492371 30.86501 
L 156.112184 29.422488 
z
M 154.067714 27.952813 
L 155.72036 27.952813 
L 154.89533 24.803023 
L 154.067714 27.952813 
z
" clip-path="url(#p3406d1f423)" style="fill: #fead70"/>
   </g>
   <g id="patch_33">
    <path d="M 158.388674 32.657727 
L 164.713472 32.657727 
L 164.713472 33.417686 
L 162.438015 33.417686 
L 162.438015 36.554395 
L 160.668543 36.554395 
L 160.668543 33.417686 
L 158.388674 33.417686 
L 158.388674 32.657727 
z
" clip-path="url(#p3406d1f423)" style="fill: #028391"/>
   </g>
   <g id="patch_34">
    <path d="M 162.769867 31.727028 
L 160.337451 31.727028 
L 159.953385 32.657727 
L 158.388674 32.657727 
L 160.623237 27.548737 
L 162.478908 27.548737 
L 164.713472 32.657727 
L 163.150053 32.657727 
L 162.769867 31.727028 
z
M 160.725396 30.77881 
L 162.378042 30.77881 
L 161.553012 28.746602 
L 160.725396 30.77881 
z
" clip-path="url(#p3406d1f423)" style="fill: #fead70"/>
   </g>
   <g id="patch_35">
    <path d="M 169.427549 36.407559 
L 166.995134 36.407559 
L 166.611068 36.554395 
L 165.046356 36.554395 
L 167.28092 35.748352 
L 169.13659 35.748352 
L 171.371154 36.554395 
L 169.807735 36.554395 
L 169.427549 36.407559 
z
M 167.383079 36.257959 
L 169.035725 36.257959 
L 168.210695 35.937339 
L 167.383079 36.257959 
z
" clip-path="url(#p3406d1f423)" style="fill: #fead70"/>
   </g>
   <g id="patch_36">
    <path d="M 165.046356 22.652226 
L 171.371154 22.652226 
L 171.371154 25.206335 
L 169.095698 25.206335 
L 169.095698 35.748352 
L 167.326225 35.748352 
L 167.326225 25.206335 
L 165.046356 25.206335 
L 165.046356 22.652226 
z
" clip-path="url(#p3406d1f423)" style="fill: #028391"/>
   </g>
   <g id="patch_37">
    <path d="M 171.704038 29.13455 
L 178.028837 29.13455 
L 178.028837 30.581626 
L 175.75338 30.581626 
L 175.75338 36.554395 
L 173.983908 36.554395 
L 173.983908 30.581626 
L 171.704038 30.581626 
L 171.704038 29.13455 
z
" clip-path="url(#p3406d1f423)" style="fill: #028391"/>
   </g>
   <g id="patch_38">
    <path d="M 182.742914 36.347009 
L 180.310498 36.347009 
L 179.926433 36.554395 
L 178.361721 36.554395 
L 180.596285 35.415969 
L 182.451955 35.415969 
L 184.686519 36.554395 
L 183.1231 36.554395 
L 182.742914 36.347009 
z
M 180.698443 36.13572 
L 182.35109 36.13572 
L 181.52606 35.682887 
L 180.698443 36.13572 
z
" clip-path="url(#p3406d1f423)" style="fill: #fead70"/>
   </g>
   <g id="patch_39">
    <path d="M 184.686519 35.226755 
Q 184.157461 35.320544 183.585376 35.367984 
Q 183.013292 35.415969 182.390214 35.415969 
Q 180.532135 35.415969 179.446928 35.060444 
Q 178.361721 34.704919 178.361721 34.096928 
Q 178.361721 33.486755 179.446928 33.131776 
Q 180.532135 32.776251 182.390214 32.776251 
Q 183.013292 32.776251 183.585376 32.824236 
Q 184.157461 32.871675 184.686519 32.965464 
L 184.686519 33.491663 
Q 184.15268 33.367338 183.634776 33.309538 
Q 183.116873 33.251738 182.544788 33.251738 
Q 181.518542 33.251738 180.930523 33.47694 
Q 180.344096 33.701597 180.344096 34.096928 
Q 180.344096 34.490622 180.930523 34.715825 
Q 181.518542 34.940481 182.544788 34.940481 
Q 183.116873 34.940481 183.634776 34.882681 
Q 184.15268 34.824336 184.686519 34.700011 
L 184.686519 35.226755 
z
" clip-path="url(#p3406d1f423)" style="fill: #f6dcac"/>
   </g>
   <g id="patch_40">
    <path d="M 178.361721 28.757734 
L 184.686519 28.757734 
L 184.686519 29.541457 
L 182.411063 29.541457 
L 182.411063 32.776251 
L 180.64159 32.776251 
L 180.64159 29.541457 
L 178.361721 29.541457 
L 178.361721 28.757734 
z
" clip-path="url(#p3406d1f423)" style="fill: #028391"/>
   </g>
   <g id="patch_41">
    <path d="M 185.019403 33.231887 
L 191.344201 33.231887 
L 191.344201 33.879868 
L 189.068745 33.879868 
L 189.068745 36.554395 
L 187.299272 36.554395 
L 187.299272 33.879868 
L 185.019403 33.879868 
L 185.019403 33.231887 
z
" clip-path="url(#p3406d1f423)" style="fill: #028391"/>
   </g>
   <g id="patch_42">
    <path d="M 191.344201 32.552083 
Q 190.815143 32.889046 190.243059 33.059487 
Q 189.670974 33.231887 189.047897 33.231887 
Q 187.189818 33.231887 186.10461 31.95456 
Q 185.019403 30.677234 185.019403 28.49285 
Q 185.019403 26.300629 186.10461 25.025262 
Q 187.189818 23.747936 189.047897 23.747936 
Q 189.670974 23.747936 190.243059 23.920336 
Q 190.815143 24.090777 191.344201 24.42774 
L 191.344201 26.318261 
Q 190.810362 25.871589 190.292459 25.663925 
Q 189.774555 25.456262 189.202471 25.456262 
Q 188.176225 25.456262 187.588205 26.265365 
Q 187.001779 27.07251 187.001779 28.49285 
Q 187.001779 29.907312 187.588205 30.716416 
Q 188.176225 31.523561 189.202471 31.523561 
Q 189.774555 31.523561 190.292459 31.315897 
Q 190.810362 31.106275 191.344201 30.659602 
L 191.344201 32.552083 
z
" clip-path="url(#p3406d1f423)" style="fill: #f6dcac"/>
   </g>
   <g id="patch_43">
    <path d="M 191.677086 17.271863 
L 198.001884 17.271863 
L 198.001884 21.032494 
L 195.726427 21.032494 
L 195.726427 36.554395 
L 193.956955 36.554395 
L 193.956955 21.032494 
L 191.677086 21.032494 
L 191.677086 17.271863 
z
" clip-path="url(#p3406d1f423)" style="fill: #028391"/>
   </g>
   <g id="patch_44">
    <path d="M 198.334768 28.869756 
L 204.659566 28.869756 
L 204.659566 30.368474 
L 202.38411 30.368474 
L 202.38411 36.554395 
L 200.614637 36.554395 
L 200.614637 30.368474 
L 198.334768 30.368474 
L 198.334768 28.869756 
z
" clip-path="url(#p3406d1f423)" style="fill: #028391"/>
   </g>
   <g id="patch_45">
    <path d="M 204.659566 28.238285 
Q 204.130508 28.55129 203.558423 28.709613 
Q 202.986339 28.869756 202.363261 28.869756 
Q 200.505183 28.869756 199.419975 27.683245 
Q 198.334768 26.496735 198.334768 24.467657 
Q 198.334768 22.431299 199.419975 21.246608 
Q 200.505183 20.060098 202.363261 20.060098 
Q 202.986339 20.060098 203.558423 20.220241 
Q 204.130508 20.378563 204.659566 20.691569 
L 204.659566 22.447677 
Q 204.125727 22.032763 203.607824 21.839864 
Q 203.08992 21.646965 202.517836 21.646965 
Q 201.49159 21.646965 200.90357 22.398543 
Q 200.317144 23.148301 200.317144 24.467657 
Q 200.317144 25.781553 200.90357 26.533131 
Q 201.49159 27.282889 202.517836 27.282889 
Q 203.08992 27.282889 203.607824 27.08999 
Q 204.125727 26.895271 204.659566 26.480357 
L 204.659566 28.238285 
z
" clip-path="url(#p3406d1f423)" style="fill: #f6dcac"/>
   </g>
   <g id="patch_46">
    <path d="M 211.317249 36.253875 
Q 210.78819 36.402836 210.216106 36.478182 
Q 209.644022 36.554395 209.020944 36.554395 
Q 207.162865 36.554395 206.077658 35.989728 
Q 204.99245 35.425062 204.99245 34.459413 
Q 204.99245 33.4903 206.077658 32.926499 
Q 207.162865 32.361833 209.020944 32.361833 
Q 209.644022 32.361833 210.216106 32.438045 
Q 210.78819 32.513392 211.317249 32.662353 
L 211.317249 33.498094 
Q 210.78341 33.300634 210.265506 33.208832 
Q 209.747602 33.117031 209.175518 33.117031 
Q 208.149272 33.117031 207.561252 33.474711 
Q 206.974826 33.831524 206.974826 34.459413 
Q 206.974826 35.084703 207.561252 35.442383 
Q 208.149272 35.799197 209.175518 35.799197 
Q 209.747602 35.799197 210.265506 35.707395 
Q 210.78341 35.614728 211.317249 35.417267 
L 211.317249 36.253875 
z
" clip-path="url(#p3406d1f423)" style="fill: #f6dcac"/>
   </g>
   <g id="patch_47">
    <path d="M 204.99245 13.259592 
L 211.317249 13.259592 
L 211.317249 16.985061 
L 209.041792 16.985061 
L 209.041792 32.361833 
L 207.27232 32.361833 
L 207.27232 16.985061 
L 204.99245 16.985061 
L 204.99245 13.259592 
z
" clip-path="url(#p3406d1f423)" style="fill: #028391"/>
   </g>
   <g id="patch_48">
    <path d="M 216.031326 36.541796 
L 213.59891 36.541796 
L 213.214845 36.554395 
L 211.650133 36.554395 
L 213.884697 36.485235 
L 215.740367 36.485235 
L 217.974931 36.554395 
L 216.411512 36.554395 
L 216.031326 36.541796 
z
M 213.986855 36.52896 
L 215.639502 36.52896 
L 214.814472 36.50145 
L 213.986855 36.52896 
z
" clip-path="url(#p3406d1f423)" style="fill: #fead70"/>
   </g>
   <g id="patch_49">
    <path d="M 211.650133 21.849002 
L 217.974931 21.849002 
L 217.974931 24.703475 
L 215.699475 24.703475 
L 215.699475 36.485235 
L 213.930002 36.485235 
L 213.930002 24.703475 
L 211.650133 24.703475 
L 211.650133 21.849002 
z
" clip-path="url(#p3406d1f423)" style="fill: #028391"/>
   </g>
   <g id="patch_50">
    <path d="M 222.689009 36.532685 
L 220.256593 36.532685 
L 219.872527 36.554395 
L 218.307815 36.554395 
L 220.542379 36.435219 
L 222.39805 36.435219 
L 224.632613 36.554395 
L 223.069195 36.554395 
L 222.689009 36.532685 
z
M 220.644538 36.510566 
L 222.297184 36.510566 
L 221.472154 36.463162 
L 220.644538 36.510566 
z
" clip-path="url(#p3406d1f423)" style="fill: #fead70"/>
   </g>
   <g id="patch_51">
    <path d="M 218.307815 31.213445 
L 224.632613 31.213445 
L 224.632613 32.231837 
L 222.357157 32.231837 
L 222.357157 36.435219 
L 220.587684 36.435219 
L 220.587684 32.231837 
L 218.307815 32.231837 
L 218.307815 31.213445 
z
" clip-path="url(#p3406d1f423)" style="fill: #028391"/>
   </g>
   <g id="patch_52">
    <path d="M 231.290296 36.260064 
Q 230.761237 36.405957 230.189153 36.479752 
Q 229.617069 36.554395 228.993991 36.554395 
Q 227.135912 36.554395 226.050705 36.001358 
Q 224.965498 35.448321 224.965498 34.50256 
Q 224.965498 33.553406 226.050705 33.001217 
Q 227.135912 32.44818 228.993991 32.44818 
Q 229.617069 32.44818 230.189153 32.522823 
Q 230.761237 32.596618 231.290296 32.742511 
L 231.290296 33.56104 
Q 230.756457 33.367647 230.238553 33.277736 
Q 229.72065 33.187825 229.148565 33.187825 
Q 228.122319 33.187825 227.5343 33.538138 
Q 226.947873 33.887603 226.947873 34.50256 
Q 226.947873 35.114972 227.5343 35.465285 
Q 228.122319 35.81475 229.148565 35.81475 
Q 229.72065 35.81475 230.238553 35.72484 
Q 230.756457 35.63408 231.290296 35.440687 
L 231.290296 36.260064 
z
" clip-path="url(#p3406d1f423)" style="fill: #f6dcac"/>
   </g>
   <g id="patch_53">
    <path d="M 224.965498 25.76817 
L 231.290296 25.76817 
L 231.290296 27.070958 
L 229.014839 27.070958 
L 229.014839 32.44818 
L 227.245367 32.44818 
L 227.245367 27.070958 
L 224.965498 27.070958 
L 224.965498 25.76817 
z
" clip-path="url(#p3406d1f423)" style="fill: #028391"/>
   </g>
   <g id="patch_54">
    <path d="M 231.62318 36.512148 
L 237.947978 36.512148 
L 237.947978 36.520387 
L 235.672522 36.520387 
L 235.672522 36.554395 
L 233.903049 36.554395 
L 233.903049 36.520387 
L 231.62318 36.520387 
L 231.62318 36.512148 
z
" clip-path="url(#p3406d1f423)" style="fill: #028391"/>
   </g>
   <g id="patch_55">
    <path d="M 237.947978 36.497265 
Q 237.310112 36.504706 236.624051 36.508444 
Q 235.937991 36.512148 235.206571 36.512148 
Q 233.553789 36.512148 232.588484 36.489994 
Q 231.62318 36.46784 231.62318 36.429954 
Q 231.62318 36.391627 232.605494 36.369643 
Q 233.589226 36.347659 235.300125 36.347659 
Q 235.959253 36.347659 236.5631 36.350649 
Q 237.168364 36.353605 237.704172 36.359449 
L 237.704172 36.392238 
Q 237.151354 36.384729 236.604207 36.381025 
Q 236.057059 36.377288 235.507077 36.377288 
Q 234.489326 36.377288 233.937926 36.390947 
Q 233.386526 36.404572 233.386526 36.429954 
Q 233.386526 36.455098 233.918081 36.468825 
Q 234.449636 36.482519 235.427698 36.482519 
Q 235.694184 36.482519 235.922399 36.481737 
Q 236.150613 36.480922 236.33205 36.479223 
L 236.33205 36.448438 
L 235.290202 36.448438 
L 235.290202 36.421018 
L 237.947978 36.421018 
L 237.947978 36.497265 
z
" clip-path="url(#p3406d1f423)" style="fill: #01204e"/>
   </g>
   <g id="patch_56">
    <path d="M 236.004373 36.036283 
L 233.571958 36.036283 
L 233.187892 36.347659 
L 231.62318 36.347659 
L 233.857744 34.638387 
L 235.713414 34.638387 
L 237.947978 36.347659 
L 236.38456 36.347659 
L 236.004373 36.036283 
z
M 233.959903 35.719045 
L 235.612549 35.719045 
L 234.787519 35.039147 
L 233.959903 35.719045 
z
" clip-path="url(#p3406d1f423)" style="fill: #fead70"/>
   </g>
   <g id="patch_57">
    <path d="M 244.605661 36.182372 
Q 244.076602 36.366775 243.504518 36.460049 
Q 242.932434 36.554395 242.309356 36.554395 
Q 240.451277 36.554395 239.36607 35.855377 
Q 238.280862 35.15636 238.280862 33.960954 
Q 238.280862 32.76126 239.36607 32.063314 
Q 240.451277 31.364296 242.309356 31.364296 
Q 242.932434 31.364296 243.504518 31.458642 
Q 244.076602 31.551916 244.605661 31.73632 
L 244.605661 32.770909 
Q 244.071822 32.526467 243.553918 32.412823 
Q 243.036014 32.299179 242.46393 32.299179 
Q 241.437684 32.299179 240.849664 32.741962 
Q 240.263238 33.183672 240.263238 33.960954 
Q 240.263238 34.735019 240.849664 35.177802 
Q 241.437684 35.619513 242.46393 35.619513 
Q 243.036014 35.619513 243.553918 35.505869 
Q 244.071822 35.391153 244.605661 35.146711 
L 244.605661 36.182372 
z
" clip-path="url(#p3406d1f423)" style="fill: #f6dcac"/>
   </g>
   <g id="patch_58">
    <path d="M 244.938545 32.686692 
L 251.263343 32.686692 
L 251.263343 33.441002 
L 248.987887 33.441002 
L 248.987887 36.554395 
L 247.218414 36.554395 
L 247.218414 33.441002 
L 244.938545 33.441002 
L 244.938545 32.686692 
z
" clip-path="url(#p3406d1f423)" style="fill: #028391"/>
   </g>
   <g id="patch_59">
    <path d="M 257.921025 36.392973 
Q 257.283159 36.473684 256.597099 36.514224 
Q 255.911038 36.554395 255.179618 36.554395 
Q 253.526836 36.554395 252.561531 36.314105 
Q 251.596227 36.073815 251.596227 35.662889 
Q 251.596227 35.247172 252.578541 35.008725 
Q 253.562273 34.770277 255.273172 34.770277 
Q 255.9323 34.770277 256.536147 34.802709 
Q 257.141411 34.834773 257.677219 34.898162 
L 257.677219 35.253806 
Q 257.124401 35.172358 256.577254 35.132187 
Q 256.030106 35.091647 255.480124 35.091647 
Q 254.462373 35.091647 253.910973 35.239801 
Q 253.359573 35.387587 253.359573 35.662889 
Q 253.359573 35.935611 253.891128 36.084502 
Q 254.422683 36.233025 255.400745 36.233025 
Q 255.667231 36.233025 255.895446 36.224549 
Q 256.12366 36.215704 256.305098 36.197277 
L 256.305098 35.863377 
L 255.263249 35.863377 
L 255.263249 35.565962 
L 257.921025 35.565962 
L 257.921025 36.392973 
z
" clip-path="url(#p3406d1f423)" style="fill: #01204e"/>
   </g>
   <g id="patch_60">
    <path d="M 251.596227 31.318045 
L 257.921025 31.318045 
L 257.921025 31.991327 
L 255.645569 31.991327 
L 255.645569 34.770277 
L 253.876096 34.770277 
L 253.876096 31.991327 
L 251.596227 31.991327 
L 251.596227 31.318045 
z
" clip-path="url(#p3406d1f423)" style="fill: #028391"/>
   </g>
   <g id="patch_61">
    <path d="M 264.578708 36.515247 
Q 263.940842 36.534821 263.254781 36.544653 
Q 262.56872 36.554395 261.8373 36.554395 
Q 260.184518 36.554395 259.219214 36.49612 
Q 258.25391 36.437845 258.25391 36.338188 
Q 258.25391 36.237369 259.236224 36.179541 
Q 260.219955 36.121713 261.930854 36.121713 
Q 262.589983 36.121713 263.193829 36.129579 
Q 263.799094 36.137355 264.334901 36.152728 
L 264.334901 36.238978 
Q 263.782084 36.219225 263.234936 36.209483 
Q 262.687789 36.199651 262.137806 36.199651 
Q 261.120055 36.199651 260.568655 36.235582 
Q 260.017255 36.271422 260.017255 36.338188 
Q 260.017255 36.404328 260.548811 36.440437 
Q 261.080366 36.476457 262.058427 36.476457 
Q 262.324914 36.476457 262.553128 36.474401 
Q 262.781343 36.472256 262.96278 36.467787 
L 262.96278 36.38681 
L 261.920932 36.38681 
L 261.920932 36.314682 
L 264.578708 36.314682 
L 264.578708 36.515247 
z
" clip-path="url(#p3406d1f423)" style="fill: #01204e"/>
   </g>
   <g id="patch_62">
    <path d="M 262.635103 35.861693 
L 260.202687 35.861693 
L 259.818622 36.121713 
L 258.25391 36.121713 
L 260.488473 34.694356 
L 262.344144 34.694356 
L 264.578708 36.121713 
L 263.015289 36.121713 
L 262.635103 35.861693 
z
M 260.590632 35.596779 
L 262.243278 35.596779 
L 261.418248 35.029017 
L 260.590632 35.596779 
z
" clip-path="url(#p3406d1f423)" style="fill: #fead70"/>
   </g>
   <g id="patch_63">
    <path d="M 258.25391 30.243874 
L 264.578708 30.243874 
L 264.578708 31.111842 
L 262.303251 31.111842 
L 262.303251 34.694356 
L 260.533779 34.694356 
L 260.533779 31.111842 
L 258.25391 31.111842 
L 258.25391 30.243874 
z
" clip-path="url(#p3406d1f423)" style="fill: #028391"/>
   </g>
   <g id="patch_64">
    <path d="M 271.23639 36.499397 
Q 270.598524 36.526896 269.912463 36.540708 
Q 269.226403 36.554395 268.494983 36.554395 
Q 266.842201 36.554395 265.876896 36.472526 
Q 264.911592 36.390657 264.911592 36.250651 
Q 264.911592 36.109013 265.893906 36.027772 
Q 266.877638 35.946531 268.588537 35.946531 
Q 269.247665 35.946531 269.851512 35.957581 
Q 270.456776 35.968505 270.992584 35.990102 
L 270.992584 36.111273 
Q 270.439766 36.083523 269.892619 36.069837 
Q 269.345471 36.056024 268.795489 36.056024 
Q 267.777738 36.056024 267.226338 36.106502 
Q 266.674938 36.156854 266.674938 36.250651 
Q 266.674938 36.34357 267.206493 36.394299 
Q 267.738048 36.444902 268.71611 36.444902 
Q 268.982596 36.444902 269.210811 36.442014 
Q 269.439025 36.439 269.620462 36.432722 
L 269.620462 36.318959 
L 268.578614 36.318959 
L 268.578614 36.217627 
L 271.23639 36.217627 
L 271.23639 36.499397 
z
" clip-path="url(#p3406d1f423)" style="fill: #01204e"/>
   </g>
   <g id="patch_65">
    <path d="M 269.292785 35.362821 
L 266.86037 35.362821 
L 266.476304 35.946531 
L 264.911592 35.946531 
L 267.146156 32.742306 
L 269.001827 32.742306 
L 271.23639 35.946531 
L 269.672972 35.946531 
L 269.292785 35.362821 
z
M 267.248315 34.768123 
L 268.900961 34.768123 
L 268.075931 33.493575 
L 267.248315 34.768123 
z
" clip-path="url(#p3406d1f423)" style="fill: #fead70"/>
   </g>
   <g id="patch_66">
    <path d="M 271.569274 36.014833 
L 277.894073 36.014833 
L 277.894073 36.120062 
L 275.618616 36.120062 
L 275.618616 36.554395 
L 273.849144 36.554395 
L 273.849144 36.120062 
L 271.569274 36.120062 
L 271.569274 36.014833 
z
" clip-path="url(#p3406d1f423)" style="fill: #028391"/>
   </g>
   <g id="patch_67">
    <path d="M 275.950468 35.239508 
L 273.518052 35.239508 
L 273.133986 36.014833 
L 271.569274 36.014833 
L 273.803838 31.758754 
L 275.659509 31.758754 
L 277.894073 36.014833 
L 276.330654 36.014833 
L 275.950468 35.239508 
z
M 273.905997 34.449588 
L 275.558643 34.449588 
L 274.733613 32.756643 
L 273.905997 34.449588 
z
" clip-path="url(#p3406d1f423)" style="fill: #fead70"/>
   </g>
   <g id="patch_68">
    <path d="M 284.551755 36.539788 
Q 283.913889 36.547092 283.227828 36.55076 
Q 282.541768 36.554395 281.810348 36.554395 
Q 280.157565 36.554395 279.192261 36.532652 
Q 278.226957 36.510908 278.226957 36.473724 
Q 278.226957 36.436107 279.209271 36.41453 
Q 280.193002 36.392953 281.903901 36.392953 
Q 282.56303 36.392953 283.166877 36.395888 
Q 283.772141 36.398789 284.307948 36.404525 
L 284.307948 36.436707 
Q 283.755131 36.429337 283.207984 36.425702 
Q 282.660836 36.422033 282.110854 36.422033 
Q 281.093103 36.422033 280.541703 36.43544 
Q 279.990303 36.448812 279.990303 36.473724 
Q 279.990303 36.498402 280.521858 36.511875 
Q 281.053413 36.525315 282.031475 36.525315 
Q 282.297961 36.525315 282.526175 36.524548 
Q 282.75439 36.523747 282.935827 36.52208 
L 282.935827 36.491866 
L 281.893979 36.491866 
L 281.893979 36.464953 
L 284.551755 36.464953 
L 284.551755 36.539788 
z
" clip-path="url(#p3406d1f423)" style="fill: #01204e"/>
   </g>
   <g id="patch_69">
    <path d="M 282.60815 36.037185 
L 280.175734 36.037185 
L 279.791669 36.392953 
L 278.226957 36.392953 
L 280.461521 34.439995 
L 282.317191 34.439995 
L 284.551755 36.392953 
L 282.988336 36.392953 
L 282.60815 36.037185 
z
M 280.563679 35.67472 
L 282.216326 35.67472 
L 281.391296 34.89789 
L 280.563679 35.67472 
z
" clip-path="url(#p3406d1f423)" style="fill: #fead70"/>
   </g>
   <g id="patch_70">
    <path d="M 64.848236 37.977998 
Q 64.21037 37.869627 63.524309 37.815194 
Q 62.838248 37.761257 62.106828 37.761257 
Q 60.454046 37.761257 59.488742 38.083894 
Q 58.523438 38.406532 58.523438 38.958282 
Q 58.523438 39.516465 59.505752 39.836629 
Q 60.489483 40.156792 62.200382 40.156792 
Q 62.859511 40.156792 63.463357 40.113246 
Q 64.068621 40.070195 64.604429 39.985082 
L 64.604429 39.507558 
Q 64.051612 39.616919 63.504464 39.670856 
Q 62.957317 39.725289 62.407334 39.725289 
Q 61.389583 39.725289 60.838183 39.526362 
Q 60.286783 39.32793 60.286783 38.958282 
Q 60.286783 38.592098 60.818339 38.392182 
Q 61.349894 38.19276 62.327955 38.19276 
Q 62.594442 38.19276 62.822656 38.204141 
Q 63.05087 38.216017 63.232308 38.24076 
L 63.232308 38.689088 
L 62.19046 38.689088 
L 62.19046 39.088426 
L 64.848236 39.088426 
L 64.848236 37.977998 
z
" clip-path="url(#p3406d1f423)" style="fill: #01204e"/>
   </g>
   <g id="patch_71">
    <path d="M 58.523438 37.761257 
L 64.848236 37.761257 
L 64.848236 37.525885 
L 62.572779 37.525885 
L 62.572779 36.554395 
L 60.803307 36.554395 
L 60.803307 37.525885 
L 58.523438 37.525885 
L 58.523438 37.761257 
z
" clip-path="url(#p3406d1f423)" style="fill: #028391"/>
   </g>
   <g id="patch_72">
    <path d="M 69.562313 39.453279 
L 67.129897 39.453279 
L 66.745832 38.447025 
L 65.18112 38.447025 
L 67.415684 43.970766 
L 69.271354 43.970766 
L 71.505918 38.447025 
L 69.942499 38.447025 
L 69.562313 39.453279 
z
M 67.517843 40.478474 
L 69.170489 40.478474 
L 68.345459 42.675658 
L 67.517843 40.478474 
z
" clip-path="url(#p3406d1f423)" style="fill: #fead70"/>
   </g>
   <g id="patch_73">
    <path d="M 71.505918 36.690058 
Q 70.97686 36.622813 70.404775 36.588799 
Q 69.832691 36.554395 69.209613 36.554395 
Q 67.351534 36.554395 66.266327 36.8093 
Q 65.18112 37.064205 65.18112 37.500124 
Q 65.18112 37.937606 66.266327 38.19212 
Q 67.351534 38.447025 69.209613 38.447025 
Q 69.832691 38.447025 70.404775 38.412621 
Q 70.97686 38.378608 71.505918 38.311363 
L 71.505918 37.934088 
Q 70.972079 38.023226 70.454175 38.064668 
Q 69.936272 38.106109 69.364188 38.106109 
Q 68.337942 38.106109 67.749922 37.944644 
Q 67.163496 37.783569 67.163496 37.500124 
Q 67.163496 37.217852 67.749922 37.056386 
Q 68.337942 36.895311 69.364188 36.895311 
Q 69.936272 36.895311 70.454175 36.936752 
Q 70.972079 36.978585 71.505918 37.067724 
L 71.505918 36.690058 
z
" clip-path="url(#p3406d1f423)" style="fill: #f6dcac"/>
   </g>
   <g id="patch_74">
    <path d="M 78.163601 36.673746 
Q 77.634542 36.614586 77.062458 36.584663 
Q 76.490374 36.554395 75.867296 36.554395 
Q 74.009217 36.554395 72.92401 36.77865 
Q 71.838802 37.002905 71.838802 37.386409 
Q 71.838802 37.771289 72.92401 37.9952 
Q 74.009217 38.219455 75.867296 38.219455 
Q 76.490374 38.219455 77.062458 38.189188 
Q 77.634542 38.159264 78.163601 38.100105 
L 78.163601 37.768193 
Q 77.629761 37.846614 77.111858 37.883072 
Q 76.593954 37.919531 76.02187 37.919531 
Q 74.995624 37.919531 74.407604 37.77748 
Q 73.821178 37.635773 73.821178 37.386409 
Q 73.821178 37.138078 74.407604 36.996026 
Q 74.995624 36.854319 76.02187 36.854319 
Q 76.593954 36.854319 77.111858 36.890778 
Q 77.629761 36.92758 78.163601 37.006001 
L 78.163601 36.673746 
z
" clip-path="url(#p3406d1f423)" style="fill: #f6dcac"/>
   </g>
   <g id="patch_75">
    <path d="M 78.163601 38.455218 
Q 77.525734 38.337337 76.839674 38.278127 
Q 76.153613 38.219455 75.422193 38.219455 
Q 73.769411 38.219455 72.804107 38.570408 
Q 71.838802 38.921361 71.838802 39.521534 
Q 71.838802 40.128705 72.821116 40.476967 
Q 73.804848 40.825228 75.515747 40.825228 
Q 76.174875 40.825228 76.778722 40.77786 
Q 77.383986 40.731031 77.919794 40.638448 
L 77.919794 40.119016 
Q 77.366977 40.237974 76.819829 40.296646 
Q 76.272682 40.355855 75.722699 40.355855 
Q 74.704948 40.355855 74.153548 40.13947 
Q 73.602148 39.923623 73.602148 39.521534 
Q 73.602148 39.123213 74.133703 38.905752 
Q 74.665259 38.688828 75.64332 38.688828 
Q 75.909806 38.688828 76.138021 38.701208 
Q 76.366235 38.714127 76.547673 38.74104 
L 76.547673 39.228715 
L 75.505825 39.228715 
L 75.505825 39.6631 
L 78.163601 39.6631 
L 78.163601 38.455218 
z
" clip-path="url(#p3406d1f423)" style="fill: #01204e"/>
   </g>
   <g id="patch_76">
    <path d="M 84.821283 36.986124 
Q 84.292225 36.772126 83.72014 36.663883 
Q 83.148056 36.554395 82.524978 36.554395 
Q 80.666899 36.554395 79.581692 37.365598 
Q 78.496485 38.176801 78.496485 39.564057 
Q 78.496485 40.956291 79.581692 41.76625 
Q 80.666899 42.577452 82.524978 42.577452 
Q 83.148056 42.577452 83.72014 42.467965 
Q 84.292225 42.359722 84.821283 42.145723 
L 84.821283 40.945093 
Q 84.287444 41.228765 83.76954 41.360648 
Q 83.251637 41.492531 82.679552 41.492531 
Q 81.653306 41.492531 81.065287 40.978686 
Q 80.47886 40.466085 80.47886 39.564057 
Q 80.47886 38.665762 81.065287 38.151917 
Q 81.653306 37.639317 82.679552 37.639317 
Q 83.251637 37.639317 83.76954 37.771199 
Q 84.287444 37.904326 84.821283 38.187998 
L 84.821283 36.986124 
z
" clip-path="url(#p3406d1f423)" style="fill: #f6dcac"/>
   </g>
   <g id="patch_77">
    <path d="M 89.53536 37.004658 
L 87.102945 37.004658 
L 86.718879 36.554395 
L 85.154167 36.554395 
L 87.388731 39.026074 
L 89.244402 39.026074 
L 91.478965 36.554395 
L 89.915547 36.554395 
L 89.53536 37.004658 
z
M 87.49089 37.463396 
L 89.143536 37.463396 
L 88.318506 38.446559 
L 87.49089 37.463396 
z
" clip-path="url(#p3406d1f423)" style="fill: #fead70"/>
   </g>
   <g id="patch_78">
    <path d="M 91.478965 39.370361 
Q 90.841099 39.198217 90.155039 39.111752 
Q 89.468978 39.026074 88.737558 39.026074 
Q 87.084776 39.026074 86.119471 39.538574 
Q 85.154167 40.051075 85.154167 40.927515 
Q 85.154167 41.814172 86.136481 42.322743 
Q 87.120213 42.831314 88.831112 42.831314 
Q 89.49024 42.831314 90.094087 42.762142 
Q 90.699351 42.693756 91.235159 42.558556 
L 91.235159 41.800024 
Q 90.682341 41.973739 90.135194 42.059418 
Q 89.588046 42.145883 89.038064 42.145883 
Q 88.020313 42.145883 87.468913 41.829893 
Q 86.917513 41.51469 86.917513 40.927515 
Q 86.917513 40.345842 87.449068 40.02828 
Q 87.980623 39.711504 88.958685 39.711504 
Q 89.225171 39.711504 89.453386 39.729583 
Q 89.6816 39.748448 89.863038 39.78775 
L 89.863038 40.499907 
L 88.821189 40.499907 
L 88.821189 41.134244 
L 91.478965 41.134244 
L 91.478965 39.370361 
z
" clip-path="url(#p3406d1f423)" style="fill: #01204e"/>
   </g>
   <g id="patch_79">
    <path d="M 96.193043 38.064995 
L 93.760627 38.064995 
L 93.376561 37.063761 
L 91.81185 37.063761 
L 94.046413 42.559948 
L 95.902084 42.559948 
L 98.136648 37.063761 
L 96.573229 37.063761 
L 96.193043 38.064995 
z
M 94.148572 39.085076 
L 95.801218 39.085076 
L 94.976188 41.271301 
L 94.148572 39.085076 
z
" clip-path="url(#p3406d1f423)" style="fill: #fead70"/>
   </g>
   <g id="patch_80">
    <path d="M 98.136648 36.600481 
Q 97.498782 36.577438 96.812721 36.565864 
Q 96.12666 36.554395 95.39524 36.554395 
Q 93.742458 36.554395 92.777154 36.622998 
Q 91.81185 36.691601 91.81185 36.80892 
Q 91.81185 36.927607 92.794164 36.995684 
Q 93.777895 37.063761 95.488794 37.063761 
Q 96.147923 37.063761 96.751769 37.054502 
Q 97.357033 37.045348 97.892841 37.02725 
L 97.892841 36.925713 
Q 97.340024 36.948967 96.792876 36.960436 
Q 96.245729 36.97201 95.695746 36.97201 
Q 94.677995 36.97201 94.126595 36.929712 
Q 93.575195 36.887519 93.575195 36.80892 
Q 93.575195 36.731058 94.106751 36.688549 
Q 94.638306 36.646146 95.616367 36.646146 
Q 95.882854 36.646146 96.111068 36.648566 
Q 96.339282 36.651091 96.52072 36.656352 
L 96.52072 36.751681 
L 95.478872 36.751681 
L 95.478872 36.836593 
L 98.136648 36.836593 
L 98.136648 36.600481 
z
" clip-path="url(#p3406d1f423)" style="fill: #01204e"/>
   </g>
   <g id="patch_81">
    <path d="M 102.850725 42.779575 
L 100.418309 42.779575 
L 100.034244 41.568709 
L 98.469532 41.568709 
L 100.704096 48.215651 
L 102.559766 48.215651 
L 104.79433 41.568709 
L 103.230911 41.568709 
L 102.850725 42.779575 
z
M 100.806255 44.013234 
L 102.458901 44.013234 
L 101.633871 46.657195 
L 100.806255 44.013234 
z
" clip-path="url(#p3406d1f423)" style="fill: #fead70"/>
   </g>
   <g id="patch_82">
    <path d="M 104.79433 37.008076 
Q 104.156464 36.781235 103.470403 36.667297 
Q 102.784343 36.554395 102.052923 36.554395 
Q 100.40014 36.554395 99.434836 37.229737 
Q 98.469532 37.90508 98.469532 39.059998 
Q 98.469532 40.228382 99.451846 40.898545 
Q 100.435577 41.568709 102.146477 41.568709 
Q 102.805605 41.568709 103.409452 41.477558 
Q 104.014716 41.387443 104.550524 41.209286 
L 104.550524 40.209737 
Q 103.997706 40.438649 103.450559 40.551552 
Q 102.903411 40.66549 102.353429 40.66549 
Q 101.335678 40.66549 100.784278 40.249098 
Q 100.232878 39.833742 100.232878 39.059998 
Q 100.232878 38.293505 100.764433 37.875042 
Q 101.295988 37.457614 102.27405 37.457614 
Q 102.540536 37.457614 102.76875 37.481437 
Q 102.996965 37.506296 103.178402 37.558086 
L 103.178402 38.496522 
L 102.136554 38.496522 
L 102.136554 39.332414 
L 104.79433 39.332414 
L 104.79433 37.008076 
z
" clip-path="url(#p3406d1f423)" style="fill: #01204e"/>
   </g>
   <g id="patch_83">
    <path d="M 109.508408 38.71508 
L 107.075992 38.71508 
L 106.691926 37.837487 
L 105.127214 37.837487 
L 107.361778 42.654957 
L 109.217449 42.654957 
L 111.452013 37.837487 
L 109.888594 37.837487 
L 109.508408 38.71508 
z
M 107.463937 39.609192 
L 109.116583 39.609192 
L 108.291553 41.525443 
L 107.463937 39.609192 
z
" clip-path="url(#p3406d1f423)" style="fill: #fead70"/>
   </g>
   <g id="patch_84">
    <path d="M 111.452013 36.593132 
Q 110.922954 36.573931 110.35087 36.564219 
Q 109.778786 36.554395 109.155708 36.554395 
Q 107.297629 36.554395 106.212422 36.627181 
Q 105.127214 36.699967 105.127214 36.82444 
Q 105.127214 36.949359 106.212422 37.022033 
Q 107.297629 37.094819 109.155708 37.094819 
Q 109.778786 37.094819 110.35087 37.084995 
Q 110.922954 37.075283 111.452013 37.056082 
L 111.452013 36.948354 
Q 110.918173 36.973807 110.40027 36.98564 
Q 109.882366 36.997474 109.310282 36.997474 
Q 108.284036 36.997474 107.696016 36.951368 
Q 107.10959 36.905375 107.10959 36.82444 
Q 107.10959 36.743839 107.696016 36.697734 
Q 108.284036 36.651741 109.310282 36.651741 
Q 109.882366 36.651741 110.40027 36.663574 
Q 110.918173 36.675519 111.452013 36.700971 
L 111.452013 36.593132 
z
" clip-path="url(#p3406d1f423)" style="fill: #f6dcac"/>
   </g>
   <g id="patch_85">
    <path d="M 105.127214 37.837487 
L 111.452013 37.837487 
L 111.452013 37.692646 
L 109.176556 37.692646 
L 109.176556 37.094819 
L 107.407083 37.094819 
L 107.407083 37.692646 
L 105.127214 37.692646 
L 105.127214 37.837487 
z
" clip-path="url(#p3406d1f423)" style="fill: #028391"/>
   </g>
   <g id="patch_86">
    <path d="M 116.16609 38.655365 
L 113.733674 38.655365 
L 113.349609 36.554395 
L 111.784897 36.554395 
L 114.019461 48.087487 
L 115.875131 48.087487 
L 118.109695 36.554395 
L 116.546276 36.554395 
L 116.16609 38.655365 
z
M 114.121619 40.795883 
L 115.774266 40.795883 
L 114.949236 45.383414 
L 114.121619 40.795883 
z
" clip-path="url(#p3406d1f423)" style="fill: #fead70"/>
   </g>
   <g id="patch_87">
    <path d="M 118.109695 49.699909 
Q 117.471829 48.893698 116.785768 48.488751 
Q 116.099708 48.087487 115.368288 48.087487 
Q 113.715505 48.087487 112.750201 50.487713 
Q 111.784897 52.88794 111.784897 56.992621 
Q 111.784897 61.14516 112.767211 63.52698 
Q 113.750942 65.9088 115.461841 65.9088 
Q 116.12097 65.9088 116.724816 65.584843 
Q 117.330081 65.264567 117.865888 64.631379 
L 117.865888 61.078896 
Q 117.313071 61.89247 116.765923 62.293735 
Q 116.218776 62.698681 115.668793 62.698681 
Q 114.651042 62.698681 114.099642 61.218787 
Q 113.548243 59.742574 113.548243 56.992621 
Q 113.548243 54.268438 114.079798 52.781181 
Q 114.611353 51.297605 115.589415 51.297605 
Q 115.855901 51.297605 116.084115 51.382276 
Q 116.31233 51.470628 116.493767 51.654694 
L 116.493767 54.989978 
L 115.451919 54.989978 
L 115.451919 57.960811 
L 118.109695 57.960811 
L 118.109695 49.699909 
z
" clip-path="url(#p3406d1f423)" style="fill: #01204e"/>
   </g>
   <g id="patch_88">
    <path d="M 122.823772 40.647857 
L 120.391357 40.647857 
L 120.007291 37.339993 
L 118.442579 37.339993 
L 120.677143 55.498221 
L 122.532814 55.498221 
L 124.767377 37.339993 
L 123.203959 37.339993 
L 122.823772 40.647857 
z
M 120.779302 44.017987 
L 122.431948 44.017987 
L 121.606918 51.240805 
L 120.779302 44.017987 
z
" clip-path="url(#p3406d1f423)" style="fill: #fead70"/>
   </g>
   <g id="patch_89">
    <path d="M 124.767377 36.610706 
Q 124.238319 36.582794 123.666235 36.568676 
Q 123.09415 36.554395 122.471072 36.554395 
Q 120.612994 36.554395 119.527786 36.660202 
Q 118.442579 36.766008 118.442579 36.94695 
Q 118.442579 37.128542 119.527786 37.234186 
Q 120.612994 37.339993 122.471072 37.339993 
Q 123.09415 37.339993 123.666235 37.325712 
Q 124.238319 37.311594 124.767377 37.283682 
L 124.767377 37.127081 
Q 124.233538 37.164081 123.715635 37.181283 
Q 123.197731 37.198485 122.625647 37.198485 
Q 121.599401 37.198485 121.011381 37.131463 
Q 120.424955 37.064604 120.424955 36.94695 
Q 120.424955 36.829784 121.011381 36.762763 
Q 121.599401 36.695903 122.625647 36.695903 
Q 123.197731 36.695903 123.715635 36.713105 
Q 124.233538 36.730469 124.767377 36.767469 
L 124.767377 36.610706 
z
" clip-path="url(#p3406d1f423)" style="fill: #f6dcac"/>
   </g>
   <g id="patch_90">
    <path d="M 131.42506 36.795202 
Q 130.896001 36.67584 130.323917 36.615464 
Q 129.751833 36.554395 129.128755 36.554395 
Q 127.270676 36.554395 126.185469 37.006863 
Q 125.100262 37.459331 125.100262 38.233106 
Q 125.100262 39.009658 126.185469 39.461431 
Q 127.270676 39.913899 129.128755 39.913899 
Q 129.751833 39.913899 130.323917 39.85283 
Q 130.896001 39.792455 131.42506 39.673092 
L 131.42506 39.003412 
Q 130.891221 39.161637 130.373317 39.235197 
Q 129.855413 39.308758 129.283329 39.308758 
Q 128.257083 39.308758 127.669063 39.022149 
Q 127.082637 38.736234 127.082637 38.233106 
Q 127.082637 37.73206 127.669063 37.445451 
Q 128.257083 37.159536 129.283329 37.159536 
Q 129.855413 37.159536 130.373317 37.233097 
Q 130.891221 37.307351 131.42506 37.465576 
L 131.42506 36.795202 
z
" clip-path="url(#p3406d1f423)" style="fill: #f6dcac"/>
   </g>
   <g id="patch_91">
    <path d="M 131.42506 40.72425 
Q 130.787194 40.319075 130.101133 40.115562 
Q 129.415072 39.913899 128.683652 39.913899 
Q 127.03087 39.913899 126.065566 41.120175 
Q 125.100262 42.326451 125.100262 44.38933 
Q 125.100262 46.476261 126.082576 47.673287 
Q 127.066307 48.870312 128.777206 48.870312 
Q 129.436335 48.870312 130.040181 48.707502 
Q 130.645446 48.546541 131.181253 48.228321 
L 131.181253 46.442959 
Q 130.628436 46.851835 130.081288 47.053498 
Q 129.534141 47.25701 128.984158 47.25701 
Q 127.966407 47.25701 127.415007 46.513264 
Q 126.863607 45.771367 126.863607 44.38933 
Q 126.863607 43.020244 127.395163 42.272797 
Q 127.926718 41.527201 128.904779 41.527201 
Q 129.171266 41.527201 129.39948 41.569753 
Q 129.627694 41.614156 129.809132 41.706662 
L 129.809132 43.382867 
L 128.767284 43.382867 
L 128.767284 44.875911 
L 131.42506 44.875911 
L 131.42506 40.72425 
z
" clip-path="url(#p3406d1f423)" style="fill: #01204e"/>
   </g>
   <g id="patch_92">
    <path d="M 136.139137 39.308947 
L 133.706721 39.308947 
L 133.322656 38.879593 
L 131.757944 38.879593 
L 133.992508 41.236493 
L 135.848178 41.236493 
L 138.082742 38.879593 
L 136.519323 38.879593 
L 136.139137 39.308947 
z
M 134.094667 39.746382 
L 135.747313 39.746382 
L 134.922283 40.683889 
L 134.094667 39.746382 
z
" clip-path="url(#p3406d1f423)" style="fill: #fead70"/>
   </g>
   <g id="patch_93">
    <path d="M 138.082742 36.764772 
Q 137.444876 36.659584 136.758815 36.606749 
Q 136.072755 36.554395 135.341335 36.554395 
Q 133.688552 36.554395 132.723248 36.867559 
Q 131.757944 37.180724 131.757944 37.716273 
Q 131.757944 38.258067 132.740258 38.56883 
Q 133.723989 38.879593 135.434889 38.879593 
Q 136.094017 38.879593 136.697864 38.837325 
Q 137.303128 38.795538 137.838936 38.712924 
L 137.838936 38.249421 
Q 137.286118 38.355571 136.738971 38.407925 
Q 136.191823 38.460759 135.641841 38.460759 
Q 134.62409 38.460759 134.07269 38.267673 
Q 133.52129 38.075068 133.52129 37.716273 
Q 133.52129 37.360841 134.052845 37.166795 
Q 134.5844 36.973228 135.562462 36.973228 
Q 135.828948 36.973228 136.057162 36.984276 
Q 136.285377 36.995803 136.466814 37.019819 
L 136.466814 37.454983 
L 135.424966 37.454983 
L 135.424966 37.842596 
L 138.082742 37.842596 
L 138.082742 36.764772 
z
" clip-path="url(#p3406d1f423)" style="fill: #01204e"/>
   </g>
   <g id="patch_94">
    <path d="M 142.79682 37.679551 
L 140.364404 37.679551 
L 139.980338 37.017574 
L 138.415626 37.017574 
L 140.65019 40.651438 
L 142.505861 40.651438 
L 144.740425 37.017574 
L 143.177006 37.017574 
L 142.79682 37.679551 
z
M 140.752349 38.353989 
L 142.404995 38.353989 
L 141.579965 39.799435 
L 140.752349 38.353989 
z
" clip-path="url(#p3406d1f423)" style="fill: #fead70"/>
   </g>
   <g id="patch_95">
    <path d="M 144.740425 36.596302 
Q 144.102558 36.575349 143.416498 36.564824 
Q 142.730437 36.554395 141.999017 36.554395 
Q 140.346235 36.554395 139.380931 36.616777 
Q 138.415626 36.67916 138.415626 36.785841 
Q 138.415626 36.893766 139.39794 36.95567 
Q 140.381672 37.017574 142.092571 37.017574 
Q 142.751699 37.017574 143.355546 37.009155 
Q 143.96081 37.000831 144.496618 36.984374 
L 144.496618 36.892044 
Q 143.943801 36.913189 143.396653 36.923618 
Q 142.849506 36.934143 142.299523 36.934143 
Q 141.281772 36.934143 140.730372 36.89568 
Q 140.178972 36.857313 140.178972 36.785841 
Q 140.178972 36.715039 140.710527 36.676385 
Q 141.242083 36.637827 142.220144 36.637827 
Q 142.486631 36.637827 142.714845 36.640027 
Q 142.943059 36.642323 143.124497 36.647107 
L 143.124497 36.733792 
L 142.082649 36.733792 
L 142.082649 36.811005 
L 144.740425 36.811005 
L 144.740425 36.596302 
z
" clip-path="url(#p3406d1f423)" style="fill: #01204e"/>
   </g>
   <g id="patch_96">
    <path d="M 151.398107 37.040661 
Q 150.869049 36.79963 150.296964 36.677713 
Q 149.72488 36.554395 149.101802 36.554395 
Q 147.243723 36.554395 146.158516 37.468071 
Q 145.073309 38.381747 145.073309 39.944245 
Q 145.073309 41.512349 146.158516 42.424624 
Q 147.243723 43.3383 149.101802 43.3383 
Q 149.72488 43.3383 150.296964 43.214982 
Q 150.869049 43.093065 151.398107 42.852034 
L 151.398107 41.499737 
Q 150.864268 41.819243 150.346364 41.967786 
Q 149.828461 42.116328 149.256376 42.116328 
Q 148.23013 42.116328 147.642111 41.537573 
Q 147.055684 40.96022 147.055684 39.944245 
Q 147.055684 38.932475 147.642111 38.35372 
Q 148.23013 37.776367 149.256376 37.776367 
Q 149.828461 37.776367 150.346364 37.924909 
Q 150.864268 38.074853 151.398107 38.394359 
L 151.398107 37.040661 
z
" clip-path="url(#p3406d1f423)" style="fill: #f6dcac"/>
   </g>
   <g id="patch_97">
    <path d="M 151.398107 44.626771 
Q 150.760241 43.982535 150.07418 43.658947 
Q 149.38812 43.3383 148.6567 43.3383 
Q 147.003917 43.3383 146.038613 45.256298 
Q 145.073309 47.174296 145.073309 50.454308 
Q 145.073309 53.772562 146.055623 55.675851 
Q 147.039354 57.57914 148.750253 57.57914 
Q 149.409382 57.57914 150.013229 57.32027 
Q 150.618493 57.06434 151.1543 56.558365 
L 151.1543 53.719611 
Q 150.601483 54.36973 150.054335 54.690377 
Q 149.507188 55.013965 148.957205 55.013965 
Q 147.939454 55.013965 147.388055 53.831396 
Q 146.836655 52.651768 146.836655 50.454308 
Q 146.836655 48.277439 147.36821 47.088986 
Q 147.899765 45.903475 148.877827 45.903475 
Q 149.144313 45.903475 149.372527 45.971134 
Q 149.600742 46.041736 149.782179 46.188821 
L 149.782179 48.854015 
L 148.740331 48.854015 
L 148.740331 51.227979 
L 151.398107 51.227979 
L 151.398107 44.626771 
z
" clip-path="url(#p3406d1f423)" style="fill: #01204e"/>
   </g>
   <g id="patch_98">
    <path d="M 158.055789 36.746084 
Q 157.526731 36.651068 156.954647 36.603008 
Q 156.382562 36.554395 155.759484 36.554395 
Q 153.901406 36.554395 152.816198 36.914571 
Q 151.730991 37.274747 151.730991 37.890692 
Q 151.730991 38.508846 152.816198 38.86847 
Q 153.901406 39.228645 155.759484 39.228645 
Q 156.382562 39.228645 156.954647 39.180033 
Q 157.526731 39.131972 158.055789 39.036957 
L 158.055789 38.503874 
Q 157.52195 38.629825 157.004047 38.688382 
Q 156.486143 38.746938 155.914059 38.746938 
Q 154.887813 38.746938 154.299793 38.51879 
Q 153.713367 38.291194 153.713367 37.890692 
Q 153.713367 37.491847 154.299793 37.263698 
Q 154.887813 37.036103 155.914059 37.036103 
Q 156.486143 37.036103 157.004047 37.094659 
Q 157.52195 37.153767 158.055789 37.279718 
L 158.055789 36.746084 
z
" clip-path="url(#p3406d1f423)" style="fill: #f6dcac"/>
   </g>
   <g id="patch_99">
    <path d="M 158.055789 40.217901 
Q 157.417923 39.723273 156.731863 39.47483 
Q 156.045802 39.228645 155.314382 39.228645 
Q 153.6616 39.228645 152.696295 40.701236 
Q 151.730991 42.173826 151.730991 44.692137 
Q 151.730991 47.239809 152.713305 48.701107 
Q 153.697037 50.162404 155.407936 50.162404 
Q 156.067064 50.162404 156.670911 49.96365 
Q 157.276175 49.767154 157.811983 49.378679 
L 157.811983 47.199155 
Q 157.259165 47.6983 156.712018 47.944484 
Q 156.16487 48.192927 155.614888 48.192927 
Q 154.597137 48.192927 154.045737 47.28498 
Q 153.494337 46.379292 153.494337 44.692137 
Q 153.494337 43.020792 154.025892 42.108328 
Q 154.557447 41.198122 155.535509 41.198122 
Q 155.801995 41.198122 156.03021 41.250069 
Q 156.258424 41.304275 156.439862 41.417204 
L 156.439862 43.463472 
L 155.398013 43.463472 
L 155.398013 45.286142 
L 158.055789 45.286142 
L 158.055789 40.217901 
z
" clip-path="url(#p3406d1f423)" style="fill: #01204e"/>
   </g>
   <g id="patch_100">
    <path d="M 164.713472 36.866703 
Q 164.184413 36.711899 163.612329 36.633597 
Q 163.040245 36.554395 162.417167 36.554395 
Q 160.559088 36.554395 159.473881 37.14121 
Q 158.388674 37.728024 158.388674 38.73155 
Q 158.388674 39.738675 159.473881 40.32459 
Q 160.559088 40.911404 162.417167 40.911404 
Q 163.040245 40.911404 163.612329 40.832202 
Q 164.184413 40.7539 164.713472 40.599097 
L 164.713472 39.730575 
Q 164.179633 39.93578 163.661729 40.031182 
Q 163.143825 40.126585 162.571741 40.126585 
Q 161.545495 40.126585 160.957475 39.754875 
Q 160.371049 39.384066 160.371049 38.73155 
Q 160.371049 38.081733 160.957475 37.710024 
Q 161.545495 37.339215 162.571741 37.339215 
Q 163.143825 37.339215 163.661729 37.434617 
Q 164.179633 37.53092 164.713472 37.736125 
L 164.713472 36.866703 
z
" clip-path="url(#p3406d1f423)" style="fill: #f6dcac"/>
   </g>
   <g id="patch_101">
    <path d="M 164.713472 41.332002 
Q 164.075606 41.121703 163.389545 41.016074 
Q 162.703484 40.911404 161.972064 40.911404 
Q 160.319282 40.911404 159.353978 41.5375 
Q 158.388674 42.163596 158.388674 43.234296 
Q 158.388674 44.31748 159.370988 44.938774 
Q 160.354719 45.560068 162.065618 45.560068 
Q 162.724747 45.560068 163.328593 45.475565 
Q 163.933858 45.392021 164.469665 45.226855 
L 164.469665 44.300195 
Q 163.916848 44.512414 163.3697 44.617084 
Q 162.822553 44.722713 162.27257 44.722713 
Q 161.254819 44.722713 160.703419 44.336685 
Q 160.152019 43.951617 160.152019 43.234296 
Q 160.152019 42.523697 160.683575 42.135748 
Q 161.21513 41.748759 162.193191 41.748759 
Q 162.459678 41.748759 162.687892 41.770845 
Q 162.916106 41.793892 163.097544 41.841905 
L 163.097544 42.711909 
L 162.055696 42.711909 
L 162.055696 43.486847 
L 164.713472 43.486847 
L 164.713472 41.332002 
z
" clip-path="url(#p3406d1f423)" style="fill: #01204e"/>
   </g>
   <g id="patch_102">
    <path d="M 171.371154 37.83177 
Q 170.842096 37.348579 170.270011 37.104174 
Q 169.697927 36.85696 169.074849 36.85696 
Q 167.21677 36.85696 166.131563 38.688592 
Q 165.046356 40.520224 165.046356 43.65254 
Q 165.046356 46.796093 166.131563 48.624916 
Q 167.21677 50.456549 169.074849 50.456549 
Q 169.697927 50.456549 170.270011 50.209334 
Q 170.842096 49.96493 171.371154 49.481738 
L 171.371154 46.77081 
Q 170.837315 47.41132 170.319412 47.7091 
Q 169.801508 48.006881 169.229424 48.006881 
Q 168.203178 48.006881 167.615158 46.84666 
Q 167.028732 45.689248 167.028732 43.65254 
Q 167.028732 41.62426 167.615158 40.464039 
Q 168.203178 39.306628 169.229424 39.306628 
Q 169.801508 39.306628 170.319412 39.604408 
Q 170.837315 39.904998 171.371154 40.545508 
L 171.371154 37.83177 
z
" clip-path="url(#p3406d1f423)" style="fill: #f6dcac"/>
   </g>
   <g id="patch_103">
    <path d="M 171.371154 36.58177 
Q 170.733288 36.568083 170.047227 36.561208 
Q 169.361167 36.554395 168.629747 36.554395 
Q 166.976964 36.554395 166.01166 36.595145 
Q 165.046356 36.635896 165.046356 36.705584 
Q 165.046356 36.776084 166.02867 36.816522 
Q 167.012401 36.85696 168.723301 36.85696 
Q 169.382429 36.85696 169.986276 36.85146 
Q 170.59154 36.846022 171.127348 36.835272 
L 171.127348 36.774959 
Q 170.57453 36.788772 170.027383 36.795584 
Q 169.480235 36.802459 168.930253 36.802459 
Q 167.912502 36.802459 167.361102 36.777334 
Q 166.809702 36.752272 166.809702 36.705584 
Q 166.809702 36.659333 167.341257 36.634083 
Q 167.872812 36.608895 168.850874 36.608895 
Q 169.11736 36.608895 169.345575 36.610333 
Q 169.573789 36.611833 169.755226 36.614958 
L 169.755226 36.671583 
L 168.713378 36.671583 
L 168.713378 36.722021 
L 171.371154 36.722021 
L 171.371154 36.58177 
z
" clip-path="url(#p3406d1f423)" style="fill: #01204e"/>
   </g>
   <g id="patch_104">
    <path d="M 176.085232 41.432601 
L 173.652816 41.432601 
L 173.26875 40.866457 
L 171.704038 40.866457 
L 173.938602 43.974251 
L 175.794273 43.974251 
L 178.028837 40.866457 
L 176.465418 40.866457 
L 176.085232 41.432601 
z
M 174.040761 42.009401 
L 175.693407 42.009401 
L 174.868377 43.245592 
L 174.040761 42.009401 
z
" clip-path="url(#p3406d1f423)" style="fill: #fead70"/>
   </g>
   <g id="patch_105">
    <path d="M 178.028837 37.982657 
Q 177.499778 37.872284 176.927694 37.816456 
Q 176.35561 37.759987 175.732532 37.759987 
Q 173.874453 37.759987 172.789246 38.178375 
Q 171.704038 38.596764 171.704038 39.312259 
Q 171.704038 40.030322 172.789246 40.448069 
Q 173.874453 40.866457 175.732532 40.866457 
Q 176.35561 40.866457 176.927694 40.809988 
Q 177.499778 40.75416 178.028837 40.643787 
L 178.028837 40.024547 
Q 177.494998 40.170854 176.977094 40.238875 
Q 176.45919 40.306895 175.887106 40.306895 
Q 174.86086 40.306895 174.27284 40.041873 
Q 173.686414 39.777492 173.686414 39.312259 
Q 173.686414 38.848952 174.27284 38.58393 
Q 174.86086 38.319549 175.887106 38.319549 
Q 176.45919 38.319549 176.977094 38.387569 
Q 177.494998 38.456231 178.028837 38.602539 
L 178.028837 37.982657 
z
" clip-path="url(#p3406d1f423)" style="fill: #f6dcac"/>
   </g>
   <g id="patch_106">
    <path d="M 178.028837 36.663474 
Q 177.39097 36.608934 176.70491 36.58154 
Q 176.018849 36.554395 175.287429 36.554395 
Q 173.634647 36.554395 172.669343 36.716768 
Q 171.704038 36.87914 171.704038 37.156817 
Q 171.704038 37.437732 172.686352 37.598859 
Q 173.670084 37.759987 175.380983 37.759987 
Q 176.040111 37.759987 176.643958 37.738071 
Q 177.249222 37.716405 177.78503 37.673571 
L 177.78503 37.433249 
Q 177.232213 37.488286 176.685065 37.515432 
Q 176.137918 37.542826 175.587935 37.542826 
Q 174.570184 37.542826 174.018784 37.442713 
Q 173.467384 37.342848 173.467384 37.156817 
Q 173.467384 36.972529 173.998939 36.871918 
Q 174.530495 36.771556 175.508556 36.771556 
Q 175.775043 36.771556 176.003257 36.777284 
Q 176.231471 36.783261 176.412909 36.795713 
L 176.412909 37.021341 
L 175.371061 37.021341 
L 175.371061 37.222314 
L 178.028837 37.222314 
L 178.028837 36.663474 
z
" clip-path="url(#p3406d1f423)" style="fill: #01204e"/>
   </g>
   <g id="patch_107">
    <path d="M 184.686519 37.259815 
Q 184.048653 36.907105 183.362592 36.729945 
Q 182.676532 36.554395 181.945112 36.554395 
Q 180.292329 36.554395 179.327025 37.604472 
Q 178.361721 38.654548 178.361721 40.450308 
Q 178.361721 42.267005 179.344035 43.309028 
Q 180.327766 44.351052 182.038665 44.351052 
Q 182.697794 44.351052 183.301641 44.209324 
Q 183.906905 44.069207 184.442712 43.792192 
L 184.442712 42.238015 
Q 183.889895 42.593946 183.342747 42.769495 
Q 182.7956 42.946655 182.245618 42.946655 
Q 181.227866 42.946655 180.676467 42.299216 
Q 180.125067 41.653386 180.125067 40.450308 
Q 180.125067 39.258503 180.656622 38.607842 
Q 181.188177 37.958792 182.166239 37.958792 
Q 182.432725 37.958792 182.660939 37.995834 
Q 182.889154 38.034488 183.070591 38.115015 
L 183.070591 39.57417 
L 182.028743 39.57417 
L 182.028743 40.873882 
L 184.686519 40.873882 
L 184.686519 37.259815 
z
" clip-path="url(#p3406d1f423)" style="fill: #01204e"/>
   </g>
   <g id="patch_108">
    <path d="M 189.400596 42.581495 
L 186.968181 42.581495 
L 186.584115 41.071409 
L 185.019403 41.071409 
L 187.253967 49.360896 
L 189.109638 49.360896 
L 191.344201 41.071409 
L 189.780783 41.071409 
L 189.400596 42.581495 
z
M 187.356126 44.120007 
L 189.008772 44.120007 
L 188.183742 47.417326 
L 187.356126 44.120007 
z
" clip-path="url(#p3406d1f423)" style="fill: #fead70"/>
   </g>
   <g id="patch_109">
    <path d="M 191.344201 36.963082 
Q 190.706335 36.758738 190.020275 36.6561 
Q 189.334214 36.554395 188.602794 36.554395 
Q 186.950012 36.554395 185.984707 37.16276 
Q 185.019403 37.771124 185.019403 38.811502 
Q 185.019403 39.86401 186.001717 40.46771 
Q 186.985449 41.071409 188.696348 41.071409 
Q 189.355476 41.071409 189.959323 40.989298 
Q 190.564587 40.908121 191.100395 40.747632 
L 191.100395 39.847215 
Q 190.547577 40.053424 190.00043 40.15513 
Q 189.453282 40.257768 188.9033 40.257768 
Q 187.885549 40.257768 187.334149 39.882672 
Q 186.782749 39.508509 186.782749 38.811502 
Q 186.782749 38.121027 187.314304 37.744065 
Q 187.845859 37.368036 188.823921 37.368036 
Q 189.090407 37.368036 189.318622 37.389497 
Q 189.546836 37.41189 189.728274 37.458544 
L 189.728274 38.30391 
L 188.686425 38.30391 
L 188.686425 39.056901 
L 191.344201 39.056901 
L 191.344201 36.963082 
z
" clip-path="url(#p3406d1f423)" style="fill: #01204e"/>
   </g>
   <g id="patch_110">
    <path d="M 196.058279 44.0358 
L 193.625863 44.0358 
L 193.241797 41.407141 
L 191.677086 41.407141 
L 193.911649 55.836936 
L 195.76732 55.836936 
L 198.001884 41.407141 
L 196.438465 41.407141 
L 196.058279 44.0358 
z
M 194.013808 46.713941 
L 195.666454 46.713941 
L 194.841424 52.453696 
L 194.013808 46.713941 
z
" clip-path="url(#p3406d1f423)" style="fill: #fead70"/>
   </g>
   <g id="patch_111">
    <path d="M 198.001884 36.670736 
Q 197.472825 36.613068 196.900741 36.583899 
Q 196.328657 36.554395 195.705579 36.554395 
Q 193.8475 36.554395 192.762293 36.772995 
Q 191.677086 36.991594 191.677086 37.365426 
Q 191.677086 37.7406 192.762293 37.958864 
Q 193.8475 38.177463 195.705579 38.177463 
Q 196.328657 38.177463 196.900741 38.147959 
Q 197.472825 38.11879 198.001884 38.061123 
L 198.001884 37.737582 
Q 197.468045 37.814025 196.950141 37.849564 
Q 196.432238 37.885103 195.860153 37.885103 
Q 194.833907 37.885103 194.245887 37.746634 
Q 193.659461 37.608501 193.659461 37.365426 
Q 193.659461 37.123357 194.245887 36.984889 
Q 194.833907 36.846755 195.860153 36.846755 
Q 196.432238 36.846755 196.950141 36.882294 
Q 197.468045 36.918169 198.001884 36.994612 
L 198.001884 36.670736 
z
" clip-path="url(#p3406d1f423)" style="fill: #f6dcac"/>
   </g>
   <g id="patch_112">
    <path d="M 198.001884 38.469676 
Q 197.364018 38.323569 196.677957 38.250183 
Q 195.991896 38.177463 195.260476 38.177463 
Q 193.607694 38.177463 192.64239 38.612446 
Q 191.677086 39.047428 191.677086 39.791301 
Q 191.677086 40.543848 192.6594 40.975494 
Q 193.643131 41.407141 195.35403 41.407141 
Q 196.013159 41.407141 196.617005 41.348432 
Q 197.22227 41.290389 197.758077 41.175639 
L 197.758077 40.531839 
Q 197.20526 40.679279 196.658112 40.751999 
Q 196.110965 40.825385 195.560982 40.825385 
Q 194.543231 40.825385 193.991831 40.557191 
Q 193.440431 40.289663 193.440431 39.791301 
Q 193.440431 39.29761 193.971987 39.028081 
Q 194.503542 38.759219 195.481603 38.759219 
Q 195.74809 38.759219 195.976304 38.774563 
Q 196.204518 38.790575 196.385956 38.823933 
L 196.385956 39.428371 
L 195.344108 39.428371 
L 195.344108 39.966762 
L 198.001884 39.966762 
L 198.001884 38.469676 
z
" clip-path="url(#p3406d1f423)" style="fill: #01204e"/>
   </g>
   <g id="patch_113">
    <path d="M 202.715961 37.951447 
L 200.283546 37.951447 
L 199.89948 36.554395 
L 198.334768 36.554395 
L 200.569332 44.223388 
L 202.425002 44.223388 
L 204.659566 36.554395 
L 203.096148 36.554395 
L 202.715961 37.951447 
z
M 200.671491 39.374796 
L 202.324137 39.374796 
L 201.499107 42.4253 
L 200.671491 39.374796 
z
" clip-path="url(#p3406d1f423)" style="fill: #fead70"/>
   </g>
   <g id="patch_114">
    <path d="M 204.659566 45.021876 
Q 204.0217 44.622632 203.335639 44.422098 
Q 202.649579 44.223388 201.918159 44.223388 
Q 200.265377 44.223388 199.300072 45.412005 
Q 198.334768 46.600623 198.334768 48.633305 
Q 198.334768 50.689687 199.317082 51.869189 
Q 200.300814 53.048692 202.011713 53.048692 
Q 202.670841 53.048692 203.274688 52.888265 
Q 203.879952 52.729661 204.41576 52.416099 
L 204.41576 50.656872 
Q 203.862942 51.059763 203.315795 51.258473 
Q 202.768647 51.459007 202.218665 51.459007 
Q 201.200914 51.459007 200.649514 50.726147 
Q 200.098114 49.995111 200.098114 48.633305 
Q 200.098114 47.284261 200.629669 46.547755 
Q 201.161224 45.813073 202.139286 45.813073 
Q 202.405772 45.813073 202.633987 45.855002 
Q 202.862201 45.898755 203.043638 45.989907 
L 203.043638 47.641575 
L 202.00179 47.641575 
L 202.00179 49.112763 
L 204.659566 49.112763 
L 204.659566 45.021876 
z
" clip-path="url(#p3406d1f423)" style="fill: #01204e"/>
   </g>
   <g id="patch_115">
    <path d="M 209.373644 48.354355 
L 206.941228 48.354355 
L 206.557162 45.793931 
L 204.99245 45.793931 
L 207.227014 59.849152 
L 209.082685 59.849152 
L 211.317249 45.793931 
L 209.75383 45.793931 
L 209.373644 48.354355 
z
M 207.329173 50.962975 
L 208.981819 50.962975 
L 208.156789 56.553736 
L 207.329173 50.962975 
z
" clip-path="url(#p3406d1f423)" style="fill: #fead70"/>
   </g>
   <g id="patch_116">
    <path d="M 211.317249 37.390362 
Q 210.679382 36.972379 209.993322 36.762432 
Q 209.307261 36.554395 208.575841 36.554395 
Q 206.923059 36.554395 205.957755 37.798803 
Q 204.99245 39.04321 204.99245 41.1713 
Q 204.99245 43.324201 205.974764 44.559066 
Q 206.958496 45.793931 208.669395 45.793931 
Q 209.328523 45.793931 209.93237 45.625974 
Q 210.537634 45.459926 211.073442 45.131646 
L 211.073442 43.289847 
Q 210.520625 43.711647 209.973477 43.919685 
Q 209.42633 44.129631 208.876347 44.129631 
Q 207.858596 44.129631 207.307196 43.362373 
Q 206.755796 42.597025 206.755796 41.1713 
Q 206.755796 39.758935 207.287351 38.987861 
Q 207.818907 38.218695 208.796968 38.218695 
Q 209.063455 38.218695 209.291669 38.262593 
Q 209.519883 38.308399 209.701321 38.403829 
L 209.701321 40.133021 
L 208.659473 40.133021 
L 208.659473 41.673262 
L 211.317249 41.673262 
L 211.317249 37.390362 
z
" clip-path="url(#p3406d1f423)" style="fill: #01204e"/>
   </g>
   <g id="patch_117">
    <path d="M 217.974931 43.067812 
Q 217.445873 42.754279 216.873788 42.595689 
Q 216.301704 42.435277 215.678626 42.435277 
Q 213.820547 42.435277 212.73534 43.623787 
Q 211.650133 44.812297 211.650133 46.844794 
Q 211.650133 48.884583 212.73534 50.07127 
Q 213.820547 51.25978 215.678626 51.25978 
Q 216.301704 51.25978 216.873788 51.099368 
Q 217.445873 50.940778 217.974931 50.627245 
L 217.974931 48.868178 
Q 217.441092 49.283791 216.923188 49.477015 
Q 216.405285 49.670239 215.8332 49.670239 
Q 214.806954 49.670239 214.218935 48.917395 
Q 213.632508 48.166373 213.632508 46.844794 
Q 213.632508 45.528684 214.218935 44.775839 
Q 214.806954 44.024818 215.8332 44.024818 
Q 216.405285 44.024818 216.923188 44.218042 
Q 217.441092 44.413089 217.974931 44.828702 
L 217.974931 43.067812 
z
" clip-path="url(#p3406d1f423)" style="fill: #f6dcac"/>
   </g>
   <g id="patch_118">
    <path d="M 217.974931 37.086481 
Q 217.337065 36.820438 216.651004 36.686809 
Q 215.964944 36.554395 215.233524 36.554395 
Q 213.580741 36.554395 212.615437 37.346449 
Q 211.650133 38.138504 211.650133 39.493014 
Q 211.650133 40.863316 212.632447 41.649297 
Q 213.616178 42.435277 215.327077 42.435277 
Q 215.986206 42.435277 216.590053 42.328374 
Q 217.195317 42.222686 217.731124 42.013739 
L 217.731124 40.84145 
Q 217.178307 41.109922 216.631159 41.242336 
Q 216.084012 41.375965 215.53403 41.375965 
Q 214.516278 41.375965 213.964879 40.887612 
Q 213.413479 40.400475 213.413479 39.493014 
Q 213.413479 38.594056 213.945034 38.103274 
Q 214.476589 37.613707 215.454651 37.613707 
Q 215.721137 37.613707 215.949351 37.641647 
Q 216.177566 37.670803 216.359003 37.731543 
L 216.359003 38.832159 
L 215.317155 38.832159 
L 215.317155 39.812508 
L 217.974931 39.812508 
L 217.974931 37.086481 
z
" clip-path="url(#p3406d1f423)" style="fill: #01204e"/>
   </g>
   <g id="patch_119">
    <path d="M 224.632613 38.593649 
Q 224.103555 38.467282 223.531471 38.403364 
Q 222.959386 38.338711 222.336309 38.338711 
Q 220.47823 38.338711 219.393022 38.81773 
Q 218.307815 39.296749 218.307815 40.11593 
Q 218.307815 40.93805 219.393022 41.416334 
Q 220.47823 41.895353 222.336309 41.895353 
Q 222.959386 41.895353 223.531471 41.8307 
Q 224.103555 41.766782 224.632613 41.640415 
L 224.632613 40.931437 
Q 224.098774 41.098947 223.580871 41.176824 
Q 223.062967 41.254702 222.490883 41.254702 
Q 221.464637 41.254702 220.876617 40.951274 
Q 220.290191 40.648581 220.290191 40.11593 
Q 220.290191 39.585482 220.876617 39.282055 
Q 221.464637 38.979362 222.490883 38.979362 
Q 223.062967 38.979362 223.580871 39.057239 
Q 224.098774 39.135851 224.632613 39.303361 
L 224.632613 38.593649 
z
" clip-path="url(#p3406d1f423)" style="fill: #f6dcac"/>
   </g>
   <g id="patch_120">
    <path d="M 224.632613 36.715835 
Q 223.994747 36.635115 223.308687 36.594571 
Q 222.622626 36.554395 221.891206 36.554395 
Q 220.238424 36.554395 219.273119 36.794712 
Q 218.307815 37.035029 218.307815 37.446 
Q 218.307815 37.861763 219.290129 38.100237 
Q 220.273861 38.338711 221.98476 38.338711 
Q 222.643888 38.338711 223.247735 38.306275 
Q 223.852999 38.274209 224.388807 38.210812 
L 224.388807 37.855128 
Q 223.835989 37.936586 223.288842 37.976761 
Q 222.741694 38.017305 222.191712 38.017305 
Q 221.173961 38.017305 220.622561 37.869135 
Q 220.071161 37.721332 220.071161 37.446 
Q 220.071161 37.173248 220.602716 37.02434 
Q 221.134271 36.8758 222.112333 36.8758 
Q 222.378819 36.8758 222.607034 36.884278 
Q 222.835248 36.893124 223.016686 36.911553 
L 223.016686 37.24549 
L 221.974837 37.24549 
L 221.974837 37.542938 
L 224.632613 37.542938 
L 224.632613 36.715835 
z
" clip-path="url(#p3406d1f423)" style="fill: #01204e"/>
   </g>
   <g id="patch_121">
    <path d="M 229.346691 41.624016 
L 226.914275 41.624016 
L 226.530209 40.350665 
L 224.965498 40.350665 
L 227.200061 47.340613 
L 229.055732 47.340613 
L 231.290296 40.350665 
L 229.726877 40.350665 
L 229.346691 41.624016 
z
M 227.30222 42.921336 
L 228.954866 42.921336 
L 228.129836 45.701735 
L 227.30222 42.921336 
z
" clip-path="url(#p3406d1f423)" style="fill: #fead70"/>
   </g>
   <g id="patch_122">
    <path d="M 231.290296 36.897871 
Q 230.65243 36.726133 229.966369 36.639872 
Q 229.280308 36.554395 228.548888 36.554395 
Q 226.896106 36.554395 225.930802 37.065688 
Q 224.965498 37.576981 224.965498 38.451354 
Q 224.965498 39.335922 225.947812 39.843293 
Q 226.931543 40.350665 228.642442 40.350665 
Q 229.301571 40.350665 229.905417 40.281656 
Q 230.510682 40.213432 231.046489 40.078551 
L 231.046489 39.321806 
Q 230.493672 39.495113 229.946524 39.580589 
Q 229.399377 39.66685 228.849394 39.66685 
Q 227.831643 39.66685 227.280243 39.351606 
Q 226.728843 39.037145 226.728843 38.451354 
Q 226.728843 37.871052 227.260399 37.554239 
Q 227.791954 37.23821 228.770015 37.23821 
Q 229.036502 37.23821 229.264716 37.256246 
Q 229.492931 37.275067 229.674368 37.314276 
L 229.674368 38.024754 
L 228.63252 38.024754 
L 228.63252 38.657596 
L 231.290296 38.657596 
L 231.290296 36.897871 
z
" clip-path="url(#p3406d1f423)" style="fill: #01204e"/>
   </g>
   <g id="patch_123">
    <path d="M 237.947978 36.691732 
Q 237.41892 36.623657 236.846836 36.589224 
Q 236.274751 36.554395 235.651673 36.554395 
Q 233.793595 36.554395 232.708387 36.812447 
Q 231.62318 37.070499 231.62318 37.511799 
Q 231.62318 37.954683 232.708387 38.212339 
Q 233.793595 38.470391 235.651673 38.470391 
Q 236.274751 38.470391 236.846836 38.435562 
Q 237.41892 38.401129 237.947978 38.333054 
L 237.947978 37.951121 
Q 237.414139 38.04136 236.896236 38.083313 
Q 236.378332 38.125266 235.806248 38.125266 
Q 234.780002 38.125266 234.191982 37.961807 
Q 233.605556 37.798744 233.605556 37.511799 
Q 233.605556 37.226042 234.191982 37.062583 
Q 234.780002 36.89952 235.806248 36.89952 
Q 236.378332 36.89952 236.896236 36.941473 
Q 237.414139 36.983822 237.947978 37.074061 
L 237.947978 36.691732 
z
" clip-path="url(#p3406d1f423)" style="fill: #f6dcac"/>
   </g>
   <g id="patch_124">
    <path d="M 242.662056 36.60701 
L 240.22964 36.60701 
L 239.845574 36.554395 
L 238.280862 36.554395 
L 240.515426 36.843219 
L 242.371097 36.843219 
L 244.605661 36.554395 
L 243.042242 36.554395 
L 242.662056 36.60701 
z
M 240.617585 36.660615 
L 242.270231 36.660615 
L 241.445201 36.775501 
L 240.617585 36.660615 
z
" clip-path="url(#p3406d1f423)" style="fill: #fead70"/>
   </g>
   <g id="patch_125">
    <path d="M 244.605661 38.136989 
Q 243.967794 37.957557 243.281734 37.867431 
Q 242.595673 37.778124 241.864253 37.778124 
Q 240.211471 37.778124 239.246167 38.312325 
Q 238.280862 38.846525 238.280862 39.760074 
Q 238.280862 40.684274 239.263176 41.214378 
Q 240.246908 41.744482 241.957807 41.744482 
Q 242.616935 41.744482 243.220782 41.672381 
Q 243.826046 41.6011 244.361854 41.460176 
L 244.361854 40.669526 
Q 243.809037 40.850597 243.261889 40.939904 
Q 242.714742 41.03003 242.164759 41.03003 
Q 241.147008 41.03003 240.595608 40.700661 
Q 240.044208 40.372111 240.044208 39.760074 
Q 240.044208 39.153773 240.575763 38.822765 
Q 241.107319 38.492577 242.08538 38.492577 
Q 242.351867 38.492577 242.580081 38.511421 
Q 242.808295 38.531085 242.989733 38.572051 
L 242.989733 39.314361 
L 241.947885 39.314361 
L 241.947885 39.975557 
L 244.605661 39.975557 
L 244.605661 38.136989 
z
" clip-path="url(#p3406d1f423)" style="fill: #01204e"/>
   </g>
   <g id="patch_126">
    <path d="M 238.280862 37.778124 
L 244.605661 37.778124 
L 244.605661 37.595792 
L 242.330204 37.595792 
L 242.330204 36.843219 
L 240.560732 36.843219 
L 240.560732 37.595792 
L 238.280862 37.595792 
L 238.280862 37.778124 
z
" clip-path="url(#p3406d1f423)" style="fill: #028391"/>
   </g>
   <g id="patch_127">
    <path d="M 249.319738 37.771232 
L 246.887322 37.771232 
L 246.503257 37.180759 
L 244.938545 37.180759 
L 247.173109 40.42211 
L 249.028779 40.42211 
L 251.263343 37.180759 
L 249.699924 37.180759 
L 249.319738 37.771232 
z
M 247.275267 38.37282 
L 248.927914 38.37282 
L 248.102884 39.662136 
L 247.275267 38.37282 
z
" clip-path="url(#p3406d1f423)" style="fill: #fead70"/>
   </g>
   <g id="patch_128">
    <path d="M 251.263343 36.569067 
Q 250.734285 36.561795 250.1622 36.558116 
Q 249.590116 36.554395 248.967038 36.554395 
Q 247.108959 36.554395 246.023752 36.581964 
Q 244.938545 36.609532 244.938545 36.656678 
Q 244.938545 36.703992 246.023752 36.731519 
Q 247.108959 36.759087 248.967038 36.759087 
Q 249.590116 36.759087 250.1622 36.755366 
Q 250.734285 36.751688 251.263343 36.744415 
L 251.263343 36.703612 
Q 250.729504 36.713252 250.2116 36.717734 
Q 249.693697 36.722216 249.121612 36.722216 
Q 248.095367 36.722216 247.507347 36.704753 
Q 246.92092 36.687333 246.92092 36.656678 
Q 246.92092 36.626149 247.507347 36.608686 
Q 248.095367 36.591266 249.121612 36.591266 
Q 249.693697 36.591266 250.2116 36.595748 
Q 250.729504 36.600272 251.263343 36.609913 
L 251.263343 36.569067 
z
" clip-path="url(#p3406d1f423)" style="fill: #f6dcac"/>
   </g>
   <g id="patch_129">
    <path d="M 251.263343 36.797239 
Q 250.625477 36.778163 249.939416 36.768582 
Q 249.253356 36.759087 248.521936 36.759087 
Q 246.869153 36.759087 245.903849 36.815879 
Q 244.938545 36.872671 244.938545 36.969792 
Q 244.938545 37.068046 245.920859 37.124402 
Q 246.90459 37.180759 248.615489 37.180759 
Q 249.274618 37.180759 249.878465 37.173094 
Q 250.483729 37.165516 251.019536 37.150534 
L 251.019536 37.066478 
Q 250.466719 37.085728 249.919572 37.095223 
Q 249.372424 37.104804 248.822442 37.104804 
Q 247.80469 37.104804 247.253291 37.069788 
Q 246.701891 37.034859 246.701891 36.969792 
Q 246.701891 36.905335 247.233446 36.870145 
Q 247.765001 36.835042 248.743063 36.835042 
Q 249.009549 36.835042 249.237763 36.837045 
Q 249.465978 36.839136 249.647415 36.843491 
L 249.647415 36.922408 
L 248.605567 36.922408 
L 248.605567 36.992701 
L 251.263343 36.992701 
L 251.263343 36.797239 
z
" clip-path="url(#p3406d1f423)" style="fill: #01204e"/>
   </g>
   <g id="patch_130">
    <path d="M 255.977421 38.270024 
L 253.545005 38.270024 
L 253.160939 37.485803 
L 251.596227 37.485803 
L 253.830791 41.790718 
L 255.686462 41.790718 
L 257.921025 37.485803 
L 256.357607 37.485803 
L 255.977421 38.270024 
z
M 253.93295 39.069008 
L 255.585596 39.069008 
L 254.760566 40.781379 
L 253.93295 39.069008 
z
" clip-path="url(#p3406d1f423)" style="fill: #fead70"/>
   </g>
   <g id="patch_131">
    <path d="M 257.921025 36.621158 
Q 257.391967 36.588065 256.819883 36.571326 
Q 256.247798 36.554395 255.624721 36.554395 
Q 253.766642 36.554395 252.681434 36.67984 
Q 251.596227 36.805284 251.596227 37.01981 
Q 251.596227 37.235106 252.681434 37.360358 
Q 253.766642 37.485803 255.624721 37.485803 
Q 256.247798 37.485803 256.819883 37.468871 
Q 257.391967 37.452133 257.921025 37.41904 
L 257.921025 37.233374 
Q 257.387186 37.277241 256.869283 37.297636 
Q 256.351379 37.31803 255.779295 37.31803 
Q 254.753049 37.31803 254.165029 37.238569 
Q 253.578603 37.1593 253.578603 37.01981 
Q 253.578603 36.880898 254.165029 36.801436 
Q 254.753049 36.722168 255.779295 36.722168 
Q 256.351379 36.722168 256.869283 36.742562 
Q 257.387186 36.763149 257.921025 36.807016 
L 257.921025 36.621158 
z
" clip-path="url(#p3406d1f423)" style="fill: #f6dcac"/>
   </g>
   <g id="patch_132">
    <path d="M 264.578708 37.00673 
Q 264.049649 36.782518 263.477565 36.669108 
Q 262.905481 36.554395 262.282403 36.554395 
Q 260.424324 36.554395 259.339117 37.404315 
Q 258.25391 38.254235 258.25391 39.707702 
Q 258.25391 41.166383 259.339117 42.015 
Q 260.424324 42.864919 262.282403 42.864919 
Q 262.905481 42.864919 263.477565 42.750206 
Q 264.049649 42.636797 264.578708 42.412585 
L 264.578708 41.154651 
Q 264.044869 41.451863 263.526965 41.59004 
Q 263.009062 41.728217 262.436977 41.728217 
Q 261.410731 41.728217 260.822712 41.189847 
Q 260.236285 40.652781 260.236285 39.707702 
Q 260.236285 38.766533 260.822712 38.228164 
Q 261.410731 37.691098 262.436977 37.691098 
Q 263.009062 37.691098 263.526965 37.829275 
Q 264.044869 37.968755 264.578708 38.265967 
L 264.578708 37.00673 
z
" clip-path="url(#p3406d1f423)" style="fill: #f6dcac"/>
   </g>
   <g id="patch_133">
    <path d="M 271.23639 36.660874 
Q 270.707332 36.608095 270.135248 36.581398 
Q 269.563163 36.554395 268.940085 36.554395 
Q 267.082007 36.554395 265.996799 36.754466 
Q 264.911592 36.954537 264.911592 37.296683 
Q 264.911592 37.640056 265.996799 37.83982 
Q 267.082007 38.039891 268.940085 38.039891 
Q 269.563163 38.039891 270.135248 38.012887 
Q 270.707332 37.986191 271.23639 37.933411 
L 271.23639 37.637294 
Q 270.702551 37.707258 270.184648 37.739785 
Q 269.666744 37.772311 269.09466 37.772311 
Q 268.068414 37.772311 267.480394 37.645579 
Q 266.893968 37.519154 266.893968 37.296683 
Q 266.893968 37.075132 267.480394 36.9484 
Q 268.068414 36.821975 269.09466 36.821975 
Q 269.666744 36.821975 270.184648 36.854501 
Q 270.702551 36.887335 271.23639 36.957299 
L 271.23639 36.660874 
z
" clip-path="url(#p3406d1f423)" style="fill: #f6dcac"/>
   </g>
   <g id="patch_134">
    <path d="M 264.911592 40.366515 
L 271.23639 40.366515 
L 271.23639 39.912758 
L 268.960934 39.912758 
L 268.960934 38.039891 
L 267.191461 38.039891 
L 267.191461 39.912758 
L 264.911592 39.912758 
L 264.911592 40.366515 
z
" clip-path="url(#p3406d1f423)" style="fill: #028391"/>
   </g>
   <g id="patch_135">
    <path d="M 277.894073 38.921727 
Q 277.365014 38.828787 276.79293 38.781776 
Q 276.220846 38.734225 275.597768 38.734225 
Q 273.739689 38.734225 272.654482 39.086534 
Q 271.569274 39.438843 271.569274 40.041335 
Q 271.569274 40.645988 272.654482 40.997757 
Q 273.739689 41.350066 275.597768 41.350066 
Q 276.220846 41.350066 276.79293 41.302515 
Q 277.365014 41.255505 277.894073 41.162564 
L 277.894073 40.641125 
Q 277.360234 40.764325 276.84233 40.821602 
Q 276.324426 40.87888 275.752342 40.87888 
Q 274.726096 40.87888 274.138076 40.655715 
Q 273.55165 40.43309 273.55165 40.041335 
Q 273.55165 39.651201 274.138076 39.428036 
Q 274.726096 39.205411 275.752342 39.205411 
Q 276.324426 39.205411 276.84233 39.262689 
Q 277.360234 39.320506 277.894073 39.443706 
L 277.894073 38.921727 
z
" clip-path="url(#p3406d1f423)" style="fill: #f6dcac"/>
   </g>
   <g id="patch_136">
    <path d="M 277.894073 36.75162 
Q 277.256206 36.653007 276.570146 36.603476 
Q 275.884085 36.554395 275.152665 36.554395 
Q 273.499883 36.554395 272.534579 36.847981 
Q 271.569274 37.141567 271.569274 37.643635 
Q 271.569274 38.151556 272.551588 38.442891 
Q 273.53532 38.734225 275.246219 38.734225 
Q 275.905347 38.734225 276.509194 38.6946 
Q 277.114458 38.655425 277.650266 38.577976 
L 277.650266 38.143451 
Q 277.097449 38.242964 276.550301 38.292045 
Q 276.003154 38.341577 275.453171 38.341577 
Q 274.43542 38.341577 273.88402 38.160562 
Q 273.33262 37.979998 273.33262 37.643635 
Q 273.33262 37.310424 273.864175 37.128508 
Q 274.395731 36.947044 275.373792 36.947044 
Q 275.640279 36.947044 275.868493 36.9574 
Q 276.096707 36.968207 276.278145 36.990721 
L 276.278145 37.39868 
L 275.236297 37.39868 
L 275.236297 37.76206 
L 277.894073 37.76206 
L 277.894073 36.75162 
z
" clip-path="url(#p3406d1f423)" style="fill: #01204e"/>
   </g>
   <g id="patch_137">
    <path d="M 284.551755 37.479513 
Q 284.022697 37.433997 283.450612 37.410974 
Q 282.878528 37.387686 282.25545 37.387686 
Q 280.397371 37.387686 279.312164 37.560226 
Q 278.226957 37.732767 278.226957 38.027832 
Q 278.226957 38.323956 279.312164 38.496232 
Q 280.397371 38.668772 282.25545 38.668772 
Q 282.878528 38.668772 283.450612 38.645484 
Q 284.022697 38.622461 284.551755 38.576944 
L 284.551755 38.321574 
Q 284.017916 38.38191 283.500012 38.409961 
Q 282.982109 38.438012 282.410024 38.438012 
Q 281.383779 38.438012 280.795759 38.328719 
Q 280.209332 38.219691 280.209332 38.027832 
Q 280.209332 37.836767 280.795759 37.727474 
Q 281.383779 37.618445 282.410024 37.618445 
Q 282.982109 37.618445 283.500012 37.646497 
Q 284.017916 37.674812 284.551755 37.735148 
L 284.551755 37.479513 
z
" clip-path="url(#p3406d1f423)" style="fill: #f6dcac"/>
   </g>
   <g id="patch_138">
    <path d="M 278.226957 37.387686 
L 284.551755 37.387686 
L 284.551755 37.225171 
L 282.276299 37.225171 
L 282.276299 36.554395 
L 280.506826 36.554395 
L 280.506826 37.225171 
L 278.226957 37.225171 
L 278.226957 37.387686 
z
" clip-path="url(#p3406d1f423)" style="fill: #028391"/>
   </g>
   <g id="matplotlib.axis_1">
    <g id="xtick_1">
     <g id="line2d_2">
      <defs>
       <path id="mbbb6777825" d="M 0 0 
L 0 3.5 
" style="stroke: #333333; stroke-width: 0.8"/>
      </defs>
      <g>
       <use xlink:href="#mbbb6777825" x="61.685837" y="65.9088" style="fill: #333333; stroke: #333333; stroke-width: 0.8"/>
      </g>
     </g>
     <g id="text_1">
      <!-- 0 -->
      <g style="fill: #333333" transform="translate(58.504587 80.507238)scale(0.1 -0.1)">
       <defs>
        <path id="DejaVuSans-30" d="M 2034 4250 
Q 1547 4250 1301 3770 
Q 1056 3291 1056 2328 
Q 1056 1369 1301 889 
Q 1547 409 2034 409 
Q 2525 409 2770 889 
Q 3016 1369 3016 2328 
Q 3016 3291 2770 3770 
Q 2525 4250 2034 4250 
z
M 2034 4750 
Q 2819 4750 3233 4129 
Q 3647 3509 3647 2328 
Q 3647 1150 3233 529 
Q 2819 -91 2034 -91 
Q 1250 -91 836 529 
Q 422 1150 422 2328 
Q 422 3509 836 4129 
Q 1250 4750 2034 4750 
z
" transform="scale(0.015625)"/>
       </defs>
       <use xlink:href="#DejaVuSans-30"/>
      </g>
     </g>
    </g>
    <g id="xtick_2">
     <g id="line2d_3">
      <g>
       <use xlink:href="#mbbb6777825" x="94.974249" y="65.9088" style="fill: #333333; stroke: #333333; stroke-width: 0.8"/>
      </g>
     </g>
     <g id="text_2">
      <!-- 5 -->
      <g style="fill: #333333" transform="translate(91.792999 80.507238)scale(0.1 -0.1)">
       <defs>
        <path id="DejaVuSans-35" d="M 691 4666 
L 3169 4666 
L 3169 4134 
L 1269 4134 
L 1269 2991 
Q 1406 3038 1543 3061 
Q 1681 3084 1819 3084 
Q 2600 3084 3056 2656 
Q 3513 2228 3513 1497 
Q 3513 744 3044 326 
Q 2575 -91 1722 -91 
Q 1428 -91 1123 -41 
Q 819 9 494 109 
L 494 744 
Q 775 591 1075 516 
Q 1375 441 1709 441 
Q 2250 441 2565 725 
Q 2881 1009 2881 1497 
Q 2881 1984 2565 2268 
Q 2250 2553 1709 2553 
Q 1456 2553 1204 2497 
Q 953 2441 691 2322 
L 691 4666 
z
" transform="scale(0.015625)"/>
       </defs>
       <use xlink:href="#DejaVuSans-35"/>
      </g>
     </g>
    </g>
    <g id="xtick_3">
     <g id="line2d_4">
      <g>
       <use xlink:href="#mbbb6777825" x="128.262661" y="65.9088" style="fill: #333333; stroke: #333333; stroke-width: 0.8"/>
      </g>
     </g>
     <g id="text_3">
      <!-- 10 -->
      <g style="fill: #333333" transform="translate(121.900161 80.507238)scale(0.1 -0.1)">
       <defs>
        <path id="DejaVuSans-31" d="M 794 531 
L 1825 531 
L 1825 4091 
L 703 3866 
L 703 4441 
L 1819 4666 
L 2450 4666 
L 2450 531 
L 3481 531 
L 3481 0 
L 794 0 
L 794 531 
z
" transform="scale(0.015625)"/>
       </defs>
       <use xlink:href="#DejaVuSans-31"/>
       <use xlink:href="#DejaVuSans-30" x="63.623047"/>
      </g>
     </g>
    </g>
    <g id="xtick_4">
     <g id="line2d_5">
      <g>
       <use xlink:href="#mbbb6777825" x="161.551073" y="65.9088" style="fill: #333333; stroke: #333333; stroke-width: 0.8"/>
      </g>
     </g>
     <g id="text_4">
      <!-- 15 -->
      <g style="fill: #333333" transform="translate(155.188573 80.507238)scale(0.1 -0.1)">
       <use xlink:href="#DejaVuSans-31"/>
       <use xlink:href="#DejaVuSans-35" x="63.623047"/>
      </g>
     </g>
    </g>
    <g id="xtick_5">
     <g id="line2d_6">
      <g>
       <use xlink:href="#mbbb6777825" x="194.839485" y="65.9088" style="fill: #333333; stroke: #333333; stroke-width: 0.8"/>
      </g>
     </g>
     <g id="text_5">
      <!-- 20 -->
      <g style="fill: #333333" transform="translate(188.476985 80.507238)scale(0.1 -0.1)">
       <defs>
        <path id="DejaVuSans-32" d="M 1228 531 
L 3431 531 
L 3431 0 
L 469 0 
L 469 531 
Q 828 903 1448 1529 
Q 2069 2156 2228 2338 
Q 2531 2678 2651 2914 
Q 2772 3150 2772 3378 
Q 2772 3750 2511 3984 
Q 2250 4219 1831 4219 
Q 1534 4219 1204 4116 
Q 875 4013 500 3803 
L 500 4441 
Q 881 4594 1212 4672 
Q 1544 4750 1819 4750 
Q 2544 4750 2975 4387 
Q 3406 4025 3406 3419 
Q 3406 3131 3298 2873 
Q 3191 2616 2906 2266 
Q 2828 2175 2409 1742 
Q 1991 1309 1228 531 
z
" transform="scale(0.015625)"/>
       </defs>
       <use xlink:href="#DejaVuSans-32"/>
       <use xlink:href="#DejaVuSans-30" x="63.623047"/>
      </g>
     </g>
    </g>
    <g id="xtick_6">
     <g id="line2d_7">
      <g>
       <use xlink:href="#mbbb6777825" x="228.127897" y="65.9088" style="fill: #333333; stroke: #333333; stroke-width: 0.8"/>
      </g>
     </g>
     <g id="text_6">
      <!-- 25 -->
      <g style="fill: #333333" transform="translate(221.765397 80.507238)scale(0.1 -0.1)">
       <use xlink:href="#DejaVuSans-32"/>
       <use xlink:href="#DejaVuSans-35" x="63.623047"/>
      </g>
     </g>
    </g>
    <g id="xtick_7">
     <g id="line2d_8">
      <g>
       <use xlink:href="#mbbb6777825" x="261.416309" y="65.9088" style="fill: #333333; stroke: #333333; stroke-width: 0.8"/>
      </g>
     </g>
     <g id="text_7">
      <!-- 30 -->
      <g style="fill: #333333" transform="translate(255.053809 80.507238)scale(0.1 -0.1)">
       <defs>
        <path id="DejaVuSans-33" d="M 2597 2516 
Q 3050 2419 3304 2112 
Q 3559 1806 3559 1356 
Q 3559 666 3084 287 
Q 2609 -91 1734 -91 
Q 1441 -91 1130 -33 
Q 819 25 488 141 
L 488 750 
Q 750 597 1062 519 
Q 1375 441 1716 441 
Q 2309 441 2620 675 
Q 2931 909 2931 1356 
Q 2931 1769 2642 2001 
Q 2353 2234 1838 2234 
L 1294 2234 
L 1294 2753 
L 1863 2753 
Q 2328 2753 2575 2939 
Q 2822 3125 2822 3475 
Q 2822 3834 2567 4026 
Q 2313 4219 1838 4219 
Q 1578 4219 1281 4162 
Q 984 4106 628 3988 
L 628 4550 
Q 988 4650 1302 4700 
Q 1616 4750 1894 4750 
Q 2613 4750 3031 4423 
Q 3450 4097 3450 3541 
Q 3450 3153 3228 2886 
Q 3006 2619 2597 2516 
z
" transform="scale(0.015625)"/>
       </defs>
       <use xlink:href="#DejaVuSans-33"/>
       <use xlink:href="#DejaVuSans-30" x="63.623047"/>
      </g>
     </g>
    </g>
   </g>
   <g id="matplotlib.axis_2">
    <g id="ytick_1">
     <g id="line2d_9">
      <defs>
       <path id="m88b042e475" d="M 0 0 
L -3.5 0 
" style="stroke: #333333; stroke-width: 0.8"/>
      </defs>
      <g>
       <use xlink:href="#m88b042e475" x="58.523438" y="54.469328" style="fill: #333333; stroke: #333333; stroke-width: 0.8"/>
      </g>
     </g>
     <g id="text_8">
      <!-- 0.01 -->
      <g style="fill: #333333" transform="translate(20.878125 58.268546)scale(0.1 -0.1)">
       <defs>
        <path id="DejaVuSans-2212" d="M 678 2272 
L 4684 2272 
L 4684 1741 
L 678 1741 
L 678 2272 
z
" transform="scale(0.015625)"/>
        <path id="DejaVuSans-2e" d="M 684 794 
L 1344 794 
L 1344 0 
L 684 0 
L 684 794 
z
" transform="scale(0.015625)"/>
       </defs>
       <use xlink:href="#DejaVuSans-2212"/>
       <use xlink:href="#DejaVuSans-30" x="83.789062"/>
       <use xlink:href="#DejaVuSans-2e" x="147.412109"/>
       <use xlink:href="#DejaVuSans-30" x="179.199219"/>
       <use xlink:href="#DejaVuSans-31" x="242.822266"/>
      </g>
     </g>
    </g>
    <g id="ytick_2">
     <g id="line2d_10">
      <g>
       <use xlink:href="#m88b042e475" x="58.523438" y="36.554395" style="fill: #333333; stroke: #333333; stroke-width: 0.8"/>
      </g>
     </g>
     <g id="text_9">
      <!-- 0.00 -->
      <g style="fill: #333333" transform="translate(29.257812 40.353614)scale(0.1 -0.1)">
       <use xlink:href="#DejaVuSans-30"/>
       <use xlink:href="#DejaVuSans-2e" x="63.623047"/>
       <use xlink:href="#DejaVuSans-30" x="95.410156"/>
       <use xlink:href="#DejaVuSans-30" x="159.033203"/>
      </g>
     </g>
    </g>
    <g id="ytick_3">
     <g id="line2d_11">
      <g>
       <use xlink:href="#m88b042e475" x="58.523438" y="18.639462" style="fill: #333333; stroke: #333333; stroke-width: 0.8"/>
      </g>
     </g>
     <g id="text_10">
      <!-- 0.01 -->
      <g style="fill: #333333" transform="translate(29.257812 22.438681)scale(0.1 -0.1)">
       <use xlink:href="#DejaVuSans-30"/>
       <use xlink:href="#DejaVuSans-2e" x="63.623047"/>
       <use xlink:href="#DejaVuSans-30" x="95.410156"/>
       <use xlink:href="#DejaVuSans-31" x="159.033203"/>
      </g>
     </g>
    </g>
    <g id="text_11">
     <!-- bits -->
     <g style="fill: #333333" transform="translate(14.798437 45.682525)rotate(-90)scale(0.1 -0.1)">
      <defs>
       <path id="DejaVuSans-62" d="M 3116 1747 
Q 3116 2381 2855 2742 
Q 2594 3103 2138 3103 
Q 1681 3103 1420 2742 
Q 1159 2381 1159 1747 
Q 1159 1113 1420 752 
Q 1681 391 2138 391 
Q 2594 391 2855 752 
Q 3116 1113 3116 1747 
z
M 1159 2969 
Q 1341 3281 1617 3432 
Q 1894 3584 2278 3584 
Q 2916 3584 3314 3078 
Q 3713 2572 3713 1747 
Q 3713 922 3314 415 
Q 2916 -91 2278 -91 
Q 1894 -91 1617 61 
Q 1341 213 1159 525 
L 1159 0 
L 581 0 
L 581 4863 
L 1159 4863 
L 1159 2969 
z
" transform="scale(0.015625)"/>
       <path id="DejaVuSans-69" d="M 603 3500 
L 1178 3500 
L 1178 0 
L 603 0 
L 603 3500 
z
M 603 4863 
L 1178 4863 
L 1178 4134 
L 603 4134 
L 603 4863 
z
" transform="scale(0.015625)"/>
       <path id="DejaVuSans-74" d="M 1172 4494 
L 1172 3500 
L 2356 3500 
L 2356 3053 
L 1172 3053 
L 1172 1153 
Q 1172 725 1289 603 
Q 1406 481 1766 481 
L 2356 481 
L 2356 0 
L 1766 0 
Q 1100 0 847 248 
Q 594 497 594 1153 
L 594 3053 
L 172 3053 
L 172 3500 
L 594 3500 
L 594 4494 
L 1172 4494 
z
" transform="scale(0.015625)"/>
       <path id="DejaVuSans-73" d="M 2834 3397 
L 2834 2853 
Q 2591 2978 2328 3040 
Q 2066 3103 1784 3103 
Q 1356 3103 1142 2972 
Q 928 2841 928 2578 
Q 928 2378 1081 2264 
Q 1234 2150 1697 2047 
L 1894 2003 
Q 2506 1872 2764 1633 
Q 3022 1394 3022 966 
Q 3022 478 2636 193 
Q 2250 -91 1575 -91 
Q 1294 -91 989 -36 
Q 684 19 347 128 
L 347 722 
Q 666 556 975 473 
Q 1284 391 1588 391 
Q 1994 391 2212 530 
Q 2431 669 2431 922 
Q 2431 1156 2273 1281 
Q 2116 1406 1581 1522 
L 1381 1569 
Q 847 1681 609 1914 
Q 372 2147 372 2553 
Q 372 3047 722 3315 
Q 1072 3584 1716 3584 
Q 2034 3584 2315 3537 
Q 2597 3491 2834 3397 
z
" transform="scale(0.015625)"/>
      </defs>
      <use xlink:href="#DejaVuSans-62"/>
      <use xlink:href="#DejaVuSans-69" x="63.476562"/>
      <use xlink:href="#DejaVuSans-74" x="91.259766"/>
      <use xlink:href="#DejaVuSans-73" x="130.46875"/>
     </g>
    </g>
   </g>
   <g id="patch_139">
    <path d="M 58.523438 65.9088 
L 58.523438 7.2 
" style="fill: none; stroke: #333333; stroke-linejoin: miter; stroke-linecap: square"/>
   </g>
   <g id="patch_140">
    <path d="M 58.523438 65.9088 
L 291.209437 65.9088 
" style="fill: none; stroke: #333333; stroke-linejoin: miter; stroke-linecap: square"/>
   </g>
  </g>
 </g>
 <defs>
  <clipPath id="p3406d1f423">
   <rect x="58.523438" y="7.2" width="232.686" height="58.7088"/>
  </clipPath>
 </defs>
</svg>
